<svg width="215" height="36" viewBox="0 0 215 36" fill="none" xmlns="http://www.w3.org/2000/svg">
<g clip-path="url(#clip0_19_694)">
<path d="M48.1889 13.0282H6.8867C5.61555 13.0282 4.58508 14.0599 4.58508 15.3326V29.1048C4.58508 30.3775 5.61555 31.4092 6.8867 31.4092H48.1889C49.46 31.4092 50.4905 30.3775 50.4905 29.1048V15.3326C50.4905 14.0599 49.46 13.0282 48.1889 13.0282Z" fill="#FCC602"/>
<path d="M67.4536 12.3569C66.7098 12.3673 65.975 12.1927 65.3151 11.8488C64.7061 11.5547 64.1913 11.0959 63.829 10.5242L63.9197 12.0121V16.7117H61.908V1.30645H63.829V2.83064C64.1913 2.25897 64.7061 1.80015 65.3151 1.50605C65.9766 1.16839 66.7113 1.00007 67.4536 1.01613C68.144 1.00563 68.8279 1.15013 69.4551 1.43901C70.0824 1.72789 70.637 2.15382 71.0782 2.68548C72.0496 3.8021 72.5847 5.2329 72.5847 6.71371C72.5847 8.19451 72.0496 9.62532 71.0782 10.7419C70.6317 11.2637 70.0748 11.6793 69.4478 11.9586C68.8209 12.238 68.1396 12.374 67.4536 12.3569ZM67.1274 10.5423C67.5872 10.5503 68.0431 10.4569 68.4627 10.2687C68.8824 10.0806 69.2556 9.8023 69.5559 9.45363C70.1884 8.66692 70.5333 7.68735 70.5333 6.67742C70.5333 5.6675 70.1884 4.68792 69.5559 3.90121C69.25 3.55967 68.8756 3.2865 68.4571 3.09949C68.0387 2.91248 67.5857 2.81582 67.1274 2.81582C66.6692 2.81582 66.2161 2.91248 65.7977 3.09949C65.3793 3.2865 65.0049 3.55967 64.6989 3.90121C64.0363 4.66977 63.6926 5.66314 63.7384 6.67742C63.6935 7.69707 64.0368 8.69579 64.6989 9.47177C65.0089 9.81568 65.39 10.0879 65.8156 10.2697C66.2412 10.4514 66.7012 10.5383 67.1637 10.5242L67.1274 10.5423ZM63.829 16.9113H61.8174C61.7645 16.9113 61.7138 16.8903 61.6764 16.8528C61.6391 16.8154 61.618 16.7646 61.618 16.7117V1.30645C61.6179 1.28102 61.6231 1.25584 61.6334 1.23255C61.6436 1.20926 61.6586 1.18839 61.6774 1.17128C61.6962 1.15417 61.7183 1.1412 61.7425 1.13323C61.7666 1.12526 61.7921 1.12245 61.8174 1.125H63.829C63.8543 1.12245 63.8799 1.12526 63.904 1.13323C63.9281 1.1412 63.9503 1.15417 63.9691 1.17128C63.9879 1.18839 64.0029 1.20926 64.0131 1.23255C64.0233 1.25584 64.0285 1.28102 64.0284 1.30645V2.32258C64.3778 1.88899 64.8168 1.53618 65.3151 1.2883C66.2996 0.791665 67.4219 0.639755 68.5028 0.856846C69.5836 1.07394 70.5606 1.6475 71.2776 2.48589C72.301 3.63116 72.8516 5.12292 72.818 6.65927C72.8571 8.19655 72.3057 9.69028 71.2776 10.8327C70.8198 11.3754 70.2475 11.8099 69.602 12.1048C68.9565 12.3997 68.2537 12.5478 67.5443 12.5383C66.7714 12.5489 66.0072 12.3748 65.3151 12.0302C64.834 11.7793 64.4038 11.4409 64.0465 11.0323V11.9939V16.7117C64.05 16.7404 64.0466 16.7695 64.0367 16.7966C64.0267 16.8237 64.0104 16.848 63.9891 16.8675C63.9678 16.8871 63.9422 16.9012 63.9144 16.9088C63.8865 16.9164 63.8573 16.9173 63.829 16.9113ZM62.0167 16.5302H63.6297V12.0121V10.5242C63.6145 10.477 63.6145 10.4262 63.6297 10.379C63.6763 10.3608 63.7281 10.3608 63.7747 10.379H63.829C63.8613 10.3811 63.8926 10.3903 63.9208 10.406C63.949 10.4217 63.9734 10.4435 63.9921 10.4698C64.3422 11.0114 64.8301 11.4499 65.4057 11.7399C66.042 12.0557 66.7435 12.2173 67.4536 12.2117C68.1102 12.2194 68.7601 12.08 69.3559 11.8037C69.9517 11.5274 70.4782 11.1212 70.897 10.6149C71.8319 9.53071 72.3463 8.14608 72.3463 6.71371C72.3463 5.28133 71.8319 3.89671 70.897 2.8125C70.4782 2.30617 69.9517 1.90001 69.3559 1.62373C68.7601 1.34745 68.1102 1.20804 67.4536 1.21573C66.7435 1.21012 66.042 1.37173 65.4057 1.6875C64.8301 1.97755 64.3422 2.41599 63.9921 2.95766C63.9734 2.98395 63.949 3.00573 63.9208 3.02143C63.8926 3.03712 63.8613 3.04633 63.829 3.04839C63.7762 3.04839 63.7255 3.02736 63.6881 2.98993C63.6507 2.95249 63.6297 2.90173 63.6297 2.84879V1.56048H62.0167V16.5302ZM67.1274 10.7056C66.6426 10.7168 66.1611 10.6219 65.7166 10.4276C65.2722 10.2333 64.8754 9.94425 64.5539 9.58064C63.8968 8.75254 63.5391 7.72603 63.5391 6.66835C63.5391 5.61066 63.8968 4.58415 64.5539 3.75605C64.877 3.39221 65.2734 3.10101 65.7169 2.90159C66.1605 2.70217 66.6412 2.59907 67.1274 2.59907C67.6137 2.59907 68.0944 2.70217 68.5379 2.90159C68.9815 3.10101 69.3778 3.39221 69.7009 3.75605C70.401 4.55733 70.7703 5.5953 70.7339 6.65927C70.7777 7.72439 70.4075 8.76506 69.7009 9.5625C69.3844 9.92378 68.994 10.2128 68.5563 10.41C68.1186 10.6072 67.6437 10.7081 67.1637 10.7056H67.1274ZM67.1274 2.99395C66.6952 2.98216 66.2659 3.06728 65.8707 3.2431C65.4756 3.41892 65.1248 3.68097 64.8439 4.01008C64.2186 4.7469 63.8949 5.69333 63.9378 6.65927C63.8939 7.63087 64.2174 8.58332 64.8439 9.32661C65.1327 9.64588 65.4851 9.90104 65.8784 10.0757C66.2717 10.2503 66.6972 10.3405 67.1274 10.3405C67.5577 10.3405 67.9831 10.2503 68.3764 10.0757C68.7697 9.90104 69.1221 9.64588 69.4109 9.32661C70.0449 8.60087 70.3758 7.65884 70.3352 6.69556C70.3731 5.7272 70.0428 4.78049 69.4109 4.04637C69.1374 3.71543 68.794 3.44937 68.4054 3.26738C68.0168 3.08539 67.5927 2.992 67.1637 2.99395H67.1274ZM79.596 12.3569C78.8725 12.3758 78.1531 12.2418 77.4848 11.9635C76.8165 11.6853 76.2144 11.269 75.7177 10.7419C74.6899 9.6368 74.1424 8.16837 74.1954 6.65927C74.1433 5.16239 74.6764 3.7042 75.6814 2.59476C76.1696 2.08515 76.7543 1.67802 77.4014 1.39713C78.0485 1.11624 78.7449 0.967227 79.4501 0.958781C80.1553 0.950335 80.8552 1.08263 81.5088 1.34794C82.1624 1.61325 82.7566 2.00626 83.2568 2.50403C84.2472 3.7099 84.7457 5.24604 84.6523 6.80444V7.02218H76.2614C76.2574 7.49456 76.3484 7.96292 76.529 8.39935C76.7095 8.83578 76.976 9.23135 77.3125 9.5625C77.9512 10.1877 78.8116 10.5336 79.7047 10.5242C80.3372 10.5242 80.9564 10.3431 81.4894 10.0023C82.0225 9.6615 82.447 9.17523 82.7132 8.60081L84.5254 9.47177C84.066 10.3477 83.3768 11.0816 82.5319 11.5948C81.6529 12.1088 80.6501 12.3723 79.6323 12.3569H79.596ZM76.5151 5.37097H82.6225C82.601 5.02308 82.5096 4.68312 82.3539 4.37137C82.1982 4.05961 81.9814 3.78246 81.7164 3.55645C81.1099 3.04673 80.3323 2.78723 79.5416 2.83064C78.8239 2.81419 78.126 3.06655 77.5844 3.5383C77.0319 4.01115 76.6552 4.65692 76.5151 5.37097ZM79.7047 12.629C78.9541 12.6537 78.2068 12.5175 77.513 12.2296C76.8191 11.9417 76.1947 11.5087 75.6814 10.9597C74.6774 9.79101 74.1253 8.3006 74.1253 6.75907C74.1253 5.21755 74.6774 3.72713 75.6814 2.55847C76.1738 2.0051 76.7807 1.56583 77.4599 1.27126C78.139 0.976693 78.8742 0.833897 79.6141 0.852821C80.3454 0.823763 81.0743 0.951157 81.7525 1.2265C82.4306 1.50185 83.0424 1.91882 83.5468 2.4496C84.5708 3.69641 85.0884 5.28355 84.9966 6.89516V7.13105C84.9886 7.17932 84.9646 7.22348 84.9284 7.2564C84.8922 7.28932 84.8461 7.30908 84.7973 7.3125H76.5151C76.5542 8.14147 76.9036 8.92532 77.4937 9.50806C78.1 10.0974 78.9141 10.4235 79.7591 10.4153C80.3563 10.4137 80.9408 10.2423 81.4445 9.92103C81.9482 9.59981 82.3504 9.14198 82.6044 8.60081C82.6277 8.55665 82.6667 8.52283 82.7137 8.50604C82.7606 8.48924 82.8122 8.49068 82.8581 8.51008L84.6704 9.38105C84.721 9.40867 84.7596 9.45385 84.7792 9.50806C84.7958 9.55503 84.7958 9.60626 84.7792 9.65323C84.3038 10.5603 83.5892 11.3196 82.7132 11.8488C81.7713 12.364 80.7035 12.603 79.6323 12.5383L79.7047 12.629ZM79.5779 1.25201C78.8973 1.23677 78.2214 1.36823 77.596 1.63748C76.9707 1.90672 76.4104 2.30745 75.9533 2.8125C75.0165 3.90999 74.5017 5.30629 74.5017 6.75C74.5017 8.19371 75.0165 9.59 75.9533 10.6875C76.4299 11.1972 77.0092 11.5999 77.6527 11.8689C78.2963 12.1379 78.9895 12.2671 79.6866 12.248C80.6669 12.2565 81.6312 11.9994 82.4775 11.504C83.2258 11.0631 83.8495 10.4387 84.2898 9.68952L82.84 8.98185C82.54 9.53633 82.0945 9.99833 81.5516 10.3181C81.0087 10.6378 80.3889 10.8032 79.7591 10.7964C78.8159 10.8069 77.9057 10.4489 77.2219 9.79839C76.5181 9.08894 76.1211 8.13095 76.1164 7.13105C76.1135 7.10414 76.1167 7.07693 76.1257 7.05141C76.1348 7.02589 76.1494 7.00272 76.1685 6.98358C76.1876 6.96445 76.2107 6.94983 76.2362 6.94081C76.2617 6.93179 76.2889 6.92859 76.3158 6.93145H84.5254C84.6132 5.42719 84.1347 3.94461 83.1843 2.77621C82.7271 2.25321 82.1604 1.83741 81.5246 1.55831C80.8888 1.27921 80.1994 1.14366 79.5054 1.16129L79.5779 1.25201ZM82.6225 5.66129H76.5151C76.4625 5.68073 76.4046 5.68073 76.352 5.66129C76.3393 5.63596 76.3326 5.608 76.3326 5.57964C76.3326 5.55127 76.3393 5.52331 76.352 5.49798C76.4973 4.72293 76.8996 4.01966 77.4937 3.50202C78.0742 3.00721 78.8157 2.74253 79.5779 2.75806C80.421 2.72155 81.2476 2.99958 81.8976 3.5383C82.1799 3.78845 82.41 4.09193 82.5748 4.43133C82.7397 4.77074 82.8359 5.13938 82.8581 5.51613C82.8763 5.5628 82.8763 5.61462 82.8581 5.66129C82.8323 5.67696 82.8035 5.68707 82.7735 5.69097C82.7436 5.69487 82.7131 5.69247 82.6841 5.68394C82.6551 5.6754 82.6283 5.66091 82.6052 5.64139C82.5821 5.62187 82.5633 5.59775 82.55 5.57056L82.6225 5.66129ZM76.7507 5.2621H82.4051C82.3322 4.68031 82.0405 4.14822 81.5895 3.77419C81.0211 3.2888 80.2875 3.04179 79.5416 3.08468C78.8779 3.07196 78.2327 3.30451 77.7293 3.7379C77.2468 4.10281 76.8814 4.6011 76.6782 5.17137L76.7507 5.2621ZM87.0264 1.39717H88.9475V2.83064H89.0381C89.3782 2.27805 89.86 1.82689 90.4335 1.52419C91.0367 1.18371 91.7165 1.00261 92.4089 0.997983C92.9639 0.963859 93.5198 1.04632 94.041 1.24006C94.5622 1.4338 95.0372 1.73455 95.4355 2.12298C96.1882 3.00962 96.5654 4.15553 96.4866 5.31653V12.0484H94.475V5.40726C94.5161 5.04769 94.4735 4.68345 94.3503 4.34318C94.2272 4.0029 94.0269 3.69585 93.7652 3.44616C93.5035 3.19646 93.1876 3.01093 92.8422 2.90413C92.4968 2.79733 92.1314 2.77218 91.7746 2.83064C91.3866 2.82781 91.0032 2.91476 90.6542 3.08472C90.3053 3.25469 90.0003 3.50307 89.763 3.81048C89.2356 4.46836 88.9537 5.28961 88.9656 6.13306V12.0484H86.9539L87.0264 1.39717ZM96.4866 12.2843H94.475C94.4269 12.2843 94.3808 12.2652 94.3468 12.2311C94.3128 12.1971 94.2937 12.1509 94.2937 12.1028V5.40726C94.3325 5.07779 94.2956 4.74381 94.1858 4.43081C94.076 4.11781 93.8962 3.83406 93.6602 3.60124C93.4241 3.36841 93.1381 3.19267 92.8239 3.08742C92.5097 2.98217 92.1756 2.9502 91.8471 2.99395C91.4972 2.99321 91.1518 3.07301 90.8375 3.22717C90.5233 3.38133 90.2487 3.60574 90.0348 3.88306C89.4993 4.49608 89.2032 5.28233 89.2012 6.09677V12.0121C89.1966 12.0618 89.1736 12.108 89.1367 12.1416C89.0998 12.1752 89.0517 12.1938 89.0018 12.1935H86.9902C86.9403 12.1938 86.8922 12.1752 86.8552 12.1416C86.8183 12.108 86.7953 12.0618 86.7908 12.0121V1.30645C86.7907 1.28102 86.7959 1.25584 86.8061 1.23255C86.8164 1.20926 86.8313 1.18839 86.8501 1.17128C86.8689 1.15417 86.8911 1.1412 86.9152 1.13323C86.9394 1.12526 86.9649 1.12245 86.9902 1.125H88.9112C88.9365 1.12245 88.962 1.12526 88.9861 1.13323C89.0103 1.1412 89.0324 1.15417 89.0512 1.17128C89.07 1.18839 89.085 1.20926 89.0953 1.23255C89.1055 1.25584 89.1107 1.28102 89.1105 1.30645V2.30443C89.4426 1.90382 89.8487 1.57113 90.3067 1.3246C90.933 0.956191 91.6463 0.761998 92.3727 0.762097C92.9558 0.725863 93.54 0.813865 94.0867 1.0203C94.6334 1.22673 95.1302 1.5469 95.5442 1.95968C96.326 2.88272 96.722 4.07216 96.6497 5.28024V12.0121C96.6452 12.0618 96.6222 12.108 96.5853 12.1416C96.5484 12.1752 96.5002 12.1938 96.4503 12.1935L96.4866 12.2843ZM94.6381 11.9032H96.251V5.37097C96.3286 4.25803 95.9712 3.15846 95.2542 2.30443C94.6135 1.73888 93.816 1.38212 92.9678 1.28164C92.1195 1.18115 91.2609 1.34171 90.506 1.74193C89.9875 1.9907 89.5391 2.36487 89.2012 2.83064C89.1834 2.85794 89.1593 2.88048 89.1309 2.89629C89.1024 2.9121 89.0706 2.92071 89.0381 2.92137H88.9475C88.8946 2.92137 88.8439 2.90034 88.8065 2.86291C88.7691 2.82548 88.7481 2.77471 88.7481 2.72177V1.43347H87.2258V11.9032H88.8387V6.09677C88.8199 5.20436 89.1222 4.33494 89.6905 3.64718C89.9465 3.31927 90.2738 3.05408 90.6475 2.87173C91.0212 2.68937 91.4314 2.59465 91.8471 2.59476C92.2251 2.55427 92.6074 2.59933 92.9656 2.72663C93.3239 2.85393 93.649 3.0602 93.9169 3.33021C94.1848 3.60021 94.3888 3.92705 94.5136 4.28656C94.6384 4.64607 94.6809 5.02907 94.6381 5.40726V11.9032ZM103.192 1.01613C104.469 0.945944 105.723 1.37536 106.69 2.21371C107.128 2.62833 107.47 3.13392 107.692 3.69501C107.915 4.25611 108.012 4.8591 107.977 5.46169V12.0665H106.056V10.5786C105.704 11.1404 105.215 11.6023 104.634 11.9201C104.053 12.2378 103.401 12.4007 102.739 12.3931C101.657 12.4294 100.601 12.0533 99.785 11.3407C99.4038 11.0219 99.0986 10.6218 98.8917 10.1697C98.6848 9.71768 98.5813 9.22505 98.5888 8.72782C98.571 8.21837 98.6752 7.71204 98.8927 7.25116C99.1103 6.79027 99.4348 6.38823 99.8393 6.07863C100.819 5.39172 101.997 5.04732 103.192 5.09879C104.211 5.05765 105.223 5.28278 106.128 5.75202V5.29839C106.137 4.95396 106.069 4.61185 105.928 4.29764C105.787 3.98343 105.576 3.70524 105.312 3.48387C104.781 3.00516 104.088 2.74582 103.373 2.75806C102.845 2.74557 102.323 2.86919 101.856 3.11704C101.39 3.36488 100.995 3.72864 100.709 4.17339L98.897 3.06653C99.375 2.39126 100.017 1.84879 100.762 1.49011C101.507 1.13144 102.331 0.968329 103.156 1.01613H103.192ZM100.6 8.78226C100.598 9.03628 100.655 9.28733 100.769 9.51455C100.882 9.74178 101.048 9.93861 101.253 10.0887C101.694 10.443 102.246 10.6295 102.811 10.6149C103.233 10.6152 103.65 10.5319 104.038 10.37C104.427 10.208 104.78 9.97059 105.077 9.67137C105.387 9.39663 105.635 9.05851 105.804 8.67978C105.973 8.30106 106.058 7.89052 106.056 7.47581C105.295 6.93814 104.375 6.67575 103.446 6.73185C102.722 6.70552 102.01 6.91571 101.416 7.33064C101.175 7.48043 100.972 7.68491 100.824 7.9276C100.676 8.1703 100.587 8.4444 100.564 8.72782L100.6 8.78226ZM102.667 12.5927C101.54 12.6279 100.441 12.2395 99.5856 11.504C99.1911 11.1616 98.8751 10.7379 98.6592 10.2619C98.4434 9.78584 98.3328 9.26874 98.3351 8.74597C98.3158 8.20812 98.4259 7.6735 98.6561 7.18717C98.8863 6.70085 99.23 6.27709 99.6581 5.95161C100.66 5.22193 101.882 4.85702 103.12 4.91734C104.067 4.8917 105.008 5.07766 105.874 5.46169V5.31653C105.877 5.00468 105.811 4.6961 105.679 4.41349C105.547 4.13088 105.354 3.88142 105.113 3.68347C104.615 3.23694 103.969 2.99125 103.301 2.99395C102.803 2.97906 102.31 3.09523 101.871 3.33086C101.432 3.56649 101.063 3.91332 100.8 4.33669C100.763 4.37113 100.714 4.39028 100.664 4.39028C100.613 4.39028 100.565 4.37113 100.528 4.33669L98.7157 3.22984C98.7057 3.18809 98.7057 3.14457 98.7157 3.10282C98.699 3.04967 98.699 2.99267 98.7157 2.93951C99.6731 1.74365 101.064 0.975271 102.585 0.801918C104.106 0.628565 105.633 1.0643 106.835 2.01411C107.288 2.45036 107.643 2.97915 107.874 3.5646C108.105 4.15005 108.208 4.77848 108.176 5.40726V12.0121C108.171 12.0618 108.148 12.108 108.111 12.1416C108.075 12.1752 108.026 12.1938 107.977 12.1935H106.056C106.009 12.1895 105.965 12.169 105.932 12.1358C105.899 12.1027 105.878 12.0588 105.874 12.0121V10.996C105.494 11.4914 105.001 11.8894 104.437 12.1575C103.874 12.4256 103.254 12.5561 102.63 12.5383L102.667 12.5927ZM103.12 5.33468C101.968 5.27174 100.83 5.60465 99.8937 6.27822C99.5109 6.566 99.2036 6.94262 98.9984 7.37567C98.7932 7.80871 98.6962 8.2852 98.7157 8.76411C98.7055 9.23358 98.8013 9.6993 98.9958 10.1266C99.1904 10.5538 99.4787 10.9317 99.8393 11.2319C100.621 11.9119 101.632 12.2687 102.667 12.2298C103.305 12.2324 103.933 12.0659 104.487 11.7473C105.041 11.4286 105.501 10.9691 105.82 10.4153C105.838 10.388 105.862 10.3655 105.89 10.3497C105.919 10.3339 105.95 10.3252 105.983 10.3246C106.036 10.3246 106.087 10.3456 106.124 10.3831C106.161 10.4205 106.182 10.4713 106.182 10.5242V11.9032H107.723V5.40726C107.75 4.82932 107.654 4.25219 107.442 3.71413C107.229 3.17607 106.905 2.68937 106.49 2.28629C105.549 1.49847 104.345 1.09655 103.12 1.16129C102.349 1.11212 101.579 1.25167 100.875 1.56784C100.17 1.88401 99.5538 2.36728 99.0782 2.97581L100.51 3.86492C100.822 3.43868 101.232 3.09406 101.705 2.8603C102.178 2.62654 102.701 2.51055 103.228 2.52218C103.991 2.50883 104.73 2.78796 105.294 3.30242C105.577 3.53601 105.803 3.83011 105.957 4.163C106.111 4.4959 106.188 4.8591 106.182 5.2258V5.67943C106.194 5.70512 106.2 5.73294 106.2 5.76109C106.2 5.78923 106.194 5.81706 106.182 5.84274C106.152 5.86026 106.118 5.86948 106.083 5.86948C106.048 5.86948 106.013 5.86026 105.983 5.84274C105.083 5.39998 104.084 5.19985 103.083 5.2621L103.12 5.33468ZM102.811 10.7782C102.208 10.7838 101.621 10.5856 101.144 10.2157C100.913 10.0468 100.726 9.82558 100.596 9.57014C100.467 9.31469 100.4 9.03227 100.401 8.74597C100.406 8.42451 100.489 8.10906 100.644 7.82743C100.799 7.5458 101.02 7.30665 101.289 7.13105C101.923 6.69587 102.678 6.47347 103.446 6.49597C104.422 6.44098 105.388 6.72277 106.182 7.29435C106.194 7.31691 106.199 7.34175 106.199 7.36694C106.199 7.39212 106.194 7.41696 106.182 7.43952C106.184 7.88217 106.091 8.32006 105.91 8.72379C105.729 9.12751 105.463 9.48773 105.131 9.78024C104.501 10.3984 103.657 10.7494 102.775 10.7601L102.811 10.7782ZM103.446 6.89516C102.764 6.86991 102.092 7.06038 101.525 7.43952C101.302 7.57826 101.118 7.77038 100.988 7.99849C100.858 8.22661 100.787 8.48352 100.782 8.74597C100.779 8.97368 100.833 9.19852 100.937 9.40092C101.041 9.60332 101.193 9.77714 101.38 9.90726C101.791 10.2209 102.295 10.3871 102.811 10.379C103.605 10.3802 104.368 10.0671 104.932 9.50806C105.215 9.25966 105.444 8.95621 105.606 8.61619C105.768 8.27616 105.859 7.90668 105.874 7.53024C105.142 7.05896 104.279 6.83043 103.41 6.87701L103.446 6.89516ZM110.695 1.3246H112.616V2.83064H112.707C113.052 2.27563 113.54 1.82424 114.12 1.52419C114.702 1.19891 115.356 1.02427 116.023 1.01613C116.578 0.98087 117.134 1.0628 117.656 1.25661C118.177 1.45041 118.652 1.75177 119.05 2.14113C119.802 3.02777 120.18 4.17367 120.101 5.33468V12.0665H118.198V5.40726C118.237 5.04496 118.191 4.6786 118.065 4.33692C117.938 3.99524 117.734 3.68752 117.469 3.43791C117.204 3.18829 116.885 3.00356 116.537 2.8982C116.188 2.79284 115.82 2.76972 115.461 2.83064C115.073 2.82781 114.69 2.91476 114.341 3.08472C113.992 3.25469 113.687 3.50307 113.45 3.81048C112.922 4.46836 112.64 5.28961 112.652 6.13306V12.0484H110.641L110.695 1.3246ZM120.155 12.2117H118.198C118.148 12.2119 118.1 12.1934 118.063 12.1598C118.026 12.1262 118.003 12.08 117.999 12.0302V5.40726C118.041 5.07704 118.007 4.74145 117.898 4.42671C117.79 4.11197 117.61 3.82662 117.373 3.59295C117.136 3.35928 116.849 3.18362 116.533 3.07971C116.217 2.9758 115.881 2.94645 115.552 2.99395C115.202 2.99321 114.857 3.07301 114.542 3.22717C114.228 3.38133 113.953 3.60574 113.74 3.88306C113.23 4.5064 112.96 5.29157 112.978 6.09677V12.0121C112.974 12.0618 112.951 12.108 112.914 12.1416C112.877 12.1752 112.829 12.1938 112.779 12.1935H110.767C110.721 12.1895 110.677 12.169 110.644 12.1358C110.611 12.1027 110.59 12.0588 110.586 12.0121V1.30645C110.586 1.25833 110.605 1.21217 110.639 1.17814C110.673 1.14412 110.719 1.125 110.767 1.125H112.689C112.714 1.12245 112.739 1.12526 112.763 1.13323C112.788 1.1412 112.81 1.15417 112.829 1.17128C112.847 1.18839 112.862 1.20926 112.873 1.23255C112.883 1.25584 112.888 1.28102 112.888 1.30645V2.30443C113.22 1.90382 113.626 1.57113 114.084 1.3246C114.912 0.864193 115.865 0.677701 116.806 0.791757C117.746 0.905813 118.627 1.31458 119.321 1.95968C120.103 2.88272 120.499 4.07216 120.427 5.28024V12.0121C120.433 12.0523 120.427 12.0933 120.409 12.1297C120.391 12.1661 120.362 12.1962 120.327 12.2159C120.291 12.2356 120.251 12.244 120.21 12.24C120.17 12.236 120.132 12.2198 120.101 12.1935L120.155 12.2117ZM118.343 11.8306H119.974V5.29839C120.045 4.18325 119.681 3.08408 118.959 2.23185C118.577 1.86679 118.124 1.58482 117.628 1.4037C117.132 1.22257 116.604 1.14621 116.078 1.17943C115.442 1.19169 114.82 1.35993 114.265 1.66936C113.665 1.90845 113.144 2.31069 112.761 2.83064C112.743 2.85794 112.719 2.88048 112.691 2.89629C112.662 2.9121 112.63 2.92071 112.598 2.92137H112.507C112.454 2.92137 112.404 2.90034 112.366 2.86291C112.329 2.82548 112.308 2.77471 112.308 2.72177V1.43347H110.786V11.9032H112.399V6.09677C112.38 5.20436 112.682 4.33494 113.25 3.64718C113.506 3.31927 113.834 3.05408 114.207 2.87173C114.581 2.68937 114.991 2.59465 115.407 2.59476C115.788 2.54834 116.174 2.58898 116.537 2.71363C116.9 2.83828 117.23 3.04369 117.502 3.31441C117.774 3.58513 117.981 3.91412 118.108 4.27661C118.235 4.63911 118.278 5.02569 118.234 5.40726L118.343 11.8306ZM127.567 17.0746C127.004 17.0796 126.443 17.0063 125.9 16.8569C125.39 16.7213 124.906 16.5005 124.468 16.2036C124.048 15.9414 123.674 15.6101 123.363 15.2238C123.058 14.853 122.824 14.4284 122.674 13.9718L124.487 13.1734C124.692 13.787 125.093 14.316 125.628 14.6794C126.159 15.0509 126.793 15.2475 127.441 15.2419C127.911 15.2677 128.382 15.1937 128.823 15.0249C129.263 14.8561 129.663 14.5961 129.996 14.2621C130.641 13.5152 130.967 12.5439 130.902 11.5585V10.5423C130.51 11.113 129.98 11.5749 129.362 11.8851C128.709 12.2109 127.989 12.3788 127.259 12.375C126.572 12.3801 125.891 12.2351 125.265 11.9499C124.639 11.6647 124.083 11.2463 123.635 10.7238C122.655 9.60748 122.131 8.16294 122.167 6.67742C122.125 5.19633 122.65 3.75523 123.635 2.64919C124.082 2.12432 124.638 1.70313 125.263 1.41486C125.889 1.1266 126.57 0.978151 127.259 0.979837C127.989 0.976074 128.709 1.14389 129.362 1.46976C129.976 1.78751 130.499 2.25568 130.884 2.83064V1.34274H132.805V11.5403C132.85 12.278 132.745 13.0172 132.496 13.7129C132.247 14.4085 131.858 15.0461 131.355 15.5867C130.316 16.5614 128.937 17.0892 127.513 17.0565L127.567 17.0746ZM127.567 10.5423C128.023 10.5549 128.477 10.4653 128.894 10.2801C129.311 10.0948 129.681 9.81869 129.978 9.47177C130.612 8.68221 130.957 7.69954 130.957 6.68649C130.957 5.67344 130.612 4.69078 129.978 3.90121C129.682 3.55198 129.312 3.27309 128.895 3.08478C128.478 2.89647 128.025 2.80346 127.567 2.8125C127.108 2.80456 126.652 2.89798 126.232 3.08613C125.812 3.27427 125.439 3.55254 125.139 3.90121C124.506 4.68792 124.162 5.6675 124.162 6.67742C124.162 7.68735 124.506 8.66692 125.139 9.45363C125.443 9.80138 125.82 10.0776 126.243 10.2627C126.666 10.4478 127.124 10.5371 127.586 10.5242L127.567 10.5423ZM127.567 17.2742C126.985 17.2823 126.405 17.2028 125.846 17.0383C125.317 16.8968 124.815 16.67 124.36 16.3669C123.919 16.1026 123.532 15.7579 123.218 15.3508C122.898 14.9542 122.646 14.5064 122.475 14.0262C122.462 13.9804 122.466 13.9314 122.486 13.8881C122.506 13.8449 122.54 13.8102 122.584 13.7903L124.487 12.9919C124.539 12.974 124.597 12.974 124.65 12.9919C124.69 13.0263 124.721 13.0699 124.74 13.119C124.939 13.6866 125.314 14.176 125.81 14.5161C126.337 14.8928 126.974 15.0842 127.622 15.0605C128.066 15.0876 128.511 15.019 128.927 14.8593C129.343 14.6997 129.72 14.4528 130.032 14.1351C130.643 13.4142 130.948 12.4833 130.884 11.5403V10.996C130.506 11.4227 130.051 11.7736 129.543 12.0302C128.862 12.3705 128.111 12.5446 127.35 12.5383C126.64 12.544 125.938 12.3962 125.29 12.105C124.643 11.8137 124.066 11.3859 123.599 10.8508C122.585 9.6935 122.042 8.19793 122.076 6.65927C122.039 5.12565 122.583 3.63485 123.599 2.48589C124.061 1.94321 124.637 1.50792 125.285 1.21025C125.932 0.912574 126.637 0.759652 127.35 0.762097C128.112 0.761457 128.864 0.941791 129.543 1.2883C130.055 1.53889 130.511 1.89072 130.884 2.32258V1.30645C130.881 1.28192 130.884 1.25704 130.892 1.2337C130.9 1.21036 130.913 1.18915 130.931 1.17169C130.948 1.15422 130.969 1.14094 130.993 1.13285C131.016 1.12477 131.041 1.12208 131.065 1.125H132.986C133.011 1.12245 133.037 1.12526 133.061 1.13323C133.085 1.1412 133.107 1.15417 133.126 1.17128C133.145 1.18839 133.16 1.20926 133.17 1.23255C133.181 1.25584 133.186 1.28102 133.186 1.30645V11.5403C133.228 12.303 133.115 13.0664 132.853 13.7839C132.592 14.5014 132.187 15.158 131.663 15.7137C131.126 16.2642 130.478 16.6943 129.763 16.9758C129.048 17.2573 128.281 17.3838 127.513 17.3468L127.567 17.2742ZM122.91 14.0806C123.067 14.4484 123.267 14.7957 123.508 15.1149C123.812 15.4788 124.174 15.7912 124.577 16.0403C125 16.3237 125.465 16.5381 125.955 16.6754C126.479 16.825 127.022 16.8983 127.567 16.8931C128.263 16.922 128.957 16.8099 129.607 16.5635C130.258 16.3172 130.853 15.9417 131.355 15.4597C131.831 14.9307 132.195 14.3107 132.426 13.6372C132.656 12.9636 132.748 12.2504 132.696 11.5403V1.50605H131.174V2.83064C131.174 2.85686 131.169 2.88281 131.159 2.90703C131.149 2.93124 131.134 2.95325 131.116 2.97178C131.097 2.99031 131.075 3.00502 131.051 3.01505C131.027 3.02508 131.001 3.03024 130.975 3.03024C130.942 3.02959 130.91 3.02098 130.882 3.00516C130.853 2.98935 130.829 2.96681 130.811 2.93951C130.447 2.39044 129.939 1.95132 129.343 1.66936C128.719 1.35591 128.03 1.19428 127.332 1.19758C126.673 1.19356 126.022 1.3345 125.424 1.61043C124.826 1.88636 124.295 2.29053 123.87 2.79435C122.918 3.86693 122.406 5.26075 122.439 6.69556C122.411 8.1351 122.921 9.53307 123.87 10.6149C124.299 11.1135 124.83 11.513 125.428 11.7855C126.025 12.0581 126.675 12.1973 127.332 12.1935C128.03 12.1969 128.719 12.0352 129.343 11.7218C129.933 11.4304 130.438 10.9932 130.811 10.4516C130.829 10.4243 130.853 10.4018 130.882 10.386C130.91 10.3702 130.942 10.3615 130.975 10.3609C131.001 10.3609 131.027 10.366 131.051 10.3761C131.075 10.3861 131.097 10.4008 131.116 10.4193C131.134 10.4379 131.149 10.4599 131.159 10.4841C131.169 10.5083 131.174 10.5343 131.174 10.5605V11.5766C131.229 12.6142 130.886 13.6336 130.213 14.4254C129.858 14.7741 129.435 15.0458 128.971 15.2238C128.506 15.4017 128.01 15.482 127.513 15.4597C126.808 15.473 126.117 15.2635 125.538 14.8609C125.024 14.5139 124.627 14.021 124.396 13.4456L122.91 14.0806ZM127.64 10.7238C127.154 10.7314 126.672 10.6332 126.228 10.4358C125.783 10.2384 125.387 9.9466 125.066 9.58064C124.368 8.77843 123.999 7.74111 124.033 6.67742C124.004 5.61458 124.373 4.57914 125.066 3.77419C125.386 3.40588 125.782 3.11134 126.226 2.91085C126.67 2.71037 127.153 2.60872 127.64 2.6129C128.125 2.60644 128.605 2.70716 129.047 2.90789C129.489 3.10862 129.881 3.40441 130.195 3.77419C130.895 4.57547 131.265 5.61345 131.228 6.67742C131.275 7.74843 130.905 8.79578 130.195 9.59879C129.874 9.9711 129.472 10.2645 129.019 10.4564C128.567 10.6484 128.076 10.7336 127.586 10.7056L127.64 10.7238ZM127.64 3.0121C127.208 3.00411 126.78 3.09095 126.386 3.26651C125.991 3.44207 125.64 3.70207 125.356 4.02822C124.725 4.76235 124.394 5.70906 124.432 6.67742C124.392 7.6407 124.723 8.58273 125.356 9.30847C125.637 9.6389 125.988 9.903 126.382 10.0818C126.777 10.2606 127.207 10.3497 127.64 10.3427C128.068 10.3593 128.495 10.278 128.887 10.1051C129.28 9.93223 129.628 9.67221 129.905 9.34476C130.516 8.59381 130.85 7.65496 130.85 6.68649C130.85 5.71803 130.516 4.77918 129.905 4.02822C129.625 3.68775 129.27 3.4171 128.867 3.23761C128.465 3.05813 128.026 2.97472 127.586 2.99395L127.64 3.0121ZM66.7287 30.6835C66.0052 30.7024 65.2858 30.5684 64.6175 30.2901C63.9492 30.0119 63.3471 29.5956 62.8504 29.0685C61.8227 27.9634 61.2751 26.495 61.3281 24.9859C61.276 23.489 61.8092 22.0308 62.8142 20.9214C63.288 20.3886 63.8726 19.9662 64.527 19.6841C65.1814 19.4019 65.8897 19.2668 66.6019 19.2883C67.3065 19.2603 68.009 19.3834 68.6623 19.6494C69.3155 19.9154 69.9045 20.3181 70.3895 20.8306C71.3827 22.0421 71.8812 23.5849 71.785 25.1492V25.3669H63.3941C63.3915 25.8364 63.4832 26.3016 63.6638 26.7349C63.8444 27.1682 64.1101 27.5607 64.4452 27.8891C65.0839 28.5144 65.9443 28.8602 66.8375 28.8508C67.4699 28.8508 68.0891 28.6697 68.6221 28.3289C69.1552 27.9881 69.5798 27.5018 69.8459 26.9274L71.6582 27.7984C71.1987 28.6743 70.5095 29.4082 69.6646 29.9214C68.7757 30.4436 67.7591 30.7075 66.7287 30.6835ZM63.5391 23.6976H69.6465C69.5977 23.0001 69.2791 22.3491 68.7585 21.8831C68.1388 21.3844 67.36 21.1267 66.5656 21.1573C65.8479 21.1408 65.1499 21.3932 64.6083 21.8649C64.0559 22.3378 63.6791 22.9835 63.5391 23.6976ZM66.7287 30.9556C65.9792 30.9789 65.2335 30.8402 64.5424 30.549C63.8512 30.2579 63.2309 29.821 62.7235 29.2681C61.6568 28.1313 61.0833 26.6176 61.1287 25.0585C61.085 23.515 61.6366 22.0139 62.6692 20.8669C63.1769 20.3345 63.7871 19.9106 64.4631 19.621C65.139 19.3315 65.8666 19.1822 66.6019 19.1822C67.3371 19.1822 68.0647 19.3315 68.7406 19.621C69.4166 19.9106 70.0268 20.3345 70.5345 20.8669C71.5634 22.1111 72.0816 23.7002 71.9844 25.3125V25.5484C71.9758 25.5948 71.9511 25.6367 71.9146 25.6666C71.8781 25.6965 71.8322 25.7125 71.785 25.7117H63.5934C63.629 26.5415 63.9789 27.3266 64.5721 27.9073C65.1784 28.4966 65.9925 28.8227 66.8375 28.8145C67.4347 28.8129 68.0191 28.6415 68.5228 28.3202C69.0265 27.999 69.4288 27.5412 69.6827 27C69.7166 26.9668 69.7622 26.9481 69.8096 26.9481C69.8571 26.9481 69.9026 26.9668 69.9365 27L71.7488 27.871C71.7744 27.8788 71.7978 27.8928 71.8168 27.9118C71.8357 27.9308 71.8497 27.9541 71.8575 27.9798C71.8702 28.0019 71.8769 28.0269 71.8769 28.0524C71.8769 28.0779 71.8702 28.1029 71.8575 28.125C71.3299 28.9466 70.5913 29.611 69.719 30.0484C68.818 30.597 67.7832 30.8858 66.7287 30.8831V30.9556ZM66.6019 19.5605C65.9213 19.5452 65.2454 19.6767 64.62 19.9459C63.9946 20.2152 63.4344 20.6159 62.9773 21.121C62.0425 22.223 61.5293 23.6217 61.5293 25.0675C61.5293 26.5133 62.0425 27.9121 62.9773 29.0141C63.4576 29.5178 64.0379 29.9152 64.6809 30.1809C65.3239 30.4465 66.0153 30.5744 66.7106 30.5565C67.6892 30.5704 68.6534 30.3197 69.5015 29.8306C70.2483 29.3879 70.8716 28.7638 71.3138 28.0161L69.864 27.3085C69.5639 27.8629 69.1185 28.3249 68.5756 28.6447C68.0327 28.9644 67.4129 29.1298 66.7831 29.123C65.8373 29.1287 64.9268 28.764 64.2459 28.1069C63.5388 27.3996 63.1411 26.4402 63.1404 25.4395C63.1375 25.4126 63.1407 25.3854 63.1497 25.3599C63.1587 25.3344 63.1733 25.3112 63.1924 25.2921C63.2115 25.2729 63.2347 25.2583 63.2602 25.2493C63.2857 25.2403 63.3128 25.2371 63.3397 25.2399H71.5494C71.6321 23.7333 71.147 22.2504 70.1902 21.0847C69.7427 20.5749 69.1902 20.1682 68.5708 19.8925C67.9514 19.6169 67.2797 19.4789 66.6019 19.4879V19.5605ZM69.6465 23.9698H63.5391C63.4864 23.9892 63.4286 23.9892 63.376 23.9698C63.3632 23.9444 63.3566 23.9165 63.3566 23.8881C63.3566 23.8597 63.3632 23.8318 63.376 23.8065C63.521 23.0364 63.9237 22.3388 64.5177 21.8286C65.0956 21.3293 65.8388 21.064 66.6019 21.0847C67.4459 21.041 68.275 21.3199 68.9216 21.8649C69.2048 22.1103 69.4359 22.4103 69.6009 22.747C69.7659 23.0836 69.8615 23.4501 69.8821 23.8246C69.8977 23.8779 69.8977 23.9346 69.8821 23.9879C69.8384 24.0023 69.7911 24.0012 69.7481 23.9846C69.7052 23.9681 69.6693 23.9372 69.6465 23.8972V23.9698ZM63.829 23.498H69.5015C69.4205 22.9147 69.1228 22.3834 68.6679 22.0101C68.0976 21.528 67.3653 21.2814 66.62 21.3206C65.9562 21.3078 65.311 21.5404 64.8077 21.9738C64.3373 22.373 63.9965 22.9037 63.829 23.498ZM78.9798 24.8952L82.7857 30.3387H80.4297L77.7475 26.4194L75.1559 30.375H72.8905L76.6601 24.9315L73.0355 19.6694H75.319L77.9468 23.4436L80.4478 19.6694H82.8038L78.9798 24.8952ZM82.7857 30.5202H80.4297C80.4044 30.5329 80.3764 30.5396 80.3481 30.5396C80.3198 30.5396 80.2919 30.5329 80.2666 30.5202L77.8018 26.8911L75.3734 30.5202C75.3477 30.5317 75.3199 30.5376 75.2918 30.5376C75.2637 30.5376 75.2359 30.5317 75.2103 30.5202H72.8905C72.8621 30.5332 72.8312 30.54 72.7999 30.54C72.7686 30.54 72.7377 30.5332 72.7093 30.5202C72.6918 30.4898 72.6826 30.4554 72.6826 30.4204C72.6826 30.3853 72.6918 30.3509 72.7093 30.3206L76.3339 24.9859L72.7093 19.8508C72.6872 19.8222 72.6753 19.7871 72.6753 19.751C72.6753 19.7149 72.6872 19.6798 72.7093 19.6512C72.7232 19.6193 72.746 19.5921 72.7749 19.5728C72.8038 19.5535 72.8376 19.5429 72.8724 19.5423H75.1559C75.2028 19.5257 75.254 19.5257 75.3009 19.5423L77.7837 23.0806L80.1397 19.5423C80.1585 19.516 80.1828 19.4943 80.211 19.4786C80.2393 19.4629 80.2706 19.4537 80.3028 19.4516H82.6588C82.6962 19.4509 82.733 19.4608 82.765 19.48C82.797 19.4993 82.823 19.5272 82.84 19.5605C82.8535 19.592 82.8604 19.626 82.8604 19.6603C82.8604 19.6946 82.8535 19.7285 82.84 19.7601L79.2154 24.8952L82.84 30.1754C82.8528 30.2007 82.8594 30.2287 82.8594 30.2571C82.8594 30.2854 82.8528 30.3134 82.84 30.3387C82.8431 30.3765 82.8343 30.4144 82.8148 30.4469C82.7953 30.4795 82.7661 30.5051 82.7313 30.5202H82.7857ZM80.5384 30.1391H82.3507L78.7261 25.004C78.6994 24.9741 78.6846 24.9353 78.6846 24.8952C78.6846 24.855 78.6994 24.8162 78.7261 24.7863L82.2238 19.8327H80.4115L77.9649 23.4617C77.9472 23.489 77.9231 23.5115 77.8947 23.5273C77.8662 23.5432 77.8344 23.5518 77.8018 23.5524C77.7495 23.5736 77.691 23.5736 77.6387 23.5524L75.0653 19.9234H73.253L76.7326 24.877C76.75 24.9106 76.7592 24.948 76.7592 24.9859C76.7592 25.0238 76.75 25.0611 76.7326 25.0948L73.108 30.2298H74.9203L77.4575 26.3649C77.4752 26.3376 77.4994 26.3151 77.5278 26.2993C77.5562 26.2835 77.5881 26.2748 77.6206 26.2742C77.6528 26.2762 77.6842 26.2855 77.7124 26.3012C77.7406 26.3168 77.7649 26.3386 77.7837 26.3649L80.5384 30.1391ZM90.1798 30.6835C89.4299 30.6962 88.6887 30.5216 88.0232 30.1754C87.4141 29.8813 86.8993 29.4225 86.5371 28.8508H86.4465L86.5371 30.3387V35.0564H84.5254V19.6331H86.4465V21.121H86.5371C86.8993 20.5493 87.4141 20.0905 88.0232 19.7964C88.6887 19.4502 89.4299 19.2756 90.1798 19.2883C90.8701 19.2778 91.5541 19.4223 92.1813 19.7112C92.8085 20.0001 93.3631 20.426 93.8044 20.9577C94.7736 22.0789 95.307 23.5121 95.307 24.995C95.307 26.4778 94.7736 27.911 93.8044 29.0323C93.3565 29.5689 92.7925 29.9965 92.1551 30.2826C91.5177 30.5687 90.8236 30.7057 90.1254 30.6835H90.1798ZM89.8536 28.8689C90.3103 28.8742 90.7627 28.7795 91.179 28.5915C91.5954 28.4034 91.9656 28.1265 92.2639 27.7802C92.9364 27.0163 93.2872 26.0213 93.2426 25.004C93.2779 23.9881 92.9283 22.9964 92.2639 22.2278C91.958 21.8863 91.5836 21.6131 91.1652 21.4261C90.7468 21.2391 90.2937 21.1424 89.8355 21.1424C89.3773 21.1424 88.9242 21.2391 88.5057 21.4261C88.0873 21.6131 87.7129 21.8863 87.407 22.2278C86.7853 23.0228 86.4475 24.0034 86.4475 25.0131C86.4475 26.0228 86.7853 27.0034 87.407 27.7984C87.7096 28.1321 88.0791 28.3982 88.4912 28.5795C88.9034 28.7608 89.3491 28.8533 89.7992 28.8508L89.8536 28.8689ZM86.5371 35.256H84.5254C84.4756 35.2563 84.4274 35.2377 84.3905 35.2041C84.3536 35.1705 84.3306 35.1243 84.3261 35.0746V19.6512C84.3306 19.6015 84.3536 19.5553 84.3905 19.5217C84.4274 19.4881 84.4756 19.4695 84.5254 19.4698H86.4465C86.4963 19.4695 86.5445 19.4881 86.5814 19.5217C86.6183 19.5553 86.6413 19.6015 86.6458 19.6512V20.6673C86.9953 20.2338 87.4342 19.8809 87.9326 19.6331C88.917 19.1364 90.0394 18.9845 91.1202 19.2016C92.2011 19.4187 93.178 19.9923 93.895 20.8306C94.9234 21.9741 95.4804 23.4655 95.4536 25.004C95.4858 26.5435 94.9281 28.0368 93.895 29.1774C93.4489 29.7368 92.8841 30.1898 92.2415 30.5036C91.599 30.8174 90.8947 30.9842 90.1798 30.9919C89.3995 30.9984 88.629 30.818 87.9326 30.4657C87.4515 30.2148 87.0213 29.8764 86.664 29.4677V30.4294V35.1653C86.6425 35.192 86.6146 35.2126 86.5828 35.2253C86.5511 35.2381 86.5166 35.2424 86.4827 35.2379L86.5371 35.256ZM84.7248 34.875H86.3377V30.3387V28.8689C86.3195 28.8223 86.3195 28.7705 86.3377 28.7238C86.3603 28.7126 86.3851 28.7068 86.4102 28.7068C86.4354 28.7068 86.4602 28.7126 86.4827 28.7238H86.5733C86.6056 28.7258 86.6369 28.7351 86.6651 28.7508C86.6933 28.7664 86.7177 28.7882 86.7364 28.8145C87.0865 29.3562 87.5745 29.7946 88.15 30.0847C88.7922 30.4019 89.5 30.5635 90.216 30.5565C90.8695 30.5614 91.516 30.4207 92.1084 30.1445C92.7008 29.8683 93.2245 29.4636 93.6413 28.9597C94.605 27.8927 95.1239 26.4966 95.0911 25.0585C95.1184 23.6212 94.6003 22.2271 93.6413 21.1573C93.2245 20.6533 92.7008 20.2486 92.1084 19.9724C91.516 19.6962 90.8695 19.5555 90.216 19.5605C89.5 19.5534 88.7922 19.715 88.15 20.0323C87.5745 20.3223 87.0865 20.7608 86.7364 21.3024C86.6841 21.3236 86.6257 21.3236 86.5733 21.3024H86.4827C86.4565 21.3024 86.4306 21.2973 86.4064 21.2872C86.3822 21.2772 86.3603 21.2625 86.3417 21.244C86.3232 21.2254 86.3086 21.2034 86.2986 21.1792C86.2885 21.155 86.2834 21.129 86.2834 21.1028V19.8145H84.7611L84.7248 34.875ZM89.8536 29.0685C89.3645 29.0789 88.8791 28.9819 88.4314 28.7844C87.9837 28.5869 87.5845 28.2937 87.262 27.9254C86.6048 27.0973 86.2471 26.0708 86.2471 25.0131C86.2471 23.9554 86.6048 22.9289 87.262 22.1008C87.5881 21.742 87.9855 21.4554 88.4286 21.2593C88.8718 21.0631 89.351 20.9618 89.8355 20.9618C90.32 20.9618 90.7992 21.0631 91.2423 21.2593C91.6855 21.4554 92.0828 21.742 92.4089 22.1008C93.109 22.9021 93.4783 23.9401 93.4419 25.004C93.4858 26.0692 93.1155 27.1098 92.4089 27.9073C92.0844 28.278 91.6824 28.5726 91.2314 28.7701C90.7803 28.9677 90.2914 29.0634 89.7992 29.0504L89.8536 29.0685ZM89.8536 21.3387C89.4169 21.3264 88.9831 21.413 88.5846 21.5921C88.186 21.7712 87.833 22.0381 87.552 22.373C86.9341 23.1069 86.6111 24.0448 86.6458 25.004C86.6072 25.9749 86.9302 26.9254 87.552 27.6714C87.8398 27.9956 88.1949 28.253 88.5925 28.4254C88.9901 28.5977 89.4205 28.681 89.8536 28.6694C90.283 28.6797 90.7092 28.5939 91.1012 28.418C91.4931 28.2422 91.8409 27.9809 92.119 27.6532C92.7175 26.9037 93.0435 25.9727 93.0435 25.0131C93.0435 24.0535 92.7175 23.1225 92.119 22.373C91.8405 22.0292 91.4859 21.7551 91.0833 21.5724C90.6806 21.3897 90.241 21.3035 89.7992 21.3206L89.8536 21.3387ZM102.304 30.7016C101.581 30.7194 100.862 30.5849 100.194 30.3067C99.5254 30.0285 98.9232 29.6129 98.4257 29.0867C97.398 27.9816 96.8505 26.5131 96.9034 25.004C96.826 23.5368 97.3123 22.0954 98.2626 20.9758C98.7569 20.4722 99.3464 20.0721 99.9967 19.7991C100.647 19.526 101.345 19.3854 102.05 19.3854C102.756 19.3854 103.454 19.526 104.104 19.7991C104.754 20.0721 105.344 20.4722 105.838 20.9758C106.835 22.1329 107.365 23.6213 107.324 25.1492V25.3669H98.9332C98.9306 25.8364 99.0223 26.3016 99.2029 26.7349C99.3835 27.1682 99.6492 27.5607 99.9843 27.8891C100.623 28.5144 101.483 28.8602 102.377 28.8508C103.009 28.8508 103.628 28.6697 104.161 28.3289C104.694 27.9881 105.119 27.5018 105.385 26.9274L107.197 27.7984C106.738 28.6743 106.049 29.4082 105.204 29.9214C104.31 30.4469 103.286 30.7109 102.25 30.6835L102.304 30.7016ZM99.1144 23.7157H105.24C105.177 23.0181 104.854 22.3699 104.334 21.9012C103.716 21.3996 102.936 21.1415 102.141 21.1754C101.423 21.1589 100.725 21.4113 100.184 21.8831C99.6145 22.3429 99.2183 22.9827 99.0601 23.6976L99.1144 23.7157ZM102.304 30.9738C101.555 30.9971 100.809 30.8584 100.118 30.5672C99.4266 30.276 98.8062 29.8391 98.2989 29.2863C97.2321 28.1495 96.6587 26.6358 96.7041 25.0766C96.6415 23.4996 97.2013 21.9613 98.2626 20.7944C98.7703 20.2619 99.3806 19.838 100.057 19.5485C100.733 19.2589 101.46 19.1096 102.195 19.1096C102.931 19.1096 103.658 19.2589 104.334 19.5485C105.01 19.838 105.62 20.2619 106.128 20.7944C107.157 22.0385 107.675 23.6276 107.578 25.2399V25.4758C107.569 25.5222 107.545 25.5641 107.508 25.594C107.472 25.6239 107.426 25.6399 107.378 25.6391H99.205C99.2245 26.4689 99.5696 27.2577 100.166 27.8347C100.772 28.424 101.586 28.7501 102.431 28.7419C103.028 28.7403 103.613 28.5689 104.116 28.2476C104.62 27.9264 105.022 27.4686 105.276 26.9274C105.31 26.8942 105.356 26.8756 105.403 26.8756C105.451 26.8756 105.496 26.8942 105.53 26.9274L107.342 27.7984C107.368 27.8062 107.391 27.8202 107.41 27.8392C107.429 27.8582 107.443 27.8816 107.451 27.9073C107.464 27.9293 107.47 27.9544 107.47 27.9798C107.47 28.0053 107.464 28.0304 107.451 28.0524C106.914 28.9107 106.148 29.602 105.24 30.0484C104.339 30.597 103.304 30.8858 102.25 30.8831L102.304 30.9738ZM102.177 19.5786C101.497 19.5634 100.821 19.6948 100.195 19.9641C99.57 20.2333 99.0097 20.6341 98.5526 21.1391C97.5916 22.2209 97.0794 23.6294 97.1209 25.0766C97.0712 26.5372 97.5987 27.9585 98.5888 29.0323C99.0692 29.5359 99.6495 29.9334 100.292 30.199C100.935 30.4647 101.627 30.5926 102.322 30.5746C103.301 30.5886 104.265 30.3378 105.113 29.8488C105.86 29.406 106.483 28.782 106.925 28.0343L105.476 27.3266C105.176 27.8811 104.73 28.3431 104.187 28.6628C103.644 28.9826 103.025 29.1479 102.395 29.1411C101.449 29.1468 100.538 28.7822 99.8575 28.125C99.1504 27.4178 98.7527 26.4584 98.752 25.4577C98.7338 25.411 98.7338 25.3592 98.752 25.3125C98.7991 25.2972 98.8498 25.2972 98.897 25.3125H107.125C107.217 23.8047 106.73 22.3186 105.766 21.1573C105.317 20.6291 104.759 20.2058 104.129 19.9174C103.5 19.629 102.815 19.4823 102.123 19.4879L102.177 19.5786ZM105.24 23.9879H99.1144C99.0618 24.0073 99.004 24.0073 98.9513 23.9879C98.9386 23.9626 98.9319 23.9346 98.9319 23.9063C98.9319 23.8779 98.9386 23.8499 98.9513 23.8246C99.0964 23.0546 99.499 22.357 100.093 21.8468C100.671 21.3474 101.414 21.0821 102.177 21.1028C103.021 21.0592 103.85 21.338 104.497 21.8831C104.78 22.1285 105.011 22.4284 105.176 22.7651C105.341 23.1018 105.437 23.4683 105.457 23.8427C105.457 23.8427 105.457 23.9516 105.457 24.006C105.435 24.0265 105.407 24.0402 105.377 24.0455C105.347 24.0509 105.316 24.0477 105.288 24.0364C105.259 24.025 105.235 24.006 105.217 23.9814C105.199 23.9568 105.188 23.9276 105.186 23.8972L105.24 23.9879ZM99.35 23.5887H105.022C104.935 23.0077 104.638 22.4786 104.189 22.1008C103.619 21.6187 102.886 21.3721 102.141 21.4113C101.478 21.4019 100.834 21.6341 100.329 22.0645C99.8528 22.432 99.4939 22.93 99.2957 23.498L99.35 23.5887ZM111.637 30.4294H109.626V19.7238H111.547V21.5383C111.781 20.9228 112.224 20.409 112.797 20.0867C113.334 19.7219 113.962 19.5145 114.61 19.4879C115.117 19.4674 115.624 19.5539 116.096 19.7419L115.479 21.6835C115.097 21.5706 114.699 21.5216 114.301 21.5383C113.926 21.5361 113.555 21.6162 113.213 21.7729C112.872 21.9296 112.569 22.1592 112.326 22.4456C111.781 23.0241 111.483 23.7918 111.492 24.5867L111.637 30.4294ZM111.637 30.6109H109.626C109.578 30.6109 109.532 30.5918 109.498 30.5577C109.464 30.5237 109.444 30.4776 109.444 30.4294V19.7238C109.449 19.677 109.469 19.6332 109.502 19.6C109.535 19.5669 109.579 19.5464 109.626 19.5423H111.547C111.597 19.5421 111.645 19.5607 111.682 19.5942C111.719 19.6278 111.742 19.6741 111.746 19.7238V20.8488C112.019 20.4472 112.378 20.1123 112.797 19.869C113.375 19.4724 114.055 19.2518 114.755 19.2339C115.287 19.2214 115.816 19.3139 116.313 19.506C116.336 19.5141 116.357 19.5267 116.375 19.543C116.393 19.5593 116.407 19.5791 116.417 19.601C116.427 19.623 116.433 19.6468 116.434 19.671C116.435 19.6952 116.43 19.7193 116.422 19.7419L115.806 21.6835C115.786 21.7325 115.755 21.7761 115.715 21.8105C115.662 21.8285 115.605 21.8285 115.552 21.8105C115.195 21.6971 114.821 21.648 114.446 21.6653C114.101 21.6703 113.761 21.7489 113.448 21.896C113.136 22.0431 112.858 22.2552 112.634 22.5181C112.125 23.0642 111.846 23.7855 111.855 24.5323V30.4294C111.846 30.4556 111.831 30.4793 111.811 30.4987C111.791 30.5181 111.767 30.5328 111.741 30.5415C111.715 30.5503 111.687 30.5529 111.66 30.5492C111.632 30.5455 111.606 30.5356 111.583 30.5202L111.637 30.6109ZM109.825 30.2298H111.438V24.4415C111.435 23.5998 111.752 22.7885 112.326 22.1734C112.588 21.8664 112.913 21.6199 113.279 21.4507C113.645 21.2816 114.043 21.1938 114.446 21.1935C114.8 21.1828 115.154 21.2194 115.498 21.3024L116.005 19.7056C115.599 19.5843 115.178 19.5232 114.755 19.5242C114.107 19.5364 113.477 19.7382 112.942 20.1048C112.412 20.4091 111.997 20.8815 111.764 21.4476C111.755 21.4877 111.732 21.523 111.698 21.5466C111.665 21.5701 111.624 21.5801 111.583 21.5746C111.558 21.5771 111.532 21.5743 111.508 21.5664C111.484 21.5584 111.462 21.5454 111.443 21.5283C111.424 21.5112 111.409 21.4903 111.399 21.467C111.389 21.4438 111.384 21.4186 111.384 21.3931V19.8327H109.861L109.825 30.2298ZM120.572 16.0403C120.575 16.2291 120.539 16.4165 120.468 16.5911C120.396 16.7658 120.29 16.9241 120.155 17.0565C119.956 17.2544 119.703 17.3886 119.428 17.4422C119.153 17.4958 118.868 17.4663 118.61 17.3573C118.351 17.2484 118.131 17.0651 117.977 16.8306C117.823 16.596 117.742 16.321 117.745 16.0403C117.74 15.854 117.775 15.6688 117.847 15.4968C117.919 15.3248 118.026 15.17 118.162 15.0423C118.292 14.9096 118.447 14.8041 118.618 14.7321C118.789 14.6601 118.973 14.623 119.158 14.623C119.344 14.623 119.528 14.6601 119.699 14.7321C119.87 14.8041 120.025 14.9096 120.155 15.0423C120.383 15.2903 120.511 15.613 120.518 15.9496L120.572 16.0403ZM120.155 19.6694V30.375H118.198V19.6694H120.155ZM120.155 30.5565H118.198C118.173 30.559 118.147 30.5562 118.123 30.5482C118.099 30.5402 118.077 30.5273 118.058 30.5102C118.039 30.4931 118.024 30.4722 118.014 30.4489C118.004 30.4256 117.998 30.4004 117.999 30.375V19.6694C118.003 19.6196 118.026 19.5734 118.063 19.5398C118.1 19.5062 118.148 19.4877 118.198 19.4879H120.191C120.241 19.4877 120.289 19.5062 120.326 19.5398C120.363 19.5734 120.386 19.6196 120.391 19.6694V30.375C120.391 30.4087 120.381 30.4417 120.364 30.4704C120.346 30.4991 120.321 30.5222 120.291 30.5373C120.26 30.5524 120.227 30.5587 120.193 30.5557C120.16 30.5527 120.128 30.5404 120.101 30.5202L120.155 30.5565ZM118.343 30.1754H119.974V19.8327H118.343V30.1754ZM119.158 17.6008C118.731 17.6008 118.32 17.4307 118.018 17.1278C117.715 16.825 117.545 16.4142 117.545 15.9859C117.545 15.7737 117.587 15.5635 117.667 15.3674C117.748 15.1712 117.867 14.9929 118.017 14.8427C118.165 14.6904 118.343 14.5699 118.539 14.4888C118.735 14.4077 118.946 14.3676 119.158 14.371C119.37 14.3696 119.581 14.4107 119.777 14.4917C119.973 14.5727 120.151 14.692 120.3 14.8427C120.45 14.9929 120.569 15.1712 120.649 15.3674C120.73 15.5635 120.772 15.7737 120.771 15.9859C120.775 16.1985 120.735 16.4096 120.654 16.6062C120.573 16.8028 120.452 16.9807 120.3 17.129C120.141 17.2799 119.953 17.3965 119.747 17.4714C119.542 17.5463 119.323 17.578 119.104 17.5645L119.158 17.6008ZM119.158 14.7702C118.996 14.764 118.834 14.7932 118.684 14.8559C118.533 14.9186 118.399 15.0131 118.289 15.1331C118.172 15.242 118.08 15.3742 118.017 15.521C117.955 15.6679 117.924 15.8263 117.926 15.9859C117.926 16.3131 118.056 16.627 118.287 16.8584C118.518 17.0898 118.832 17.2198 119.158 17.2198C119.32 17.2204 119.481 17.1886 119.63 17.1262C119.779 17.0639 119.915 16.9723 120.028 16.8569C120.142 16.7429 120.231 16.6069 120.291 16.4571C120.35 16.3073 120.378 16.1469 120.373 15.9859C120.377 15.8276 120.349 15.6701 120.29 15.5233C120.231 15.3765 120.142 15.2436 120.028 15.1331C119.915 15.0002 119.773 14.8952 119.612 14.826C119.452 14.7568 119.278 14.7253 119.104 14.7339L119.158 14.7702ZM127.894 30.7198C127.17 30.741 126.45 30.6081 125.781 30.3297C125.113 30.0512 124.511 29.6338 124.015 29.1048C122.988 27.9997 122.44 26.5313 122.493 25.0222C122.441 23.5253 122.974 22.0671 123.979 20.9577C124.472 20.4546 125.06 20.0549 125.709 19.7821C126.357 19.5092 127.054 19.3687 127.758 19.3687C128.461 19.3687 129.158 19.5092 129.807 19.7821C130.456 20.0549 131.044 20.4546 131.536 20.9577C132.543 22.1628 133.049 23.7086 132.95 25.2762V25.494H124.559C124.556 25.9634 124.648 26.4287 124.829 26.8619C125.009 27.2952 125.275 27.6877 125.61 28.0161C125.993 28.3994 126.463 28.6845 126.98 28.8473C127.497 29.0101 128.045 29.0459 128.579 28.9515C129.112 28.8572 129.615 28.6355 130.045 28.3052C130.474 27.975 130.818 27.546 131.047 27.0544L132.859 27.9254C132.4 28.8013 131.711 29.5353 130.866 30.0484C129.937 30.5412 128.888 30.7614 127.839 30.6835L127.894 30.7198ZM124.686 23.7339H130.811C130.756 23.0342 130.431 22.3835 129.905 21.9194C129.289 21.4147 128.508 21.1562 127.712 21.1935C127.001 21.1816 126.31 21.4337 125.773 21.9012C125.208 22.3601 124.807 22.9906 124.632 23.6976L124.686 23.7339ZM127.894 30.9919C127.142 31.0131 126.394 30.8735 125.7 30.5825C125.007 30.2916 124.383 29.8558 123.87 29.3044C122.809 28.1658 122.241 26.6517 122.294 25.0948C122.25 23.5513 122.802 22.0502 123.834 20.9032C124.326 20.3499 124.933 19.9106 125.613 19.616C126.292 19.3214 127.027 19.1787 127.767 19.1976C128.497 19.1663 129.226 19.2945 129.902 19.5734C130.578 19.8522 131.185 20.2751 131.681 20.8125C132.723 22.0503 133.249 23.6424 133.149 25.2581V25.494C133.145 25.5389 133.124 25.5805 133.09 25.6107C133.057 25.6409 133.013 25.6575 132.968 25.6573H124.777C124.812 26.4871 125.162 27.2722 125.755 27.8528C126.361 28.4422 127.176 28.7682 128.021 28.7601C128.618 28.7584 129.202 28.587 129.706 28.2658C130.21 27.9446 130.612 27.4867 130.866 26.9456C130.9 26.9123 130.945 26.8937 130.993 26.8937C131.04 26.8937 131.086 26.9123 131.12 26.9456L132.932 27.8165C132.958 27.8243 132.981 27.8383 133 27.8573C133.019 27.8763 133.033 27.8997 133.041 27.9254C133.059 27.9721 133.059 28.0239 133.041 28.0706C132.516 28.9147 131.77 29.5987 130.884 30.0484C129.967 30.6067 128.912 30.8959 127.839 30.8831L127.894 30.9919ZM127.767 19.5968C127.086 19.5791 126.409 19.7095 125.784 19.9789C125.158 20.2483 124.598 20.6503 124.142 21.1573C123.207 22.2593 122.694 23.658 122.694 25.1038C122.694 26.5496 123.207 27.9484 124.142 29.0504C124.623 29.5541 125.203 29.9515 125.846 30.2172C126.489 30.4828 127.18 30.6107 127.876 30.5927C128.854 30.6067 129.818 30.356 130.666 29.8669C131.413 29.4242 132.037 28.8001 132.479 28.0524L131.029 27.3448C130.727 27.8979 130.282 28.3588 129.739 28.6784C129.196 28.9979 128.577 29.1641 127.948 29.1593C127.002 29.165 126.092 28.8003 125.411 28.1431C125.054 27.798 124.772 27.3831 124.582 26.9243C124.391 26.4655 124.297 25.9725 124.305 25.4758C124.302 25.4489 124.306 25.4217 124.315 25.3962C124.324 25.3707 124.338 25.3475 124.357 25.3283C124.376 25.3092 124.4 25.2946 124.425 25.2856C124.451 25.2766 124.478 25.2734 124.505 25.2762H132.696C132.784 23.7719 132.305 22.2894 131.355 21.121C130.904 20.5994 130.343 20.183 129.714 19.9009C129.085 19.6188 128.402 19.4779 127.712 19.4879L127.767 19.5968ZM130.811 24.006H124.686C124.639 24.0226 124.588 24.0226 124.541 24.006C124.528 23.9807 124.522 23.9528 124.522 23.9244C124.522 23.896 124.528 23.8681 124.541 23.8427C124.686 23.0727 125.089 22.3751 125.683 21.8649C126.254 21.3668 126.991 21.1013 127.749 21.121C128.598 21.0763 129.434 21.355 130.087 21.9012C130.37 22.1466 130.601 22.4466 130.766 22.7833C130.931 23.1199 131.026 23.4864 131.047 23.8609C131.063 23.9142 131.063 23.9709 131.047 24.0242C131.02 24.039 130.99 24.0475 130.96 24.0489C130.929 24.0503 130.899 24.0446 130.871 24.0323C130.843 24.0201 130.818 24.0015 130.798 23.978C130.778 23.9546 130.764 23.9269 130.757 23.8972L130.811 24.006ZM124.94 23.6069H130.594C130.521 23.0251 130.229 22.493 129.778 22.119C129.201 21.6373 128.463 21.3911 127.712 21.4294C127.048 21.415 126.403 21.6478 125.9 22.0827C125.434 22.4477 125.082 22.9388 124.885 23.498L124.94 23.6069ZM135.215 19.7419H137.136V21.2298H137.227C137.567 20.6772 138.049 20.2261 138.622 19.9234C139.226 19.5851 139.906 19.4042 140.598 19.3972C141.153 19.3631 141.709 19.4455 142.23 19.6393C142.751 19.833 143.226 20.1337 143.624 20.5222C144.374 21.4107 144.75 22.5552 144.675 23.7157V30.4476H142.664V23.752C142.711 23.3873 142.673 23.0165 142.551 22.6693C142.43 22.3222 142.229 22.0083 141.965 21.7526C141.701 21.497 141.381 21.3067 141.03 21.1971C140.679 21.0874 140.308 21.0613 139.945 21.121C139.557 21.1181 139.174 21.2051 138.825 21.3751C138.476 21.545 138.171 21.7934 137.934 22.1008C137.406 22.7587 137.125 23.5799 137.136 24.4234V30.3387H135.125L135.215 19.7419ZM144.675 30.629H142.664C142.639 30.6319 142.615 30.6293 142.591 30.6212C142.568 30.6131 142.547 30.5998 142.529 30.5823C142.512 30.5649 142.499 30.5437 142.49 30.5203C142.482 30.497 142.48 30.4721 142.483 30.4476V23.752C142.528 23.4124 142.492 23.0668 142.379 22.7435C142.266 22.4201 142.078 22.1281 141.831 21.8912C141.583 21.6543 141.284 21.4791 140.956 21.38C140.629 21.2808 140.282 21.2604 139.945 21.3206C139.594 21.3206 139.247 21.4025 138.932 21.56C138.618 21.7175 138.344 21.9461 138.133 22.2278C137.622 22.8432 137.352 23.6234 137.372 24.4234V30.3387C137.372 30.3641 137.367 30.3893 137.357 30.4126C137.346 30.4359 137.331 30.4568 137.313 30.4739C137.294 30.491 137.272 30.504 137.248 30.5119C137.223 30.5199 137.198 30.5227 137.173 30.5202H135.161C135.136 30.5227 135.11 30.5199 135.086 30.5119C135.062 30.504 135.04 30.491 135.021 30.4739C135.002 30.4568 134.987 30.4359 134.977 30.4126C134.967 30.3893 134.961 30.3641 134.962 30.3387V19.6331C134.966 19.5833 134.989 19.5371 135.026 19.5035C135.063 19.4699 135.111 19.4514 135.161 19.4516H137.082C137.132 19.4514 137.18 19.4699 137.217 19.5035C137.254 19.5371 137.277 19.5833 137.281 19.6331V20.6311C137.613 20.2304 138.02 19.8977 138.477 19.6512C139.108 19.2928 139.819 19.0994 140.543 19.0887C141.127 19.0525 141.711 19.1405 142.258 19.3469C142.804 19.5533 143.301 19.8735 143.715 20.2863C144.493 21.2112 144.889 22.3993 144.821 23.6069V30.3387C144.821 30.3641 144.815 30.3893 144.805 30.4126C144.795 30.4359 144.78 30.4568 144.761 30.4739C144.742 30.491 144.72 30.504 144.696 30.5119C144.672 30.5199 144.646 30.5227 144.621 30.5202L144.675 30.629ZM142.863 30.248H144.476V23.7157C144.553 22.6084 144.195 21.5149 143.479 20.6673C143.101 20.2972 142.648 20.0107 142.152 19.8263C141.656 19.6419 141.126 19.5637 140.598 19.5968C139.96 19.6034 139.334 19.7787 138.786 20.1048C138.235 20.3874 137.772 20.8138 137.444 21.3387C137.419 21.3502 137.391 21.3562 137.363 21.3562C137.335 21.3562 137.307 21.3502 137.281 21.3387H137.191C137.138 21.3387 137.087 21.3177 137.05 21.2802C137.012 21.2428 136.991 21.1921 136.991 21.1391V19.8508H135.469V30.1573H137.082V24.4234C137.063 23.531 137.366 22.6615 137.934 21.9738C138.179 21.6736 138.485 21.4293 138.832 21.2572C139.179 21.0851 139.558 20.9891 139.945 20.9758C140.325 20.9263 140.711 20.9642 141.074 21.0865C141.437 21.2089 141.768 21.4125 142.04 21.682C142.313 21.9514 142.521 22.2795 142.647 22.6414C142.774 23.0032 142.817 23.3893 142.773 23.7702L142.863 30.248ZM152.36 30.7923C151.625 30.8125 150.895 30.6793 150.214 30.4013C149.534 30.1232 148.919 29.7064 148.409 29.1774C147.375 28.0738 146.815 26.6076 146.85 25.0948C146.829 24.345 146.956 23.5984 147.223 22.8978C147.49 22.1972 147.893 21.5564 148.409 21.0121C148.919 20.4831 149.534 20.0663 150.214 19.7882C150.895 19.5102 151.625 19.377 152.36 19.3972C153.369 19.3757 154.361 19.6604 155.205 20.2137C156.014 20.7801 156.643 21.5675 157.017 22.4819L155.205 23.244C154.991 22.63 154.583 22.102 154.044 21.739C153.505 21.3759 152.863 21.1973 152.215 21.2298C151.761 21.2331 151.314 21.3354 150.903 21.5298C150.493 21.7241 150.131 22.0056 149.841 22.3548C149.178 23.1105 148.829 24.0901 148.862 25.0948C148.833 26.1042 149.182 27.0879 149.841 27.8528C150.132 28.1996 150.495 28.4785 150.905 28.6697C151.315 28.8609 151.762 28.9599 152.215 28.9597C152.877 28.993 153.533 28.8162 154.09 28.4546C154.646 28.093 155.074 27.565 155.314 26.9456L157.126 27.7077C156.767 28.6309 156.134 29.4223 155.314 29.9758C154.405 30.5103 153.356 30.757 152.305 30.6835L152.36 30.7923ZM152.36 30.9919C151.598 31.0165 150.84 30.8806 150.135 30.593C149.429 30.3054 148.792 29.8726 148.264 29.3226C147.198 28.1781 146.625 26.6592 146.669 25.0948C146.643 24.3222 146.77 23.5521 147.044 22.8294C147.318 22.1067 147.732 21.4457 148.264 20.8851C148.79 20.3318 149.427 19.8956 150.132 19.6048C150.838 19.3141 151.597 19.1753 152.36 19.1976C153.398 19.1796 154.418 19.4768 155.285 20.05C156.152 20.6232 156.825 21.4457 157.217 22.4093C157.235 22.4559 157.235 22.5078 157.217 22.5544C157.209 22.5801 157.195 22.6035 157.176 22.6225C157.157 22.6415 157.134 22.6555 157.108 22.6633L155.296 23.4254C155.247 23.4435 155.194 23.4423 155.147 23.4221C155.1 23.4018 155.062 23.364 155.042 23.3165C154.83 22.7527 154.442 22.272 153.936 21.9454C153.431 21.6187 152.833 21.4633 152.233 21.502C151.807 21.5015 151.386 21.5956 151 21.7776C150.615 21.9596 150.274 22.2249 150.004 22.5544C149.379 23.2783 149.049 24.2111 149.079 25.1673C149.051 26.1287 149.381 27.0662 150.004 27.7984C150.349 28.1889 150.788 28.4853 151.28 28.6598C151.771 28.8342 152.298 28.881 152.812 28.7958C153.327 28.7106 153.811 28.4962 154.22 28.1726C154.629 27.849 154.949 27.4268 155.151 26.9456C155.174 26.9008 155.212 26.8655 155.258 26.8457C155.304 26.8258 155.356 26.8226 155.404 26.8367L157.217 27.6169C157.239 27.625 157.26 27.6376 157.278 27.6539C157.296 27.6702 157.31 27.6899 157.321 27.7119C157.331 27.7339 157.336 27.7577 157.337 27.7819C157.338 27.8061 157.334 27.8302 157.325 27.8528C156.937 28.8148 156.267 29.637 155.404 30.2117C154.461 30.7388 153.382 30.9725 152.305 30.8831L152.36 30.9919ZM152.36 19.5968C151.649 19.5774 150.942 19.706 150.284 19.9747C149.626 20.2433 149.03 20.646 148.536 21.1573C148.039 21.6819 147.652 22.3003 147.397 22.9764C147.142 23.6524 147.024 24.3725 147.05 25.0948C147.016 26.5594 147.556 27.9793 148.554 29.0504C149.048 29.5561 149.641 29.9541 150.296 30.2195C150.951 30.4849 151.653 30.612 152.36 30.5927C153.347 30.6152 154.318 30.3436 155.151 29.8125C155.896 29.3271 156.482 28.633 156.836 27.8165L155.404 27.1996C155.159 27.7165 154.788 28.1641 154.327 28.5019C153.865 28.8397 153.327 29.0571 152.761 29.1345C152.194 29.2119 151.617 29.1469 151.082 28.9453C150.547 28.7437 150.071 28.4119 149.696 27.9798C149 27.1832 148.631 26.1525 148.663 25.0948C148.632 24.0426 149.001 23.018 149.696 22.2278C150.003 21.8575 150.388 21.5598 150.823 21.3559C151.259 21.152 151.734 21.047 152.215 21.0484C152.866 21.0135 153.511 21.1814 154.063 21.5291C154.615 21.8768 155.045 22.3871 155.296 22.9899L156.782 22.373C156.404 21.5225 155.781 20.8041 154.994 20.3096C154.206 19.8151 153.289 19.5669 152.36 19.5968ZM163.958 30.7923C163.235 30.8113 162.515 30.6773 161.847 30.399C161.179 30.1208 160.577 29.7045 160.08 29.1774C159.052 28.0723 158.505 26.6039 158.558 25.0948C158.506 23.5979 159.039 22.1397 160.044 21.0302C160.538 20.5266 161.127 20.1266 161.778 19.8535C162.428 19.5804 163.126 19.4398 163.831 19.4398C164.537 19.4398 165.235 19.5804 165.885 19.8535C166.535 20.1266 167.125 20.5266 167.619 21.0302C168.539 22.1999 169.009 23.6618 168.942 25.1492V25.3669H160.551C160.549 25.8364 160.64 26.3016 160.821 26.7349C161.001 27.1682 161.267 27.5607 161.602 27.8891C162.241 28.5144 163.101 28.8602 163.995 28.8508C164.627 28.8508 165.246 28.6697 165.779 28.3289C166.312 27.9881 166.737 27.5018 167.003 26.9274L168.815 27.7984C168.356 28.6743 167.667 29.4082 166.822 29.9214C165.938 30.4404 164.928 30.7041 163.904 30.6835L163.958 30.7923ZM160.751 23.8065H166.894C166.832 23.1046 166.501 22.4542 165.97 21.9919C165.359 21.4901 164.585 21.2316 163.795 21.2661C163.078 21.2497 162.38 21.502 161.838 21.9738C161.286 22.4137 160.886 23.017 160.696 23.6976L160.751 23.8065ZM163.958 31.0645C163.206 31.0857 162.459 30.9461 161.765 30.6551C161.071 30.3641 160.447 29.9284 159.935 29.377C158.931 28.2084 158.379 26.7179 158.379 25.1764C158.379 23.6349 158.931 22.1445 159.935 20.9758C160.443 20.4433 161.053 20.0195 161.729 19.7299C162.405 19.4403 163.133 19.291 163.868 19.291C164.603 19.291 165.331 19.4403 166.007 19.7299C166.682 20.0195 167.293 20.4433 167.8 20.9758C168.829 22.22 169.348 23.8091 169.25 25.4214V25.6573C169.242 25.7037 169.217 25.7456 169.18 25.7755C169.144 25.8054 169.098 25.8213 169.051 25.8206H160.859C160.895 26.6504 161.245 27.4355 161.838 28.0161C162.444 28.6055 163.258 28.9315 164.103 28.9234C164.7 28.9217 165.285 28.7503 165.789 28.4291C166.292 28.1079 166.695 27.65 166.949 27.1089C166.982 27.0756 167.028 27.057 167.075 27.057C167.123 27.057 167.168 27.0756 167.202 27.1089L169.015 27.9798C169.04 27.9876 169.064 28.0016 169.083 28.0206C169.102 28.0396 169.116 28.063 169.123 28.0887C169.136 28.1108 169.143 28.1358 169.143 28.1613C169.143 28.1868 169.136 28.2118 169.123 28.2339C168.556 29.0279 167.786 29.6546 166.894 30.0484C165.993 30.597 164.958 30.8858 163.904 30.8831L163.958 31.0645ZM163.831 19.6694C163.151 19.6541 162.475 19.7856 161.85 20.0548C161.224 20.3241 160.664 20.7248 160.207 21.2298C159.272 22.3319 158.759 23.7306 158.759 25.1764C158.759 26.6222 159.272 28.021 160.207 29.123C160.687 29.6267 161.268 30.0241 161.911 30.2897C162.554 30.5554 163.245 30.6833 163.94 30.6653C164.919 30.6793 165.883 30.4285 166.731 29.9395C167.478 29.4967 168.101 28.8727 168.543 28.125L167.094 27.4173C166.794 27.9718 166.348 28.4338 165.805 28.7536C165.262 29.0733 164.643 29.2387 164.013 29.2319C163.067 29.2375 162.156 28.8729 161.475 28.2157C160.768 27.5085 160.371 26.5491 160.37 25.5484C160.367 25.5215 160.37 25.4943 160.379 25.4688C160.388 25.4432 160.403 25.4201 160.422 25.4009C160.441 25.3818 160.464 25.3672 160.49 25.3581C160.515 25.3491 160.542 25.3459 160.569 25.3488H168.797C168.88 23.8422 168.395 22.3593 167.438 21.1935C166.991 20.6564 166.431 20.2249 165.798 19.93C165.166 19.6351 164.475 19.4841 163.777 19.4879L163.831 19.6694ZM166.894 24.0786H160.751C160.704 24.0952 160.652 24.0952 160.606 24.0786C160.593 24.0533 160.586 24.0253 160.586 23.997C160.586 23.9686 160.593 23.9406 160.606 23.9153C160.751 23.1453 161.153 22.4477 161.747 21.9375C162.325 21.4382 163.068 21.1728 163.831 21.1935C164.676 21.1499 165.505 21.4288 166.151 21.9738C166.434 22.2192 166.665 22.5192 166.83 22.8558C166.995 23.1925 167.091 23.559 167.112 23.9335C167.112 23.9335 167.112 24.0423 167.112 24.0968C167.081 24.1019 167.049 24.1008 167.019 24.0935C166.988 24.0862 166.959 24.0729 166.934 24.0543C166.909 24.0357 166.887 24.0122 166.871 23.9852C166.855 23.9582 166.844 23.9283 166.84 23.8972L166.894 24.0786ZM161.004 23.6794H166.677C166.581 23.1011 166.286 22.5745 165.843 22.1915C165.273 21.7094 164.541 21.4629 163.795 21.502C163.132 21.4927 162.488 21.7248 161.983 22.1552C161.521 22.4982 161.163 22.9631 160.95 23.498L161.004 23.6794ZM176.844 30.9375C176.1 30.9503 175.364 30.7755 174.705 30.4294C174.09 30.1381 173.568 29.6791 173.201 29.1048H173.11L173.201 30.5927V35.3105H171.189V19.8871H173.11V21.375H173.201C173.568 20.8008 174.09 20.3417 174.705 20.0504C175.364 19.7043 176.1 19.5296 176.844 19.5423C177.535 19.5279 178.22 19.6706 178.848 19.9598C179.476 20.2489 180.03 20.677 180.468 21.2117C181.438 22.3329 181.971 23.7662 181.971 25.249C181.971 26.7318 181.438 28.1651 180.468 29.2863C179.999 29.7801 179.424 30.1619 178.788 30.4038C178.151 30.6456 177.468 30.7412 176.789 30.6835L176.844 30.9375ZM176.518 29.123C176.977 29.1285 177.432 29.0339 177.851 28.8459C178.271 28.658 178.644 28.381 178.946 28.0343C179.618 27.2704 179.969 26.2754 179.925 25.2581C179.96 24.2422 179.61 23.2505 178.946 22.4819C178.638 22.1399 178.262 21.8664 177.843 21.6793C177.423 21.4921 176.968 21.3954 176.508 21.3954C176.049 21.3954 175.594 21.4921 175.174 21.6793C174.754 21.8664 174.378 22.1399 174.071 22.4819C173.449 23.2769 173.111 24.2575 173.111 25.2671C173.111 26.2768 173.449 27.2574 174.071 28.0524C174.396 28.3395 174.775 28.5582 175.186 28.6953C175.597 28.8325 176.031 28.8854 176.463 28.8508L176.518 29.123ZM173.201 35.5101H171.189C171.143 35.506 171.099 35.4856 171.066 35.4524C171.033 35.4192 171.012 35.3754 171.008 35.3286V19.9052C171.012 19.8585 171.033 19.8147 171.066 19.7815C171.099 19.7483 171.143 19.7279 171.189 19.7238H173.11C173.16 19.7236 173.208 19.7421 173.245 19.7757C173.282 19.8093 173.305 19.8555 173.31 19.9052V20.9214C173.67 20.4912 174.114 20.1393 174.615 19.8871C175.596 19.3918 176.716 19.2407 177.793 19.4578C178.871 19.6749 179.845 20.2478 180.559 21.0847C181.587 22.2282 182.144 23.7196 182.118 25.2581C182.15 26.7975 181.592 28.2909 180.559 29.4315C180.115 29.9937 179.551 30.4488 178.908 30.7629C178.265 31.0771 177.559 31.2422 176.844 31.246C176.069 31.2524 175.305 31.0719 174.615 30.7198C174.13 30.4738 173.699 30.1347 173.346 29.7218V30.6835V35.4194C173.296 35.4196 173.248 35.401 173.211 35.3674C173.174 35.3339 173.151 35.2876 173.147 35.2379L173.201 35.5101ZM171.389 35.129H173.02V30.3387L172.911 28.8689C172.9 28.8464 172.894 28.8216 172.894 28.7964C172.894 28.7712 172.9 28.7463 172.911 28.7238C172.931 28.7142 172.953 28.7092 172.975 28.7092C172.996 28.7092 173.018 28.7142 173.038 28.7238H173.129C173.161 28.7244 173.193 28.7331 173.221 28.7489C173.25 28.7647 173.274 28.7872 173.292 28.8145C173.647 29.3586 174.141 29.7973 174.723 30.0847C175.36 30.4005 176.061 30.5621 176.771 30.5565C177.425 30.564 178.072 30.4245 178.665 30.1481C179.258 29.8717 179.781 29.4656 180.196 28.9597C181.167 27.8955 181.692 26.4991 181.664 25.0585C181.685 23.6191 181.16 22.2253 180.196 21.1573C179.781 20.6513 179.258 20.2452 178.665 19.9688C178.072 19.6925 177.425 19.5529 176.771 19.5605C176.061 19.5549 175.36 19.7165 174.723 20.0323C174.141 20.3196 173.647 20.7583 173.292 21.3024C173.266 21.3139 173.238 21.3199 173.21 21.3199C173.182 21.3199 173.154 21.3139 173.129 21.3024H173.038C172.986 21.2983 172.938 21.2759 172.902 21.2393C172.865 21.2028 172.843 21.1544 172.839 21.1028V19.8145H171.316L171.389 35.129ZM176.518 29.3226C176.028 29.3329 175.543 29.2359 175.095 29.0384C174.648 28.8409 174.248 28.5478 173.926 28.1794C173.269 27.3513 172.911 26.3248 172.911 25.2671C172.911 24.2095 173.269 23.1829 173.926 22.3548C174.254 21.9956 174.653 21.7087 175.097 21.5124C175.542 21.3161 176.022 21.2147 176.508 21.2147C176.994 21.2147 177.475 21.3161 177.92 21.5124C178.364 21.7087 178.763 21.9956 179.091 22.3548C179.778 23.1625 180.14 24.1976 180.106 25.2581C180.15 26.3232 179.779 27.3638 179.073 28.1613C178.726 28.4872 178.314 28.7351 177.864 28.8885C177.414 29.0418 176.936 29.097 176.463 29.0504L176.518 29.3226ZM176.518 21.5927C176.081 21.5804 175.647 21.667 175.249 21.8461C174.85 22.0252 174.497 22.2922 174.216 22.627C173.598 23.3609 173.275 24.2988 173.31 25.2581C173.271 26.2289 173.594 27.1795 174.216 27.9254C174.504 28.2497 174.859 28.507 175.256 28.6794C175.654 28.8518 176.084 28.9351 176.518 28.9234C176.947 28.9338 177.373 28.8479 177.765 28.6721C178.157 28.4963 178.505 28.235 178.783 27.9073C179.391 27.162 179.723 26.2294 179.723 25.2671C179.723 24.3049 179.391 23.3722 178.783 22.627C178.532 22.2364 178.189 21.9132 177.785 21.6855C177.381 21.4578 176.927 21.3325 176.463 21.3206L176.518 21.5927ZM188.243 19.5605C189.525 19.4913 190.785 19.9203 191.759 20.7581C192.195 21.1784 192.535 21.6876 192.757 22.2511C192.979 22.8146 193.077 23.4193 193.046 24.0242V30.6109H191.125V29.123C190.774 29.6847 190.284 30.1467 189.703 30.4644C189.123 30.7822 188.47 30.9451 187.808 30.9375C186.726 30.9738 185.67 30.5976 184.854 29.8851C184.476 29.5645 184.174 29.1636 183.971 28.7117C183.767 28.2597 183.666 27.768 183.676 27.2722C183.657 26.7625 183.76 26.2557 183.978 25.7945C184.196 25.3334 184.521 24.9315 184.927 24.623C185.895 23.9272 187.071 23.5817 188.261 23.6431C189.285 23.6046 190.302 23.8295 191.215 24.2964V23.8427C191.219 23.4975 191.146 23.1557 191.001 22.842C190.857 22.5283 190.646 22.2504 190.382 22.0282C189.85 21.5495 189.157 21.2902 188.442 21.3024C187.914 21.2899 187.392 21.4135 186.926 21.6614C186.459 21.9092 186.064 22.273 185.778 22.7177L183.966 21.6109C184.413 20.8944 185.035 20.3045 185.775 19.8979C186.514 19.4912 187.345 19.2814 188.189 19.2883L188.243 19.5605ZM185.652 27.3266C185.65 27.583 185.708 27.8361 185.822 28.066C185.935 28.2959 186.1 28.4963 186.304 28.6512C186.757 28.9937 187.313 29.1727 187.881 29.1593C188.722 29.1559 189.528 28.8238 190.128 28.2339C190.442 27.9573 190.693 27.6167 190.865 27.2349C191.037 26.8531 191.126 26.4389 191.125 26.0202C190.356 25.4851 189.431 25.2231 188.497 25.2762C187.774 25.2525 187.062 25.4624 186.467 25.875C186.248 26.0002 186.058 26.1697 185.908 26.3728C185.758 26.5759 185.652 26.8081 185.597 27.0544L185.652 27.3266ZM187.717 31.1552C186.589 31.1818 185.491 30.7873 184.637 30.0484C184.235 29.7117 183.915 29.2891 183.698 28.8117C183.482 28.3344 183.375 27.8144 183.386 27.2903C183.371 26.7531 183.483 26.22 183.713 25.7344C183.943 25.2488 184.284 24.8245 184.709 24.496C185.717 23.7792 186.936 23.4215 188.171 23.4798C189.117 23.4454 190.058 23.6253 190.925 24.006V23.8609C190.926 23.5494 190.858 23.2417 190.726 22.9595C190.595 22.6773 190.403 22.4275 190.164 22.2278C189.666 21.7833 189.019 21.5435 188.352 21.5565C187.856 21.5415 187.365 21.6557 186.927 21.8879C186.488 22.1201 186.117 22.4623 185.851 22.881C185.817 22.9143 185.771 22.9329 185.724 22.9329C185.677 22.9329 185.631 22.9143 185.597 22.881L183.785 21.7742C183.745 21.7398 183.714 21.6962 183.694 21.6472C183.676 21.6005 183.676 21.5487 183.694 21.502C184.178 20.7569 184.846 20.1498 185.634 19.7397C186.421 19.3295 187.302 19.1303 188.189 19.1613C189.512 19.1031 190.807 19.5507 191.813 20.4133C192.265 20.8545 192.619 21.3867 192.85 21.9747C193.081 22.5628 193.185 23.1933 193.154 23.8246V30.4113C193.154 30.4351 193.15 30.4587 193.141 30.4807C193.131 30.5027 193.118 30.5227 193.101 30.5396C193.084 30.5564 193.065 30.5698 193.043 30.5789C193.021 30.5881 192.997 30.5927 192.973 30.5927H191.052C191.027 30.5953 191.001 30.5925 190.977 30.5845C190.953 30.5765 190.931 30.5636 190.912 30.5465C190.893 30.5294 190.878 30.5085 190.868 30.4852C190.858 30.4619 190.853 30.4367 190.853 30.4113V29.3226C190.479 29.8127 189.996 30.2089 189.442 30.4798C188.888 30.7506 188.279 30.8887 187.663 30.8831L187.717 31.1552ZM188.171 23.8972C187.019 23.8342 185.881 24.1672 184.945 24.8407C184.564 25.1306 184.259 25.5076 184.054 25.9402C183.849 26.3727 183.75 26.8481 183.767 27.3266C183.758 27.7959 183.854 28.2612 184.049 28.6882C184.243 29.1153 184.531 29.4933 184.89 29.7944C185.674 30.4712 186.683 30.8275 187.717 30.7923C188.356 30.7949 188.984 30.6284 189.538 30.3098C190.092 29.9911 190.552 29.5316 190.871 28.9778C190.889 28.9505 190.913 28.928 190.941 28.9122C190.97 28.8964 191.001 28.8878 191.034 28.8871C191.084 28.8916 191.13 28.9147 191.163 28.9516C191.197 28.9886 191.215 29.0368 191.215 29.0867V30.375H192.756V23.752C192.786 23.1737 192.692 22.5955 192.48 22.0569C192.267 21.5183 191.941 21.032 191.523 20.6311C190.43 19.7827 189.054 19.3836 187.677 19.5151C186.3 19.6466 185.025 20.2987 184.111 21.3387L185.543 22.246C185.85 21.8141 186.259 21.4643 186.733 21.2271C187.207 20.9898 187.732 20.8724 188.261 20.8851C189.023 20.8807 189.758 21.1586 190.327 21.6653C190.609 21.8998 190.834 22.194 190.988 22.5267C191.141 22.8594 191.219 23.2222 191.215 23.5887V24.0423C191.22 24.0782 191.214 24.1146 191.198 24.1469C191.181 24.1793 191.156 24.206 191.125 24.2238C191.094 24.2413 191.06 24.2505 191.025 24.2505C190.99 24.2505 190.956 24.2413 190.925 24.2238C190.059 23.7752 189.091 23.5566 188.116 23.5887L188.171 23.8972ZM187.881 29.3407C187.27 29.3579 186.673 29.1587 186.195 28.7782C185.964 28.6093 185.777 28.3881 185.647 28.1326C185.518 27.8772 185.451 27.5948 185.452 27.3085C185.458 26.9854 185.545 26.6688 185.703 26.3871C185.861 26.1053 186.086 25.867 186.358 25.6935C186.986 25.2615 187.736 25.045 188.497 25.0766C189.471 25.0164 190.437 25.2917 191.233 25.8569C191.245 25.8794 191.25 25.9043 191.25 25.9294C191.25 25.9546 191.245 25.9795 191.233 26.002C191.235 26.4456 191.144 26.8847 190.966 27.291C190.789 27.6973 190.528 28.0618 190.2 28.3609C189.527 28.8899 188.68 29.1487 187.826 29.0867L187.881 29.3407ZM188.497 25.4577C187.812 25.43 187.138 25.6276 186.576 26.0202C186.353 26.1547 186.169 26.3434 186.039 26.5687C185.909 26.7939 185.838 27.0484 185.833 27.3085C185.83 27.5362 185.884 27.761 185.988 27.9634C186.092 28.1658 186.244 28.3396 186.431 28.4698C186.841 28.7992 187.355 28.9728 187.881 28.9597C188.275 28.9599 188.666 28.8813 189.03 28.7287C189.394 28.576 189.724 28.3523 190.001 28.0706C190.28 27.8199 190.505 27.5156 190.664 27.1758C190.823 26.836 190.912 26.4677 190.925 26.0927C190.218 25.5316 189.345 25.2192 188.442 25.2036L188.497 25.4577ZM203.793 27.6169C203.794 28.0787 203.684 28.534 203.472 28.9444C203.261 29.3549 202.954 29.7086 202.578 29.9758C201.716 30.5783 200.695 30.9119 199.643 30.9345C198.592 30.9571 197.558 30.6677 196.67 30.1028C195.853 29.5688 195.221 28.7959 194.858 27.8891L196.67 27.127C196.897 27.7241 197.294 28.2414 197.812 28.6149C198.291 28.9632 198.869 29.1477 199.461 29.1411C200.02 29.1628 200.573 29.0243 201.056 28.7419C201.241 28.6457 201.399 28.5034 201.513 28.3286C201.627 28.1538 201.694 27.9524 201.708 27.744C201.708 27.0726 201.183 26.5645 200.132 26.2379L198.319 25.7843C196.235 25.2581 195.202 24.2601 195.202 22.7722C195.193 22.3134 195.297 21.8595 195.506 21.4511C195.715 21.0426 196.021 20.6923 196.398 20.4315C197.226 19.8923 198.184 19.5889 199.171 19.5537C200.157 19.5185 201.135 19.753 201.998 20.2319C202.721 20.6365 203.284 21.2768 203.593 22.0464L201.781 22.7903C201.582 22.3395 201.237 21.9688 200.802 21.7379C200.329 21.483 199.799 21.3519 199.262 21.3569C198.764 21.3492 198.275 21.4812 197.848 21.7379C197.671 21.8314 197.522 21.9691 197.414 22.1376C197.306 22.3061 197.243 22.4997 197.232 22.6996C197.232 23.3165 197.812 23.752 198.954 24.0242L200.567 24.4234C202.687 24.6048 203.738 25.748 203.738 27.3629L203.793 27.6169ZM199.516 31.1371C198.463 31.1512 197.432 30.8408 196.562 30.248C195.735 29.6932 195.101 28.894 194.749 27.9617C194.731 27.9135 194.732 27.8601 194.753 27.8128C194.773 27.7654 194.811 27.7278 194.858 27.7077L196.67 26.9456C196.692 26.9328 196.717 26.9261 196.743 26.9261C196.768 26.9261 196.793 26.9328 196.815 26.9456C196.839 26.9526 196.86 26.9643 196.879 26.9799C196.897 26.9954 196.913 27.0146 196.924 27.0363C197.148 27.5198 197.499 27.9335 197.939 28.2339C198.387 28.5594 198.926 28.737 199.479 28.7419C200 28.7526 200.514 28.6209 200.965 28.3609C201.122 28.2812 201.256 28.1627 201.355 28.0166C201.453 27.8705 201.512 27.7017 201.527 27.5262C201.527 26.9456 201.056 26.5101 200.095 26.2198L198.283 25.7661C196.127 25.2036 195.021 24.1331 195.021 22.5544C195.014 22.0653 195.125 21.5817 195.346 21.1454C195.567 20.7091 195.891 20.3333 196.29 20.0504C197.147 19.4856 198.142 19.1667 199.168 19.1283C200.194 19.0899 201.21 19.3335 202.107 19.8327C202.848 20.2422 203.438 20.8779 203.793 21.6472C203.811 21.6954 203.809 21.7487 203.789 21.7961C203.769 21.8434 203.731 21.8811 203.684 21.9012L201.872 22.6452C201.828 22.6637 201.779 22.6646 201.735 22.6476C201.691 22.6307 201.656 22.5973 201.636 22.5544C201.443 22.1352 201.119 21.791 200.712 21.5746C200.272 21.3375 199.779 21.2187 199.28 21.2298C198.818 21.2159 198.363 21.3425 197.975 21.5927C197.823 21.6605 197.694 21.7696 197.601 21.9075C197.508 22.0455 197.455 22.2067 197.45 22.373C197.45 22.881 197.975 23.2621 199.008 23.498L200.639 23.9153C202.832 24.4597 203.956 25.6028 203.956 27.3085C203.955 27.7981 203.838 28.2806 203.614 28.7161C203.391 29.1515 203.066 29.5273 202.669 29.8125C201.755 30.53 200.622 30.9083 199.461 30.8831L199.516 31.1371ZM195.184 27.9798C195.52 28.7712 196.073 29.4508 196.779 29.9395C197.589 30.4768 198.544 30.7552 199.516 30.7379C200.574 30.7737 201.613 30.4544 202.47 29.8306C202.82 29.5772 203.106 29.2448 203.304 28.8602C203.503 28.4757 203.608 28.0497 203.611 27.6169C203.611 26.0927 202.615 25.1129 200.585 24.6048L198.954 24.1875C197.721 23.8972 197.141 23.4073 197.141 22.6815C197.152 22.4464 197.224 22.2182 197.351 22.0205C197.479 21.8228 197.657 21.6626 197.866 21.5565C198.318 21.2769 198.84 21.1322 199.371 21.1391C199.939 21.1376 200.498 21.2746 201.002 21.5383C201.412 21.7678 201.751 22.107 201.98 22.5181L203.43 21.9375C203.118 21.2852 202.612 20.7462 201.98 20.3952C201.143 19.9247 200.193 19.6944 199.234 19.7296C198.275 19.7648 197.344 20.0642 196.543 20.5948C196.191 20.8355 195.905 21.1611 195.712 21.5417C195.519 21.9223 195.425 22.3455 195.438 22.7722C195.438 24.1694 196.398 25.0948 198.392 25.6028L200.204 26.0565C201.346 26.4012 201.908 26.9819 201.908 27.744C201.895 27.9831 201.822 28.2151 201.695 28.4182C201.568 28.6213 201.392 28.7889 201.183 28.9052C200.668 29.2101 200.077 29.3612 199.479 29.3407C198.831 29.35 198.196 29.1531 197.667 28.7782C197.17 28.421 196.777 27.9391 196.525 27.381L195.184 27.9798ZM214.159 27.6169C214.156 28.08 214.043 28.5358 213.829 28.9461C213.614 29.3565 213.305 29.7095 212.927 29.9758C212.046 30.6386 210.965 30.9781 209.864 30.9375C208.832 30.9709 207.817 30.6666 206.973 30.0707C206.129 29.4748 205.503 28.6197 205.188 27.6351L207 26.873C207.239 27.4632 207.634 27.9775 208.142 28.3609C208.621 28.7091 209.199 28.8937 209.791 28.8871C210.35 28.9109 210.904 28.7722 211.386 28.4879C211.571 28.3917 211.729 28.2493 211.843 28.0745C211.957 27.8997 212.025 27.6984 212.039 27.4899C212.039 26.8186 211.513 26.3105 210.462 25.9839L208.65 25.5302C206.565 25.004 205.532 24.006 205.532 22.5181C205.523 22.0594 205.627 21.6055 205.836 21.197C206.045 20.7885 206.351 20.4382 206.729 20.1774C207.62 19.557 208.689 19.2448 209.773 19.2883C210.672 19.2797 211.556 19.5182 212.328 19.9778C213.052 20.3824 213.614 21.0228 213.923 21.7923L212.111 22.5363C211.912 22.0854 211.567 21.7147 211.132 21.4839C210.66 21.2267 210.13 21.0955 209.592 21.1028C209.1 21.0926 208.615 21.2249 208.196 21.4839C208.017 21.5765 207.865 21.7135 207.754 21.8819C207.643 22.0502 207.577 22.2443 207.562 22.4456C207.562 23.0625 208.142 23.498 209.284 23.7702L210.897 24.1694C213.035 24.6048 214.105 25.748 214.105 27.3629L214.159 27.6169ZM209.864 31.1371C208.817 31.1522 207.791 30.8416 206.928 30.248C206.098 29.6959 205.464 28.8958 205.116 27.9617C205.097 27.9135 205.099 27.8601 205.119 27.8128C205.139 27.7654 205.177 27.7278 205.224 27.7077L207.037 26.9456C207.059 26.9328 207.084 26.9261 207.109 26.9261C207.135 26.9261 207.16 26.9328 207.182 26.9456C207.205 26.9526 207.226 26.9643 207.245 26.9799C207.264 26.9954 207.279 27.0146 207.29 27.0363C207.5 27.6033 207.872 28.0957 208.36 28.4516C208.808 28.7771 209.346 28.9547 209.9 28.9597C210.421 28.9732 210.936 28.8412 211.386 28.5786C211.543 28.4989 211.677 28.3804 211.775 28.2343C211.874 28.0883 211.933 27.9195 211.948 27.744C211.948 27.1633 211.477 26.7278 210.516 26.4375L208.704 25.9839C206.547 25.4214 205.442 24.3508 205.442 22.7722C205.434 22.283 205.546 21.7994 205.767 21.3631C205.988 20.9268 206.312 20.551 206.71 20.2681C207.568 19.7033 208.563 19.3844 209.589 19.346C210.614 19.3076 211.631 19.5512 212.528 20.0504C213.268 20.4599 213.859 21.0957 214.213 21.8649C214.225 21.8885 214.231 21.9143 214.232 21.9405C214.233 21.9668 214.228 21.9929 214.218 22.0171C214.207 22.0413 214.192 22.0629 214.172 22.0805C214.153 22.098 214.13 22.1112 214.105 22.119L212.292 22.8629C212.246 22.8823 212.195 22.8837 212.148 22.8669C212.101 22.8502 212.062 22.8163 212.039 22.7722C211.847 22.3579 211.53 22.0149 211.132 21.7923C210.686 21.5575 210.187 21.4389 209.683 21.4476C209.221 21.4337 208.766 21.5602 208.378 21.8105C208.228 21.8816 208.101 21.9915 208.008 22.1287C207.916 22.266 207.862 22.4255 207.852 22.5907C207.852 23.0988 208.378 23.4798 209.411 23.7157L211.042 24.1331C213.253 24.6774 214.358 25.8206 214.358 27.5262C214.362 28.0167 214.247 28.5008 214.023 28.937C213.799 29.3731 213.472 29.7483 213.072 30.0302C212.115 30.6825 210.962 30.9838 209.809 30.8831L209.864 31.1371ZM205.532 27.9798C205.874 28.7724 206.434 29.4519 207.145 29.9395C207.997 30.4799 208.989 30.7577 209.998 30.7383C211.006 30.7189 211.987 30.4033 212.818 29.8306C213.168 29.5772 213.454 29.2448 213.653 28.8602C213.851 28.4757 213.956 28.0497 213.96 27.6169C213.96 26.0927 212.963 25.1129 210.933 24.6048L209.302 24.1875C208.07 23.8972 207.49 23.4073 207.49 22.6815C207.503 22.4473 207.577 22.2206 207.704 22.0235C207.831 21.8264 208.007 21.6655 208.215 21.5565C208.666 21.2769 209.188 21.1322 209.719 21.1391C210.287 21.1376 210.847 21.2746 211.35 21.5383C211.762 21.7724 212.105 22.1102 212.347 22.5181L213.778 21.9375C213.467 21.2852 212.96 20.7462 212.328 20.3952C211.588 19.958 210.742 19.7321 209.882 19.7419C208.837 19.6998 207.806 19.9991 206.946 20.5948C206.594 20.8355 206.308 21.1611 206.115 21.5417C205.921 21.9223 205.827 22.3455 205.84 22.7722C205.84 24.1694 206.801 25.0948 208.813 25.6028L210.625 26.0565C211.767 26.4012 212.328 26.9819 212.328 27.744C212.319 27.984 212.247 28.2174 212.12 28.4211C211.993 28.6247 211.815 28.7916 211.604 28.9052C211.089 29.2101 210.498 29.3612 209.9 29.3407C209.252 29.35 208.617 29.1531 208.088 28.7782C207.591 28.421 207.197 27.9391 206.946 27.381L205.532 27.9798ZM52.0854 36.254H3.15342C2.34112 36.254 1.5621 35.931 0.987714 35.3559C0.413332 34.7808 0.0906372 34.0008 0.0906372 33.1875V3.06653C0.0906372 2.25323 0.413332 1.47325 0.987714 0.898166C1.5621 0.32308 2.34112 0 3.15342 0H52.0854C52.8977 0 53.6767 0.32308 54.2511 0.898166C54.8255 1.47325 55.1482 2.25323 55.1482 3.06653V32.9335C55.1482 33.3408 55.0672 33.744 54.9099 34.1197C54.7526 34.4953 54.5221 34.8358 54.2319 35.1213C53.9418 35.4068 53.5977 35.6315 53.2198 35.7824C52.8419 35.9332 52.4378 36.0072 52.031 36L52.0854 36.254ZM3.15342 1.77823C2.75113 1.78294 2.36663 1.94503 2.08215 2.22986C1.79768 2.51469 1.63578 2.89964 1.63107 3.30242V32.9335C1.63104 33.3394 1.79087 33.729 2.07585 34.0177C2.36083 34.3064 2.74802 34.471 3.15342 34.4758H52.0854C52.4939 34.4758 52.8858 34.3133 53.1746 34.0241C53.4635 33.7348 53.6258 33.3425 53.6258 32.9335V3.06653C53.621 2.66063 53.4567 2.27298 53.1683 1.98765C52.8799 1.70231 52.4908 1.54231 52.0854 1.54234L3.15342 1.77823ZM48.2977 31.6452H6.97736C6.67596 31.6452 6.37752 31.5854 6.09928 31.4694C5.82105 31.3534 5.56852 31.1833 5.35624 30.9691C5.14396 30.7549 4.97614 30.5007 4.86246 30.2212C4.74877 29.9417 4.69146 29.6425 4.69385 29.3407V15.3327C4.69146 15.0309 4.74877 14.7316 4.86246 14.4522C4.97614 14.1727 5.14396 13.9185 5.35624 13.7043C5.56852 13.49 5.82105 13.32 6.09928 13.204C6.37752 13.0879 6.67596 13.0282 6.97736 13.0282H48.2977C48.9081 13.0282 49.4935 13.271 49.9251 13.7032C50.3568 14.1353 50.5993 14.7215 50.5993 15.3327V29.1048C50.5995 29.4152 50.5371 29.7225 50.4158 30.0082C50.2945 30.2938 50.1169 30.552 49.8935 30.7673C49.67 30.9825 49.4055 31.1503 49.1157 31.2606C48.8259 31.3709 48.5169 31.4215 48.2071 31.4093L48.2977 31.6452ZM6.97736 14.7883C6.87586 14.7883 6.77538 14.8086 6.68183 14.848C6.58828 14.8874 6.50354 14.9452 6.43262 15.0179C6.3617 15.0906 6.30602 15.1768 6.26885 15.2713C6.23169 15.3659 6.21379 15.467 6.2162 15.5685V29.3407C6.21379 29.4423 6.23169 29.5434 6.26885 29.6379C6.30602 29.7325 6.3617 29.8187 6.43262 29.8914C6.50354 29.9641 6.58828 30.0218 6.68183 30.0613C6.77538 30.1007 6.87586 30.121 6.97736 30.121H48.2977C48.3992 30.121 48.4996 30.1007 48.5932 30.0613C48.6867 30.0218 48.7715 29.9641 48.8424 29.8914C48.9133 29.8187 48.969 29.7325 49.0062 29.6379C49.0434 29.5434 49.0613 29.4423 49.0588 29.3407V15.3327C49.0613 15.2311 49.0434 15.13 49.0062 15.0354C48.969 14.9409 48.9133 14.8547 48.8424 14.782C48.7715 14.7093 48.6867 14.6515 48.5932 14.6121C48.4996 14.5727 48.3992 14.5524 48.2977 14.5524L6.97736 14.7883Z" fill="black"/>
</g>
<defs>
<clipPath id="clip0_19_694">
<rect width="214.286" height="36" fill="white"/>
</clipPath>
</defs>
</svg>
