<svg width="40" height="40" viewBox="0 0 40 40" fill="none" xmlns="http://www.w3.org/2000/svg">
<path d="M20 40C31.0457 40 40 31.0457 40 20C40 8.9543 31.0457 0 20 0C8.9543 0 0 8.9543 0 20C0 31.0457 8.9543 40 20 40Z" fill="white"/>
<g clip-path="url(#clip0_5_206)">
<path d="M20 8C26.63 8 32 13.37 32 20C31.9994 22.5143 31.2103 24.9651 29.7438 27.0074C28.2773 29.0498 26.2072 30.5808 23.825 31.385C23.225 31.505 23 31.13 23 30.815C23 30.41 23.015 29.12 23.015 27.515C23.015 26.39 22.64 25.67 22.205 25.295C24.875 24.995 27.68 23.975 27.68 19.37C27.68 18.05 27.215 16.985 26.45 16.145C26.57 15.845 26.99 14.615 26.33 12.965C26.33 12.965 25.325 12.635 23.03 14.195C22.07 13.925 21.05 13.79 20.03 13.79C19.01 13.79 17.99 13.925 17.03 14.195C14.735 12.65 13.73 12.965 13.73 12.965C13.07 14.615 13.49 15.845 13.61 16.145C12.845 16.985 12.38 18.065 12.38 19.37C12.38 23.96 15.17 24.995 17.84 25.295C17.495 25.595 17.18 26.12 17.075 26.9C16.385 27.215 14.66 27.725 13.58 25.91C13.355 25.55 12.68 24.665 11.735 24.68C10.73 24.695 11.33 25.25 11.75 25.475C12.26 25.76 12.845 26.825 12.98 27.17C13.22 27.845 14 29.135 17.015 28.58C17.015 29.585 17.03 30.53 17.03 30.815C17.03 31.13 16.805 31.49 16.205 31.385C13.815 30.5895 11.7361 29.0615 10.2633 27.018C8.79057 24.9744 7.99868 22.519 8 20C8 13.37 13.37 8 20 8Z" fill="black"/>
</g>
<defs>
<clipPath id="clip0_5_206">
<rect width="24" height="24" fill="white" transform="translate(8 8)"/>
</clipPath>
</defs>
</svg>
