<svg width="40" height="40" viewBox="0 0 40 40" fill="none" xmlns="http://www.w3.org/2000/svg">
<path d="M20 40C31.0457 40 40 31.0457 40 20C40 8.9543 31.0457 0 20 0C8.9543 0 0 8.9543 0 20C0 31.0457 8.9543 40 20 40Z" fill="white"/>
<path d="M19.6 20.9C20.0418 20.9 20.4 20.5418 20.4 20.1C20.4 19.6582 20.0418 19.3 19.6 19.3C19.1582 19.3 18.8 19.6582 18.8 20.1C18.8 20.5418 19.1582 20.9 19.6 20.9Z" fill="white"/>
<path fill-rule="evenodd" clip-rule="evenodd" d="M20 19.8V20L19.8 20.1V20.3L19.4 20.5L19 20.3V19.7L19.2 19.6L19.4 19.7V20.1L19.5 20V19.8L19.7 19.7L20 19.8ZM20 20V19.8H19.9H19.8V20H20ZM19.8 20.3V20.1H19.7L19.5 20.2V20.4C19.5 20.5 19.8 20.3 19.8 20.3ZM19.2 19.8V20.4L19.5 20.6V20.4L19.3 20.3V19.9L19.2 19.8ZM19.3 19.7L19.2 19.8L19.3 19.9L19.4 19.8L19.3 19.7ZM19.4 20.2L19.5 19.8H19.4H19.3L19.4 20.2ZM19.9 19.8L19.8 19.9L19.9 20L20 19.9C20 19.8 19.9 19.8 19.9 19.8ZM19.8 19.9L19.7 19.8V20H19.8H19.9C19.8 20.1 19.8 19.9 19.8 19.9ZM19.5 20.3L19.7 20.2L19.8 20.1L19.7 20L19.5 20.1L19.3 20.2C19.4 20.2 19.5 20.3 19.5 20.3Z" fill="#FF2D20"/>
<path d="M32 8H8V32H32V8Z" fill="#F7DF1E"/>
<path d="M24.1 26.8C24.6 27.6 25.2 28.2 26.3 28.2C27.2 28.2 27.8 27.7 27.8 27.1C27.8 26.3 27.2 26.1 26.2 25.6L25.6 25.4C24 24.6 23 23.7 23 21.9C23 20.2 24.3 18.9 26.3 18.9C27.7 18.9 28.8 19.4 29.5 20.7L27.7 21.8C27.3 21.1 26.9 20.8 26.2 20.8C25.5 20.8 25.1 21.2 25.1 21.8C25.1 22.5 25.5 22.8 26.5 23.2L27.1 23.4C29 24.2 30.1 25.1 30.1 26.9C30.1 28.9 28.5 30 26.4 30C24.3 30 23 29 22.3 27.7L24.1 26.8ZM16.2 26.9C16.6 27.5 16.9 28.1 17.7 28.1C18.4 28.1 18.9 27.8 18.9 26.7V19H21.2V26.7C21.2 29 19.8 30.1 17.8 30.1C16 30.1 14.9 29.2 14.4 28L16.2 26.9Z" fill="black"/>
</svg>
