<svg width="267" height="36" viewBox="0 0 267 36" fill="none" xmlns="http://www.w3.org/2000/svg">
<g clip-path="url(#clip0_20_704)">
<path d="M50.4508 15.3583C49.3847 14.7116 48.4904 13.8172 47.8436 12.7512C47.1972 11.631 46.8775 10.3522 46.9207 9.05965C46.9185 7.76933 47.2356 6.49851 47.8436 5.36044C48.4669 4.27818 49.3667 3.38106 50.4508 2.76099C51.5399 2.11433 52.7918 1.79402 54.0577 1.83812C55.0314 1.82831 55.9986 1.99777 56.9109 2.33802C57.7605 2.65173 58.5134 3.18195 59.0951 3.87615L57.9184 5.05282C57.4521 4.52171 56.8814 4.09236 56.2418 3.79155C55.5446 3.52224 54.805 3.37901 54.0577 3.36856C53.1212 3.37171 52.1997 3.60406 51.3736 4.04533C50.5418 4.53498 49.8483 5.22843 49.3587 6.0603C48.8381 6.95063 48.572 7.96689 48.5896 8.99812C48.572 10.0294 48.8381 11.0456 49.3587 11.936C49.8505 12.7662 50.5434 13.4591 51.3736 13.9509C52.1903 14.4151 53.1187 14.6466 54.0577 14.62C54.8607 14.6236 55.6578 14.4829 56.411 14.2047C57.0225 13.9355 57.5663 13.5336 58.003 13.028C58.3494 12.6248 58.6321 12.1709 58.8413 11.6822C59.0427 11.1449 59.1569 10.5789 59.1797 10.0056H54.0577V8.46747H60.7101C60.7799 8.7985 60.8083 9.13692 60.7947 9.47495C60.7775 10.3313 60.6376 11.1808 60.3794 11.9975C60.1348 12.7943 59.693 13.5164 59.0951 14.097C58.4295 14.7776 57.6318 15.315 56.751 15.676C55.8702 16.0371 54.9249 16.2142 53.9731 16.1966C52.7396 16.3008 51.5051 16.007 50.4508 15.3583ZM64.4708 15.6044C63.7192 15.168 63.106 14.5282 62.702 13.7586C62.2943 12.9542 62.0934 12.0608 62.1175 11.1592C62.0944 10.2553 62.2952 9.35962 62.702 8.55206C63.1094 7.78492 63.7217 7.14595 64.4708 6.70631C65.2382 6.2721 66.104 6.04175 66.9857 6.03723C67.8697 6.04249 68.7378 6.27275 69.5082 6.70631C70.2533 7.14863 70.8625 7.78711 71.2694 8.55206C71.6762 9.35962 71.877 10.2553 71.8539 11.1592C71.878 12.0608 71.6771 12.9542 71.2694 13.7586C70.8648 14.5253 70.255 15.1643 69.5082 15.6044C68.7399 16.0439 67.8708 16.277 66.9857 16.2812C66.1 16.3391 65.219 16.1128 64.4708 15.6352V15.6044ZM68.5777 14.3508C69.0734 14.0405 69.4791 13.6056 69.7543 13.0896C70.0711 12.4976 70.2176 11.8294 70.1773 11.1592C70.1774 10.4928 70.0331 9.8342 69.7543 9.22885C69.5078 8.68709 69.0958 8.23744 68.5777 7.94451C68.1055 7.6377 67.5478 7.48951 66.9857 7.52152C66.4286 7.53142 65.8823 7.67658 65.3937 7.94451C64.8982 8.25513 64.4926 8.68994 64.2171 9.20578C63.8987 9.79716 63.7522 10.4658 63.7941 11.1361C63.7952 11.8024 63.9395 12.4607 64.2171 13.0665C64.4698 13.5982 64.8808 14.0388 65.3937 14.3278C65.8684 14.628 66.4248 14.7731 66.9857 14.7431C67.5471 14.8224 68.1174 14.6819 68.5777 14.3508ZM75.3839 15.6044C74.6322 15.168 74.0191 14.5282 73.615 13.7586C73.2073 12.9542 73.0065 12.0608 73.0306 11.1592C73.0074 10.2553 73.2082 9.35962 73.615 8.55206C74.0224 7.78492 74.6348 7.14595 75.3839 6.70631C76.1513 6.2721 77.0171 6.04175 77.8987 6.03723C78.7828 6.04249 79.6509 6.27275 80.4213 6.70631C81.1663 7.14863 81.7755 7.78711 82.1824 8.55206C82.5933 9.35819 82.7943 10.2548 82.7669 11.1592C82.793 12.061 82.592 12.9548 82.1824 13.7586C81.7778 14.5253 81.1681 15.1643 80.4213 15.6044C79.6529 16.0439 78.7839 16.277 77.8987 16.2812C77.0141 16.3282 76.1364 16.1027 75.3839 15.6352V15.6044ZM79.583 14.3508C80.0748 14.0381 80.4774 13.6036 80.752 13.0896C81.0688 12.4976 81.2152 11.8294 81.175 11.1592C81.175 10.4928 81.0307 9.8342 80.752 9.22885C80.5061 8.68909 80.0973 8.23994 79.583 7.94451C79.1072 7.63954 78.5477 7.49159 77.9833 7.52152C77.4262 7.53142 76.8799 7.67658 76.3914 7.94451C75.8959 8.25513 75.4902 8.68994 75.2147 9.20578C74.8964 9.79716 74.7498 10.4658 74.7917 11.1361C74.7929 11.8024 74.9371 12.4607 75.2147 13.0665C75.4699 13.5966 75.8803 14.0364 76.3914 14.3278C76.8661 14.628 77.4225 14.7731 77.9833 14.7431C78.5467 14.8136 79.1162 14.6739 79.583 14.3508ZM85.874 19.6343C85.1727 19.1668 84.6349 18.4919 84.3358 17.704L85.874 17.0349C86.0275 17.5883 86.3775 18.0668 86.8584 18.3807C87.3831 18.7179 87.996 18.8918 88.6195 18.8806C89.0541 18.8965 89.4874 18.8228 89.8922 18.664C90.2971 18.5053 90.6649 18.2648 90.9729 17.9578C91.276 17.6159 91.5066 17.2161 91.6507 16.7825C91.7948 16.3489 91.8494 15.8905 91.8112 15.4352V14.4277H91.7266C91.3913 14.952 90.9316 15.3853 90.3884 15.689C89.8 16.0232 89.1347 16.1981 88.458 16.1966C87.6525 16.1933 86.865 15.9583 86.1893 15.5198C85.4666 15.0761 84.8851 14.4359 84.5127 13.674C84.1005 12.8709 83.8969 11.977 83.9205 11.0746C83.8866 10.1687 84.0907 9.26978 84.5127 8.46747C84.9113 7.72368 85.4871 7.0897 86.1893 6.62171C86.8672 6.18902 87.6538 5.95706 88.458 5.95263C89.1362 5.93028 89.8063 6.10383 90.3884 6.45252C90.9283 6.76072 91.387 7.19307 91.7266 7.71378H91.8112V6.29102H93.4108V15.5198C93.4543 16.4536 93.25 17.3822 92.8186 18.2115C92.4153 18.9069 91.8374 19.4848 91.1421 19.8881C90.3766 20.2345 89.5442 20.4078 88.7041 20.3957C87.6984 20.5092 86.687 20.2371 85.874 19.6343ZM90.3269 14.3508C90.8251 14.0529 91.2238 13.614 91.4728 13.0896C91.7532 12.485 91.8951 11.8255 91.8881 11.1592C91.8872 10.4937 91.7457 9.83584 91.4728 9.22885C91.2555 8.67821 90.8493 8.22292 90.3269 7.94451C89.8356 7.67653 89.2867 7.5314 88.7272 7.52152C88.1702 7.53233 87.6241 7.67744 87.1352 7.94451C86.6241 8.23582 86.2137 8.67571 85.9586 9.20578C85.673 9.80856 85.5309 10.4693 85.5433 11.1361C85.542 11.8019 85.6836 12.4602 85.9586 13.0665C86.2383 13.5793 86.6431 14.0131 87.1352 14.3278C87.6261 14.5888 88.1714 14.7311 88.7272 14.7431C89.2909 14.8212 89.8632 14.6809 90.3269 14.3508ZM97.1254 2.17651H95.4488V16.0197H97.1254V2.17651ZM100.902 15.6352C100.161 15.2135 99.5737 14.567 99.225 13.7894C98.8127 12.9863 98.6091 12.0924 98.6328 11.19C98.617 10.2859 98.8202 9.39141 99.225 8.58283C99.5998 7.82261 100.181 7.18304 100.902 6.73707C101.641 6.30425 102.482 6.07352 103.339 6.06798C104.188 6.03552 105.029 6.23778 105.77 6.65248C106.466 7.06739 107.023 7.68056 107.369 8.41364C107.75 9.23042 107.949 10.1198 107.954 11.0208V11.4361H100.317C100.293 12.0902 100.467 12.7362 100.817 13.2895C101.125 13.7348 101.527 14.1075 101.994 14.3816C102.473 14.6114 103 14.7247 103.532 14.7123C104.115 14.7204 104.687 14.558 105.179 14.2452C105.671 13.9323 106.061 13.4825 106.3 12.9511L107.731 13.6202C107.334 14.3675 106.755 15.0024 106.047 15.466C105.271 15.9552 104.363 16.1916 103.447 16.1428C103.011 16.2342 102.56 16.2364 102.122 16.1492C101.685 16.0619 101.27 15.8871 100.902 15.6352ZM106.193 10.1825C106.16 9.77156 106.045 9.37141 105.854 9.00582C105.679 8.55581 105.353 8.18066 104.931 7.94451C104.421 7.65557 103.842 7.50946 103.255 7.52152C102.577 7.51156 101.92 7.75262 101.409 8.1983C100.897 8.69955 100.546 9.34223 100.402 10.0441H106.193V10.1825ZM114.168 2.17651H118.39C119.669 2.16498 120.933 2.45202 122.082 3.01479C123.109 3.5764 123.955 4.41949 124.52 5.44504C125.109 6.55621 125.398 7.8023 125.358 9.05965C125.387 10.3134 125.099 11.5543 124.52 12.6666C123.952 13.6919 123.107 14.5367 122.082 15.1045C120.942 15.6934 119.672 15.982 118.39 15.9428H114.168V2.17651ZM118.39 14.4277C119.093 14.4562 119.795 14.3451 120.455 14.1009C121.115 13.8567 121.72 13.4842 122.235 13.005C123.16 11.8983 123.667 10.5019 123.667 9.05965C123.667 7.61741 123.16 6.22102 122.235 5.11435C121.721 4.63405 121.116 4.26038 120.456 4.01487C119.796 3.76937 119.094 3.65688 118.39 3.68388H115.844V14.4508L118.39 14.4277ZM129.157 15.6044C128.415 15.1848 127.827 14.5378 127.48 13.7586C127.068 12.9555 126.865 12.0616 126.888 11.1592C126.873 10.2551 127.076 9.36064 127.48 8.55206C127.853 7.79018 128.434 7.15 129.157 6.70631C129.897 6.27248 130.738 6.04167 131.595 6.03723C132.443 6.00476 133.284 6.20701 134.025 6.62171C134.722 7.03662 135.279 7.64981 135.625 8.38288C136.002 9.20089 136.201 10.0894 136.209 10.99V11.4053H128.526C128.502 12.0594 128.677 12.7055 129.026 13.2588C129.332 13.7057 129.734 14.0788 130.203 14.3508C130.682 14.5807 131.209 14.694 131.741 14.6815C132.324 14.6887 132.896 14.5259 133.388 14.2131C133.879 13.9004 134.269 13.4511 134.51 12.9204L135.933 13.5895C135.538 14.3363 134.962 14.9712 134.256 15.4352C133.48 15.9244 132.572 16.1609 131.656 16.112C131.222 16.2083 130.772 16.2157 130.335 16.1338C129.897 16.0519 129.481 15.8822 129.111 15.6352L129.157 15.6044ZM134.448 10.1517C134.415 9.74079 134.3 9.34064 134.11 8.97505C133.922 8.54669 133.597 8.19251 133.187 7.96758C132.676 7.67864 132.097 7.53253 131.51 7.54459C130.833 7.53463 130.175 7.77569 129.665 8.22137C129.15 8.72058 128.799 9.36415 128.657 10.0671H134.448V10.1517ZM136.502 6.40637H138.263L141.201 14.097H141.285L144.223 6.40637H145.984L142.039 16.0658H140.362L136.502 6.40637ZM149.007 15.6352C148.266 15.2135 147.679 14.567 147.33 13.7894C146.921 12.9856 146.72 12.0917 146.746 11.19C146.727 10.2865 146.928 9.39197 147.33 8.58283C147.705 7.82261 148.286 7.18304 149.007 6.73707C149.747 6.30425 150.587 6.07352 151.445 6.06798C152.296 6.03409 153.139 6.2364 153.883 6.65248C154.575 7.07001 155.129 7.68266 155.474 8.41364C155.86 9.22923 156.065 10.1186 156.074 11.0208V11.4361H148.384C148.358 12.0914 148.536 12.7385 148.891 13.2895C149.195 13.7359 149.594 14.109 150.06 14.3816C150.54 14.6114 151.067 14.7247 151.598 14.7123C152.181 14.7214 152.754 14.5594 153.247 14.2464C153.739 13.9334 154.128 13.4831 154.367 12.9511L155.797 13.6202C155.401 14.3675 154.821 15.0024 154.113 15.466C153.338 15.9552 152.429 16.1916 151.514 16.1428C151.084 16.2461 150.637 16.2542 150.204 16.1665C149.771 16.0788 149.362 15.8975 149.007 15.6352ZM154.213 10.1825C154.18 9.77263 154.068 9.37308 153.883 9.00582C153.701 8.55691 153.373 8.18273 152.952 7.94451C152.441 7.65557 151.862 7.50946 151.275 7.52152C150.598 7.51156 149.94 7.75262 149.43 8.1983C148.92 8.70151 148.57 9.34335 148.422 10.0441H154.213V10.1825ZM159.335 2.20727H157.659V16.0505H159.335V2.20727ZM163.181 15.6352C162.434 15.1951 161.824 14.556 161.419 13.7894C161.035 12.9755 160.835 12.0864 160.835 11.1861C160.835 10.2858 161.035 9.39675 161.419 8.58283C161.826 7.81788 162.435 7.17939 163.181 6.73707C163.951 6.3035 164.819 6.07324 165.703 6.06798C166.585 6.07251 167.451 6.30286 168.218 6.73707C168.967 7.17459 169.577 7.8143 169.979 8.58283C170.369 9.39539 170.571 10.285 170.571 11.1861C170.571 12.0872 170.369 12.9769 169.979 13.7894C169.577 14.558 168.967 15.1977 168.218 15.6352C167.453 16.0753 166.586 16.3086 165.703 16.312C164.818 16.3452 163.944 16.1093 163.196 15.6352H163.181ZM167.38 14.3816C167.874 14.0691 168.279 13.6347 168.556 13.1203C168.873 12.5284 169.02 11.8602 168.979 11.19C168.979 10.5235 168.835 9.86497 168.556 9.25962C168.317 8.71016 167.911 8.25003 167.395 7.94451C166.922 7.63868 166.365 7.49059 165.803 7.52152C165.244 7.5314 164.695 7.67653 164.203 7.94451C163.695 8.25956 163.279 8.70243 162.996 9.22885C162.684 9.82225 162.54 10.4899 162.581 11.1592C162.583 11.8246 162.725 12.4821 162.996 13.0896C163.253 13.6183 163.663 14.0576 164.173 14.3508C164.65 14.6512 165.209 14.7963 165.772 14.7661C166.346 14.8359 166.925 14.6877 167.395 14.3508L167.38 14.3816ZM172.179 6.40637H173.763V7.83684H173.847C174.187 7.31612 174.646 6.88377 175.186 6.57557C175.803 6.23683 176.497 6.06455 177.201 6.07568C178.018 6.0728 178.819 6.30505 179.508 6.74476C180.21 7.21276 180.786 7.84673 181.184 8.59052C181.598 9.39594 181.802 10.2926 181.777 11.1977C181.812 12.1012 181.607 12.998 181.184 13.7971C180.765 14.5258 180.193 15.1554 179.508 15.6429C178.821 16.0885 178.019 16.3238 177.201 16.3196C176.496 16.3317 175.801 16.1565 175.186 15.8121C174.644 15.506 174.185 15.0732 173.847 14.5508H173.763L173.847 15.8966V20.1804H172.179V6.40637ZM178.477 14.3893C178.951 14.053 179.351 13.6239 179.654 13.128C179.929 12.5217 180.07 11.8634 180.069 11.1977C180.072 10.5318 179.93 9.87325 179.654 9.2673C179.439 8.69567 179.02 8.22421 178.477 7.94451C178.005 7.63868 177.447 7.49059 176.885 7.52152C176.331 7.53386 175.788 7.67891 175.301 7.94451C174.79 8.23582 174.38 8.67571 174.124 9.20578C173.851 9.81277 173.71 10.4706 173.709 11.1361C173.712 11.8015 173.853 12.459 174.124 13.0665C174.352 13.6207 174.769 14.076 175.301 14.3508C175.794 14.6128 176.342 14.7551 176.901 14.7661C177.46 14.8332 178.024 14.6847 178.477 14.3508V14.3893ZM185.53 15.6352C184.787 15.2156 184.2 14.5685 183.853 13.7894C183.441 12.9863 183.237 12.0924 183.261 11.19C183.245 10.2859 183.448 9.39141 183.853 8.58283C184.225 7.82095 184.807 7.18076 185.53 6.73707C186.269 6.30324 187.11 6.07243 187.968 6.06798C188.816 6.03552 189.657 6.23778 190.398 6.65248C191.092 7.06991 191.649 7.68238 191.997 8.41364C192.374 9.23165 192.573 10.1202 192.582 11.0208V11.4361H184.945C184.918 12.0905 185.092 12.7376 185.445 13.2895C185.751 13.7365 186.153 14.1095 186.622 14.3816C187.101 14.6125 187.628 14.7259 188.16 14.7123C188.744 14.7209 189.318 14.5589 189.811 14.246C190.304 13.9332 190.695 13.4831 190.936 12.9511L192.359 13.6202C191.965 14.367 191.388 15.002 190.682 15.466C189.907 15.9552 188.999 16.1916 188.083 16.1428C187.645 16.2362 187.193 16.2394 186.754 16.1521C186.315 16.0648 185.898 15.8889 185.53 15.6352ZM190.821 10.1825C190.788 9.77156 190.673 9.37141 190.482 9.00582C190.294 8.57746 189.97 8.22328 189.56 7.99835C189.048 7.71046 188.47 7.56443 187.883 7.57536C187.205 7.56393 186.547 7.80516 186.037 8.25213C185.523 8.75266 185.169 9.39533 185.022 10.0979H190.821V10.1825ZM194.174 6.39869H195.774V7.94451H195.858C196.069 7.39084 196.452 6.91923 196.95 6.59864C197.453 6.28312 198.033 6.11033 198.627 6.09875C198.997 6.10706 199.364 6.16395 199.719 6.26795V8.0291C199.294 7.84788 198.835 7.76128 198.373 7.77531C197.922 7.80054 197.487 7.94665 197.112 8.1983C196.7 8.45933 196.378 8.8405 196.189 9.29037C195.954 9.72688 195.84 10.2179 195.858 10.7132V16.0966H194.174V6.40637V6.39869ZM208.194 15.3891C207.132 14.7397 206.241 13.8458 205.595 12.7819C204.948 11.6618 204.628 10.383 204.672 9.09042C204.669 7.8001 204.986 6.52927 205.595 5.3912C206.217 4.31105 207.114 3.41437 208.194 2.79176C209.286 2.14568 210.54 1.82547 211.809 1.86889C212.782 1.85908 213.749 2.02853 214.662 2.36878C215.511 2.68249 216.264 3.21271 216.846 3.90691L215.669 5.08358C215.201 4.55422 214.631 4.12517 213.993 3.82231C213.296 3.55299 212.556 3.40977 211.809 3.39932C210.855 3.38229 209.915 3.62351 209.088 4.09739C208.261 4.57128 207.577 5.26017 207.11 6.09105C206.61 6.9896 206.348 8.00076 206.348 9.02889C206.348 10.057 206.61 11.0682 207.11 11.9667C207.601 12.7969 208.294 13.4899 209.125 13.9817C209.941 14.4459 210.87 14.6773 211.809 14.6508C212.612 14.6543 213.409 14.5137 214.162 14.2355C214.773 13.9663 215.317 13.5643 215.754 13.0588C216.1 12.6555 216.383 12.2017 216.592 11.7129C216.794 11.1757 216.908 10.6097 216.931 10.0364H211.809V8.49824H218.438C218.508 8.82927 218.536 9.16768 218.523 9.50571C218.505 10.3621 218.365 11.2116 218.107 12.0282C217.86 12.8132 217.421 13.5242 216.831 14.097C216.165 14.7776 215.367 15.315 214.487 15.676C213.606 16.0371 212.66 16.2142 211.709 16.1966C210.479 16.287 209.251 15.9942 208.194 15.3583V15.3891ZM220.453 6.40637H222.053V7.94451H222.137C222.345 7.39139 222.725 6.91965 223.222 6.59864C223.727 6.28285 224.31 6.1101 224.906 6.09875C225.276 6.10768 225.643 6.16455 225.998 6.26795V8.0291C225.573 7.84788 225.114 7.76128 224.652 7.77531C224.201 7.80054 223.766 7.94665 223.391 8.1983C222.979 8.45933 222.657 8.8405 222.468 9.29037C222.23 9.72565 222.116 10.2176 222.137 10.7132V16.0966H220.453V6.40637ZM228.597 15.6352C227.848 15.1977 227.238 14.558 226.836 13.7894C226.447 12.9769 226.244 12.0872 226.244 11.1861C226.244 10.285 226.447 9.39539 226.836 8.58283C227.241 7.81623 227.851 7.17718 228.597 6.73707C229.364 6.29867 230.233 6.06809 231.116 6.06809C231.999 6.06809 232.868 6.29867 233.635 6.73707C234.381 7.17718 234.991 7.81623 235.396 8.58283C235.785 9.39539 235.988 10.285 235.988 11.1861C235.988 12.0872 235.785 12.9769 235.396 13.7894C234.994 14.558 234.384 15.1977 233.635 15.6352C232.869 16.0753 232.003 16.3086 231.12 16.312C230.23 16.3494 229.349 16.1132 228.597 15.6352ZM232.796 14.3816C233.289 14.067 233.693 13.6331 233.973 13.1203C234.284 12.5264 234.427 11.8592 234.388 11.19C234.391 10.5241 234.249 9.86557 233.973 9.25962C233.718 8.72955 233.308 8.28966 232.796 7.99835C232.323 7.6935 231.766 7.54549 231.204 7.57536C230.645 7.58524 230.096 7.73037 229.605 7.99835C229.111 8.31114 228.706 8.74542 228.428 9.25962C228.116 9.85302 227.972 10.5207 228.013 11.19C228.015 11.8553 228.157 12.5128 228.428 13.1203C228.685 13.649 229.095 14.0884 229.605 14.3816C230.082 14.682 230.641 14.827 231.204 14.7969C231.772 14.85 232.339 14.6911 232.796 14.3508V14.3816ZM238.503 15.3045C237.853 14.4974 237.524 13.4784 237.58 12.4435V6.40637H239.264V12.2051C239.264 13.9663 240.033 14.8892 241.61 14.8892C242.116 14.879 242.61 14.7329 243.04 14.4662C243.46 14.1575 243.805 13.7579 244.048 13.2972C244.281 12.819 244.395 12.291 244.379 11.7591V6.4679H245.978V16.0428H244.44V14.6123H244.355C244.075 15.1501 243.638 15.5899 243.102 15.8736C242.542 16.208 241.901 16.3835 241.248 16.3812C240.74 16.3871 240.236 16.2923 239.765 16.1022C239.294 15.9122 238.865 15.6306 238.503 15.2737V15.3045ZM248.078 6.40637H249.67V7.83684H249.754C250.097 7.31598 250.558 6.88374 251.1 6.57557C251.716 6.23515 252.411 6.06276 253.115 6.07568C253.917 6.0803 254.701 6.31231 255.376 6.74476C256.081 7.21227 256.659 7.84622 257.06 8.59052C257.467 9.39808 257.668 10.2937 257.645 11.1977C257.679 12.1001 257.477 12.9959 257.06 13.7971C256.638 14.5261 256.064 15.1557 255.376 15.6429C254.703 16.0812 253.918 16.3161 253.115 16.3196C252.41 16.3335 251.714 16.1583 251.1 15.8121C250.556 15.507 250.094 15.0742 249.754 14.5508H249.67L249.754 15.8966V20.1804H248.078V6.40637ZM254.369 14.3893C254.844 14.0552 255.245 13.6256 255.545 13.128C255.823 12.5223 255.967 11.864 255.968 11.1977C255.968 10.5312 255.824 9.87266 255.545 9.2673C255.321 8.71714 254.902 8.26844 254.369 8.00603C253.896 7.70021 253.339 7.55211 252.777 7.58304C252.22 7.59294 251.673 7.73811 251.185 8.00603C250.67 8.29296 250.259 8.7341 250.008 9.2673C249.729 9.87266 249.585 10.5312 249.585 11.1977C249.586 11.864 249.731 12.5223 250.008 13.128C250.237 13.6755 250.655 14.1229 251.185 14.3893C251.675 14.6514 252.221 14.7938 252.777 14.8046C253.059 14.8399 253.345 14.8179 253.619 14.7399C253.893 14.662 254.148 14.5296 254.369 14.3508V14.3893ZM259.998 15.5583C259.327 15.0586 258.797 14.3935 258.46 13.6279L259.891 12.9588C260.107 13.532 260.487 14.0293 260.983 14.3893C261.433 14.7074 261.969 14.8817 262.521 14.8892C263.063 14.8952 263.596 14.7486 264.059 14.4662C264.242 14.3705 264.393 14.2252 264.497 14.0469C264.6 13.8686 264.651 13.6647 264.643 13.4587C264.626 13.1097 264.478 12.78 264.228 12.5358C263.729 12.2398 263.19 12.0146 262.629 11.8667L261.29 11.5284C260.605 11.3812 259.967 11.0638 259.437 10.6055C259.182 10.3908 258.98 10.1202 258.847 9.81473C258.713 9.50929 258.652 9.17723 258.668 8.84431C258.646 8.28711 258.826 7.7407 259.175 7.30618C259.525 6.85853 259.987 6.51102 260.514 6.29871C261.101 6.05681 261.732 5.9415 262.367 5.96031C263.161 5.93615 263.945 6.1389 264.628 6.5448C265.272 6.90088 265.776 7.46479 266.059 8.14446L264.628 8.72896C264.559 8.50306 264.44 8.29544 264.28 8.12118C264.121 7.94692 263.924 7.81038 263.705 7.72148C263.271 7.48103 262.779 7.36401 262.282 7.38309C261.811 7.36401 261.343 7.48151 260.937 7.72148C260.765 7.80788 260.619 7.93938 260.516 8.10194C260.414 8.2645 260.357 8.452 260.352 8.64436C260.346 8.79794 260.382 8.95025 260.455 9.08548C260.528 9.22071 260.636 9.33394 260.767 9.41343C261.161 9.64219 261.586 9.81314 262.029 9.92101L263.451 10.2594C264.245 10.4046 264.976 10.7851 265.551 11.3515C265.955 11.7916 266.193 12.3588 266.224 12.9553C266.254 13.5519 266.076 14.1405 265.72 14.62C265.374 15.0913 264.913 15.467 264.382 15.7121C263.771 15.9815 263.112 16.1254 262.444 16.1351C262.016 16.2082 261.577 16.1913 261.156 16.0853C260.735 15.9794 260.341 15.7868 259.998 15.5198V15.5583Z" fill="#656C73"/>
<path d="M9.22881 9.31344L15.4352 5.69883C16.1351 5.28527 16.6429 4.61143 16.8476 3.82459C17.0522 3.03776 16.937 2.2019 16.5273 1.49972C16.1137 0.799754 15.4399 0.291965 14.653 0.0873298C13.8662 -0.117306 13.0303 -0.0021443 12.3281 0.407649L1.56122 6.62171L9.22881 9.31344Z" fill="#EA4335"/>
<path d="M13.8432 18.4576C14.3748 18.4589 14.8969 18.3167 15.3545 18.046C15.812 17.7753 16.1879 17.3861 16.4427 16.9194C16.8524 16.2173 16.9676 15.3814 16.763 14.5946C16.5583 13.8077 16.0505 13.1339 15.3506 12.7204L4.58365 6.50629C3.87824 6.1105 3.047 6.00314 2.26418 6.20673C1.48136 6.41033 0.80775 6.90905 0.384546 7.59837C-0.0131973 8.30334 -0.121635 9.13521 0.0820997 9.91858C0.285834 10.702 0.785816 11.3756 1.47662 11.7975L12.2436 18.0115C12.7235 18.3094 13.2784 18.4641 13.8432 18.4576Z" fill="#4285F4"/>
<path d="M24.5025 18.4576C25.0408 18.4426 25.5679 18.3003 26.0406 18.0423L36.8075 11.8282L29.3399 9.05957L23.0412 12.6665C22.3413 13.0801 21.8335 13.7539 21.6288 14.5407C21.4242 15.3276 21.5394 16.1634 21.9492 16.8656C22.1884 17.3392 22.5529 17.738 23.0031 18.0187C23.4533 18.2994 23.9719 18.4512 24.5025 18.4576Z" fill="#FBBC04"/>
<path d="M35.254 12.3358C35.7854 12.3363 36.3072 12.1938 36.7646 11.9232C37.2219 11.6525 37.598 11.2638 37.8534 10.7977C38.2531 10.0932 38.3626 9.26066 38.1588 8.47672C37.9549 7.69279 37.4536 7.01912 36.7613 6.5986L25.9944 0.384546C25.2894 -0.0131973 24.4576 -0.121635 23.6742 0.0820997C22.8908 0.285834 22.2172 0.785816 21.7953 1.47662C21.3956 2.18114 21.2861 3.01366 21.4899 3.7976C21.6938 4.58153 22.1951 5.25521 22.8874 5.67573L33.6543 11.8898C34.1476 12.1558 34.6942 12.3082 35.254 12.3358Z" fill="#0F9D58"/>
<path d="M55.8265 29.1015C55.8536 29.6409 55.7708 30.1801 55.583 30.6865C55.3953 31.1928 55.1066 31.6557 54.7344 32.047C54.3138 32.4785 53.8062 32.8155 53.2453 33.0356C52.6844 33.2557 52.083 33.3539 51.4812 33.3237C50.8779 33.3368 50.2783 33.2255 49.7199 32.9965C49.1615 32.7676 48.6563 32.4261 48.2358 31.9932C47.803 31.5678 47.4617 31.0584 47.2329 30.4964C47.0041 29.9343 46.8927 29.3314 46.9053 28.7247C46.8916 28.1167 47.0026 27.5123 47.2314 26.9488C47.4602 26.3853 47.802 25.8747 48.2358 25.4484C48.6594 25.0212 49.1657 24.6849 49.7237 24.4601C50.2818 24.2353 50.8798 24.1267 51.4812 24.141C52.1105 24.1369 52.7346 24.2544 53.3193 24.4871C53.8616 24.6962 54.3465 25.031 54.7344 25.4638L53.9192 26.2713C53.634 25.9349 53.2729 25.6713 52.8656 25.5023C52.4279 25.3163 51.9568 25.222 51.4812 25.2254C51.0281 25.2161 50.5778 25.3 50.1584 25.472C49.739 25.644 49.3595 25.9004 49.0433 26.2252C48.7188 26.5584 48.4645 26.9534 48.2954 27.3867C48.1263 27.82 48.0459 28.2828 48.0589 28.7477C48.0463 29.2126 48.1269 29.6753 48.296 30.1085C48.4651 30.5418 48.7192 30.9368 49.0433 31.2703C49.3609 31.5926 49.7409 31.8468 50.1601 32.0174C50.5793 32.188 51.0288 32.2713 51.4812 32.2624C52.2812 32.2816 53.0606 32.0081 53.6731 31.4933C53.9681 31.2416 54.2104 30.9339 54.386 30.5881C54.5616 30.2423 54.6669 29.8651 54.6959 29.4783H51.4812V28.4247H55.7496C55.7981 28.6471 55.8238 28.8739 55.8265 29.1015ZM59.6718 33.3467C59.2631 33.3591 58.8564 33.2845 58.4785 33.1281C58.1007 32.9717 57.7604 32.7369 57.48 32.4393C56.9002 31.8137 56.5906 30.9846 56.6186 30.1321C56.5917 29.2839 56.8918 28.4579 57.4569 27.8249C57.7259 27.5268 58.0563 27.2906 58.4255 27.1326C58.7946 26.9746 59.1935 26.8985 59.5949 26.9097C59.9929 26.8917 60.39 26.9601 60.7591 27.1101C61.1281 27.2601 61.4603 27.4882 61.7329 27.7787C62.2898 28.4611 62.5649 29.3304 62.502 30.209V30.332H57.7645C57.7598 30.5972 57.8099 30.8605 57.9118 31.1053C58.0137 31.3502 58.1652 31.5713 58.3567 31.7548C58.5335 31.9307 58.7436 32.0695 58.9747 32.1633C59.2057 32.257 59.4532 32.3038 59.7026 32.3008C60.0595 32.2996 60.4087 32.197 60.7096 32.0051C61.0105 31.8131 61.2507 31.5396 61.4022 31.2164L62.4097 31.7086C62.1556 32.2041 61.7663 32.6175 61.2868 32.9007C60.7933 33.1906 60.2287 33.3371 59.6564 33.3237L59.6718 33.3467ZM57.8645 29.4091H61.3176C61.2898 29.0102 61.1077 28.6378 60.81 28.3709C60.463 28.0717 60.0141 27.9175 59.5564 27.9402C59.1534 27.935 58.7623 28.0772 58.4567 28.3401C58.1403 28.6185 57.9264 28.9949 57.8491 29.4091H57.8645ZM63.248 30.1782C63.2204 29.3243 63.5329 28.4945 64.117 27.871C64.4065 27.5746 64.7539 27.3411 65.1376 27.1849C65.5214 27.0288 65.9331 26.9534 66.3473 26.9635C66.7593 26.9527 67.1689 27.0279 67.5503 27.1841C67.9316 27.3404 68.2762 27.5743 68.5622 27.871C68.8567 28.1767 69.0867 28.5385 69.2386 28.9348C69.3905 29.3312 69.4613 29.754 69.4466 30.1782C69.463 30.6026 69.3931 31.0259 69.2411 31.4225C69.0891 31.8191 68.8581 32.1807 68.5622 32.4854C68.2732 32.7692 67.9286 32.9902 67.5501 33.1344C67.1716 33.2787 66.7673 33.3431 66.3627 33.3237C65.9483 33.3356 65.5359 33.2611 65.1519 33.1049C64.7679 32.9486 64.4207 32.7141 64.1324 32.4162C63.5552 31.8008 63.2431 30.9832 63.2633 30.1397L63.248 30.1782ZM64.3785 30.1782C64.3628 30.7451 64.5667 31.2962 64.9476 31.7163C65.1228 31.9131 65.3388 32.0694 65.5805 32.1743C65.8222 32.2793 66.0839 32.3303 66.3473 32.3239C66.6107 32.3303 66.8724 32.2793 67.1141 32.1743C67.3558 32.0694 67.5718 31.9131 67.747 31.7163C68.1279 31.2962 68.3318 30.7451 68.3161 30.1782C68.331 29.6114 68.1272 29.0607 67.747 28.6401C67.5706 28.4442 67.3545 28.2881 67.1132 28.1821C66.8719 28.076 66.6109 28.0224 66.3473 28.0248C66.0837 28.0224 65.8227 28.076 65.5814 28.1821C65.3401 28.2881 65.124 28.4442 64.9476 28.6401C64.5821 29.0532 64.3846 29.5882 64.3939 30.1397L64.3785 30.1782ZM71.4924 33.1929H70.3618V27.1635H71.477V28.1479C71.6119 27.8008 71.8616 27.5104 72.1845 27.325C72.4963 27.1141 72.8619 26.9967 73.2381 26.9866C73.5218 26.9812 73.8039 27.0309 74.0687 27.1327L73.7303 28.2325C73.5145 28.1631 73.2876 28.1344 73.0613 28.1479C72.8492 28.1482 72.6397 28.1944 72.4472 28.2833C72.2547 28.3723 72.0838 28.5018 71.9461 28.6631C71.6393 28.9897 71.4711 29.4225 71.477 29.8706L71.4924 33.1929ZM77.1911 36.0462C76.8687 36.0469 76.5478 36.0029 76.2375 35.9154C75.9654 35.8317 75.7065 35.71 75.4684 35.554C75.2301 35.4071 75.0192 35.2197 74.8455 35.0002C74.6707 34.7888 74.5376 34.5461 74.4533 34.285L75.5223 33.8389C75.6399 34.1836 75.8633 34.4823 76.1606 34.6926C76.4715 34.9086 76.8435 35.0191 77.2219 35.0079C77.4872 35.0232 77.7527 34.9817 78.0007 34.8862C78.2487 34.7907 78.4735 34.6434 78.6601 34.4542C79.0272 34.0291 79.2123 33.4766 79.1753 32.9161V32.3393H79.1292C78.9098 32.6655 78.6106 32.9302 78.2601 33.1083C77.8903 33.2936 77.4817 33.3885 77.0681 33.3852C76.6832 33.3864 76.3026 33.3046 75.9522 33.1453C75.6018 32.9861 75.2899 32.7531 75.0378 32.4623C74.4789 31.8261 74.182 31.0016 74.2072 30.1551C74.1773 29.3079 74.4748 28.4817 75.0378 27.8479C75.2878 27.5536 75.5989 27.3171 75.9496 27.1551C76.3002 26.9931 76.6818 26.9093 77.0681 26.9097C77.4817 26.9064 77.8903 27.0012 78.2601 27.1865C78.6106 27.3647 78.9098 27.6294 79.1292 27.9556H79.1676V27.125H80.252V32.893C80.2802 33.3134 80.2217 33.7352 80.0801 34.132C79.9386 34.5289 79.717 34.8925 79.4291 35.2002C79.133 35.4788 78.7831 35.694 78.401 35.8329C78.0189 35.9717 77.6124 36.0312 77.2065 36.0077L77.1911 36.0462ZM77.1911 32.3547C77.4503 32.363 77.7081 32.3126 77.9451 32.2074C78.1821 32.1022 78.3923 31.9449 78.5601 31.7471C78.9333 31.3233 79.1313 30.7734 79.1138 30.209C79.1231 29.6458 78.9262 29.0988 78.5601 28.6708C78.3917 28.4733 78.1815 28.3157 77.9448 28.2093C77.708 28.1029 77.4506 28.0504 77.1911 28.0556C76.9331 28.0526 76.6775 28.1062 76.4424 28.2125C76.2072 28.3187 75.9982 28.4752 75.8299 28.6708C75.4638 29.0988 75.2668 29.6458 75.2762 30.209C75.2579 30.7735 75.4559 31.3237 75.8299 31.7471C76.0075 31.9405 76.226 32.0919 76.4694 32.1903C76.7129 32.2887 76.9752 32.3318 77.2373 32.3162L77.1911 32.3547ZM84.2204 33.3852C83.8117 33.3975 83.405 33.323 83.0271 33.1666C82.6493 33.0101 82.309 32.7753 82.0286 32.4777C81.4487 31.8521 81.1392 31.023 81.1672 30.1705C81.1363 29.3217 81.4369 28.4942 82.0055 27.8633C82.2745 27.5652 82.6049 27.3291 82.974 27.1711C83.3432 27.0131 83.7421 26.937 84.1435 26.9481C84.5415 26.9302 84.9386 26.9985 85.3077 27.1485C85.6767 27.2985 86.0089 27.5266 86.2815 27.8172C86.8384 28.4995 87.1135 29.3689 87.0506 30.2474V30.3705H82.3131C82.3087 30.6349 82.3583 30.8974 82.4588 31.1421C82.5593 31.3867 82.7086 31.6082 82.8976 31.7932C83.0758 31.9693 83.2873 32.1083 83.5196 32.202C83.752 32.2958 84.0006 32.3424 84.2512 32.3393C84.6081 32.3381 84.9573 32.2355 85.2582 32.0435C85.5591 31.8516 85.7993 31.5781 85.9508 31.2549L86.9583 31.7471C86.7018 32.2409 86.313 32.6536 85.8354 32.9391C85.3561 33.2048 84.8144 33.3375 84.2665 33.3237L84.2204 33.3852ZM82.4131 29.4476H85.8662C85.8384 29.0487 85.6563 28.6763 85.3586 28.4093C85.033 28.1108 84.6083 27.9436 84.1666 27.9402C83.7635 27.935 83.3724 28.0772 83.0668 28.3401C82.7504 28.6185 82.5365 28.9949 82.4592 29.4091L82.4131 29.4476ZM93.5261 25.4638V33.1929H92.3879V25.4254H89.9269V24.341H95.9871V25.4254L93.5261 25.4638ZM95.641 30.1782C95.6134 29.3243 95.926 28.4945 96.5101 27.871C96.7995 27.5746 97.147 27.3411 97.5307 27.1849C97.9144 27.0288 98.3262 26.9534 98.7404 26.9635C99.1523 26.9527 99.562 27.0279 99.9433 27.1841C100.325 27.3404 100.669 27.5743 100.955 27.871C101.25 28.1767 101.48 28.5385 101.632 28.9348C101.784 29.3312 101.854 29.754 101.84 30.1782C101.856 30.6026 101.786 31.0259 101.634 31.4225C101.482 31.8191 101.251 32.1807 100.955 32.4854C100.67 32.7653 100.33 32.9841 99.9574 33.1282C99.5844 33.2724 99.186 33.3389 98.7865 33.3237C98.3721 33.3356 97.9598 33.2611 97.5758 33.1049C97.1918 32.9486 96.8445 32.7141 96.5562 32.4162C95.979 31.8008 95.6669 30.9832 95.6872 30.1397L95.641 30.1782ZM96.7716 30.1782C96.7559 30.7451 96.9598 31.2962 97.3407 31.7163C97.5159 31.9131 97.7319 32.0694 97.9736 32.1743C98.2153 32.2793 98.4769 32.3303 98.7404 32.3239C99.0038 32.3303 99.2655 32.2793 99.5072 32.1743C99.7489 32.0694 99.9649 31.9131 100.14 31.7163C100.521 31.2962 100.725 30.7451 100.709 30.1782C100.724 29.6114 100.52 29.0607 100.14 28.6401C99.9636 28.4442 99.7476 28.2881 99.5063 28.1821C99.265 28.076 99.0039 28.0224 98.7404 28.0248C98.4768 28.0224 98.2157 28.076 97.9744 28.1821C97.7331 28.2881 97.5171 28.4442 97.3407 28.6401C97.0001 29.0633 96.8276 29.5973 96.8562 30.1397L96.7716 30.1782ZM111.292 27.1635L109.392 33.1545H108.238L106.739 28.5401L105.247 33.1545H104.101L102.155 27.125H103.339L104.678 31.6779L106.17 27.125H107.354L108.838 31.6779L110.169 27.125L111.292 27.1635ZM112.061 27.1635H113.16V27.9402H113.207C113.391 27.621 113.656 27.3558 113.976 27.1711C114.317 26.9809 114.7 26.8804 115.091 26.8789C115.403 26.86 115.717 26.9063 116.011 27.0148C116.305 27.1234 116.573 27.2919 116.798 27.5095C117.224 28.0116 117.436 28.6602 117.39 29.3168V33.1083H116.283V29.3861C116.301 29.1882 116.276 28.9886 116.207 28.8021C116.138 28.6155 116.029 28.4467 115.887 28.308C115.744 28.1693 115.573 28.0643 115.384 28.0007C115.196 27.937 114.996 27.9164 114.798 27.9402C114.579 27.9384 114.362 27.9875 114.164 28.0835C113.967 28.1796 113.794 28.3201 113.66 28.4939C113.358 28.8615 113.197 29.3253 113.207 29.8014V33.1391H112.076L112.061 27.1635Z" fill="#656C73"/>
</g>
<defs>
<clipPath id="clip0_20_704">
<rect width="266.205" height="36" fill="white"/>
</clipPath>
</defs>
</svg>
