<svg width="175" height="36" viewBox="0 0 175 36" fill="none" xmlns="http://www.w3.org/2000/svg">
<path fill-rule="evenodd" clip-rule="evenodd" d="M26.5136 27.4201L27.147 28.8354L29.4852 34.1247L31.8526 28.8354L32.486 27.4201L33.6624 24.5897H39.3633L38.7298 26.0049L37.5535 28.8354L36.6486 30.8698H40.6301C47.8694 30.8698 53.7512 25.1204 53.7512 18.0442C53.7512 10.9681 47.8694 5.21867 40.5396 5.21867H31.7621V0H40.5396C50.6745 0 58.9091 8.04914 58.9091 17.9558C58.9091 27.8624 50.6745 35.9116 40.5396 35.9116H30.2751L30.3142 36H18.3695C8.23461 36 0 27.9509 0 18.0442C0 8.13759 8.2346 0 18.5505 0H27.328V5.21867H18.5505C11.2208 5.21867 5.33892 10.9681 5.33892 18.0442C5.33892 25.1204 11.2208 30.8698 18.46 30.8698H22.4416L21.5367 28.8354L20.2698 26.0049L19.6364 24.5897H25.3372L26.5136 27.4201ZM20.7223 15.9214V13.887H16.4692V15.9214H14.388V20.1671H16.4692V22.2015H20.7223V20.1671H22.8036V15.9214H20.7223ZM44.7022 18.0442C44.7022 20.3402 42.798 22.2015 40.4491 22.2015C38.1003 22.2015 36.1961 20.3402 36.1961 18.0442C36.1961 15.7483 38.1003 13.887 40.4491 13.887C42.798 13.887 44.7022 15.7483 44.7022 18.0442Z" fill="#EC3734"/>
<path fill-rule="evenodd" clip-rule="evenodd" d="M76.4183 13.2544H73.4728L76.2546 10.6362H79.3637V15.8726C78.7092 17.3453 76.5819 18.1635 74.291 18.1635C69.5455 18.1635 67.7455 15.0544 67.7455 11.9453C67.7455 8.8362 69.8728 5.56348 74.291 5.56348C75.9274 5.56348 77.4001 5.89074 79.0365 7.52711L77.0728 9.49075C76.091 8.67256 75.1092 8.50893 74.291 8.50893H74.1274C72.1637 8.50893 71.0183 9.65438 71.0183 11.9453V12.4362C71.1819 13.9089 72.0001 15.3817 74.1274 15.3817C74.7819 15.3817 75.7637 15.218 76.4183 14.7271V13.2544ZM121.909 15.218C119.618 15.218 118.8 13.418 118.8 11.9453C118.8 10.3089 119.618 8.50893 121.909 8.50893C122.727 8.50893 123.546 8.67256 124.364 9.49075L126.491 7.52711C125.182 6.21802 123.546 5.56348 121.909 5.56348C117.491 5.56348 115.364 8.8362 115.364 11.9453C115.364 15.218 117.164 18.1635 121.909 18.1635C123.709 18.1635 125.346 17.6726 126.655 16.3635L124.691 14.0726C123.873 14.8907 122.727 15.218 121.909 15.218ZM132.49 10.2573L132.489 10.2573C131.549 10.1344 130.909 10.0508 130.909 9.32717C130.909 8.67263 131.727 8.50899 132.545 8.50899C133.527 8.50899 134.509 8.67263 135.327 9.32717L136.964 7.1999C135.655 6.21808 134.345 5.72717 132.545 5.72717C130.091 5.72717 127.473 6.87263 127.473 9.32717C127.473 12.2726 129.764 12.9272 132.382 13.2544C133.691 13.4181 134.345 13.7454 134.345 14.3999C134.345 15.0544 133.527 15.3817 132.382 15.3817C131.4 15.3817 130.091 15.2181 128.945 14.0726L127.145 16.1999C128.782 17.9999 130.255 18.3272 132.545 18.3272C135.164 18.3272 137.782 17.1817 137.782 14.3999C137.782 11.6181 135.327 10.6363 132.873 10.309C132.741 10.2901 132.613 10.2734 132.49 10.2574L132.49 10.2573ZM164.127 8.67269V5.89087H174.436V8.67269H171V17.8363H167.564V8.67269H164.127ZM84.9273 5.89087L79.5273 17.8363H83.1273L83.6182 16.6909L86.0727 10.6363L86.5636 9.32724L87.7091 11.9454L89.3455 15.8727L89.6727 16.6909L90 17.8363H93.7636L88.3636 5.89087H84.9273ZM110.291 17.8363H113.727V5.89087L110.291 9.32724V17.8363ZM153.655 10.9635H157.091H159.055H162.491V13.7454H157.091V17.8363H153.655V10.9635ZM104.4 5.89087L101.291 9.98178L98.182 5.89087H94.582V17.8363H98.0184V10.8L100.964 14.4H101.455L102.273 13.4181L103.582 11.9454L108 6.70905V5.89087H105.055H104.4ZM104.564 17.8363V15.0545L104.727 14.8908L108 11.7817V17.8363H104.564ZM145.309 5.72717C141.873 5.72717 139.091 8.50899 139.091 11.9454C139.091 15.3817 141.873 18.1635 145.309 18.1635C148.745 18.1635 151.527 15.3817 151.527 11.9454C151.527 8.50899 148.745 5.72717 145.309 5.72717ZM145.309 15.2181C143.509 15.2181 141.873 13.7454 141.873 11.7817C141.873 9.98172 143.345 8.34535 145.309 8.34535C147.109 8.34535 148.745 9.81808 148.745 11.7817C148.745 13.7454 147.109 15.2181 145.309 15.2181ZM157.091 8.83633H153.655V5.89087H162.818V8.83633H159.055H157.091Z" fill="#1A1A1A"/>
<path fill-rule="evenodd" clip-rule="evenodd" d="M67.7455 26.1818H68.7274V31.4181H67.7455V26.1818ZM76.9091 27.9818H76.0909L76.4182 26.3455H77.5636L76.9091 27.9818ZM70.2 27.1636H71.8364V31.5818H72.8182V27.1636H74.4546V26.1818H70.2V27.1636ZM80.3422 28.2339L80.3422 28.2339L80.3423 28.2339C80.4461 28.2562 80.5569 28.2801 80.6728 28.309C81.6546 28.4727 82.8001 28.7999 83.1273 30.2727C83.1273 31.4181 81.9819 31.909 80.8364 31.909C79.691 31.909 78.8728 31.5818 78.5455 30.5999L79.3637 30.109C79.5273 30.5999 80.1819 30.9272 80.8364 30.9272C81.3273 30.9272 81.9819 30.5999 81.9819 30.109C81.9819 29.6181 81.491 29.4545 80.8364 29.2909C79.691 29.1272 78.7092 28.7999 78.7092 27.6545C78.7092 26.6727 79.691 26.1818 80.6728 26.1818C81.491 26.1818 82.3092 26.3454 82.8001 27.1636L81.9819 27.6545C81.6546 27.3272 81.1637 26.9999 80.6728 26.9999C79.8546 26.9999 79.5273 27.3272 79.5273 27.6545C79.5273 28.0585 79.8597 28.13 80.3422 28.2339ZM88.5274 26.1818L86.2365 31.4181H87.382L87.8729 30.4363H90.6547L91.1456 31.4181H92.291L89.6729 26.1818H88.5274ZM88.0365 29.6181L89.0183 27.3272L90.0001 29.6181H88.0365ZM93.2728 26.1818H94.4183V30.5999H97.0365V31.5818H93.2728V26.1818ZM99.4909 26.1818H98.5091V31.5818H102.273V30.5999H99.4909V26.1818ZM105.382 31.4181L107.673 26.1818H108.818L111.273 31.4181H110.127L109.636 30.4363H106.855L106.364 31.4181H105.382ZM108.164 27.3272L107.182 29.6181H109.146L108.164 27.3272ZM116.182 28.8C116.673 28.6364 116.837 28.1455 116.837 27.8182C116.837 26.8364 116.018 26.3455 115.037 26.3455H112.582V31.5818H115.037C116.182 31.5818 117 31.2546 117 29.9455C117 29.6182 116.837 28.9636 116.182 28.8ZM113.564 27.1636H115.037C115.691 27.1636 115.855 27.6546 115.855 27.8182C115.855 28.1455 115.691 28.3091 115.037 28.3091H113.564V27.1636ZM115.037 30.6H113.564V29.2909H115.037C115.527 29.2909 116.018 29.4546 116.018 30.1091C116.018 30.4364 115.364 30.6 115.037 30.6ZM118.309 28.9636C118.309 27.3272 119.618 26.1818 121.091 26.1818C122.891 26.1818 123.873 27.4908 123.873 28.9636C123.709 30.4363 123.055 31.7454 121.091 31.7454C119.127 31.7454 118.309 30.2727 118.309 28.9636ZM119.291 28.9636C119.455 29.7818 119.782 30.7636 121.091 30.7636C122.4 30.7636 122.727 29.7818 122.727 28.9636C122.727 27.9818 122.236 26.9999 121.091 26.9999C119.946 26.9999 119.291 27.9818 119.291 28.9636ZM129.109 29.2909C129.109 30.2727 128.618 30.7636 127.8 30.7636C126.982 30.7636 126.491 30.2727 126.491 29.2909V26.3455H125.509V29.2909C125.509 30.9273 126.654 31.5818 127.8 31.5818C129.109 31.5818 130.091 30.7636 130.091 29.2909V26.3455H129.109V29.2909ZM133.2 27.1636H131.564V26.1818H135.818V27.1636H134.182V31.5818H133.2V27.1636ZM142.036 29.4545H143.345V30.4363C142.855 30.7636 142.527 30.9272 142.2 30.9272C140.891 30.9272 140.4 30.109 140.4 29.1272C140.4 27.9818 141.055 27.1636 142.2 27.1636C142.691 27.1636 143.182 27.3272 143.509 27.6545L144.164 26.9999C143.673 26.509 142.855 26.1818 142.2 26.1818C140.4 26.1818 139.418 27.4908 139.418 28.9636C139.418 30.2727 140.236 31.5818 142.2 31.5818C143.182 31.5818 143.836 31.2545 144.327 30.5999V28.4727H142.036V29.4545ZM145.473 31.4181L147.764 26.1818H148.746L151.527 31.4181H150.382L149.891 30.4363H147.109L146.618 31.4181H145.473ZM148.255 27.3272L147.273 29.6181H149.236L148.255 27.3272ZM155.291 28.4727L153.654 26.3455H152.509V31.5818H153.491V27.6546L155.127 29.9455H155.454L157.091 27.6546V31.5818H158.073V26.3455H156.927L155.291 28.4727ZM160.036 26.1818H161.018V31.4181H160.036V26.1818ZM163.964 26.1818H163.145V31.5818H164.127V27.9818L166.909 31.5818H167.727V26.1818H166.745V29.7818L163.964 26.1818ZM171.982 29.4545V28.4727H174.273V30.5999C173.782 31.2545 173.127 31.5818 172.146 31.5818C170.182 31.5818 169.364 30.2727 169.364 28.9636C169.364 27.4908 170.346 26.1818 172.146 26.1818C172.8 26.1818 173.618 26.509 174.109 26.9999L173.455 27.6545C173.127 27.3272 172.636 27.1636 172.146 27.1636C171 27.1636 170.346 27.9818 170.346 29.1272C170.346 30.109 170.836 30.9272 172.146 30.9272C172.473 30.9272 172.8 30.7636 173.291 30.4363V29.4545H171.982Z" fill="#EC3734"/>
</svg>
