<svg width="104" height="48" viewBox="0 0 104 48" fill="none" xmlns="http://www.w3.org/2000/svg">
<g clip-path="url(#clip0_20_711)">
<path d="M0.245361 36.728V0.554688H5.4267V13.3067H5.52936C6.10536 12.4614 6.78936 11.808 7.58669 11.352C8.38269 10.8934 9.28803 10.6654 10.3054 10.6654C11.5574 10.6654 12.5307 10.8867 13.2254 11.3254C13.92 11.7667 14.488 12.3254 14.928 13.0027C15.2667 13.5454 15.4867 14.2547 15.588 15.1374C15.6907 16.0174 15.7427 17.3894 15.7427 19.252V29.0574C15.7427 30.48 15.6734 31.6174 15.5387 32.4614C15.4027 33.3094 15.1827 34.0187 14.8774 34.596C13.9974 36.2227 12.488 37.032 10.3547 37.032C9.06803 37.032 8.0867 36.78 7.41069 36.272C6.73203 35.7667 6.07203 35.136 5.42803 34.392V36.7307H0.245361V36.728ZM10.5587 18.896C10.5587 18.084 10.38 17.372 10.0254 16.7614C9.66803 16.152 9.00003 15.8467 8.01869 15.8467C7.27469 15.8467 6.65603 16.108 6.16536 16.6334C5.67336 17.16 5.4267 17.8294 5.4267 18.6414V28.6494C5.4267 29.5974 5.66403 30.368 6.13736 30.9587C6.6107 31.552 7.23736 31.8494 8.01736 31.8494C8.89869 31.8494 9.54136 31.5294 9.94936 30.884C10.3547 30.2414 10.5587 29.3947 10.5587 28.344V18.896Z" fill="#009482"/>
<path d="M34.992 25.8054H24.7307V29.3107C24.7307 30.1214 24.96 30.7481 25.4173 31.1907C25.8733 31.6307 26.492 31.8494 27.272 31.8494C28.252 31.8494 28.9053 31.5627 29.2266 30.9854C29.548 30.4094 29.7426 29.8374 29.8106 29.2587H34.9906C34.9906 31.5294 34.296 33.3574 32.908 34.7454C32.2293 35.4561 31.4173 36.0134 30.4707 36.4227C29.5227 36.8294 28.4546 37.0307 27.2706 37.0307C25.644 37.0307 24.2627 36.6934 23.1293 36.0134C21.9947 35.3361 21.124 34.4387 20.5146 33.3214C20.1413 32.6454 19.888 31.8641 19.752 30.9841C19.6147 30.1054 19.5493 29.1414 19.5493 28.0907V19.6054C19.5493 18.5574 19.616 17.5907 19.752 16.7094C19.888 15.8294 20.1413 15.0507 20.5146 14.3734C21.124 13.2547 21.9947 12.3574 23.1293 11.6787C24.264 11.0014 25.644 10.6627 27.2706 10.6627C28.4546 10.6627 29.5306 10.8654 30.496 11.2721C31.4613 11.6787 32.2813 12.2374 32.96 12.9507C34.3133 14.4734 34.9906 16.3867 34.9906 18.6907L34.992 25.8054ZM24.7307 21.7414H29.812V18.7934C29.812 17.8134 29.5826 17.0761 29.1266 16.5841C28.668 16.0947 28.0493 15.8481 27.272 15.8481C26.492 15.8481 25.8733 16.0947 25.4173 16.5841C24.96 17.0761 24.7307 17.8134 24.7307 18.7934V21.7414Z" fill="#009482"/>
<path d="M38.5 0.55603H43.6813V29.4627C43.6813 30.444 43.8587 31.1134 44.2133 31.4694C44.5707 31.8267 45.2373 32.0547 46.22 32.156V37.032C45.0347 37.032 43.968 36.94 43.02 36.7534C42.072 36.5667 41.2587 36.204 40.5813 35.66C39.904 35.1534 39.3867 34.4347 39.0307 33.5027C38.6747 32.572 38.4987 31.344 38.4987 29.82L38.5 0.55603Z" fill="#009482"/>
<path d="M69.948 36.7279V10.9719H75.1307V13.4586H75.232C75.7733 12.6479 76.4253 11.9799 77.188 11.4533C77.9507 10.9279 78.9227 10.6653 80.1093 10.6653C80.7493 10.6653 81.396 10.7759 82.0387 10.9959C82.6813 11.2173 83.2573 11.5799 83.7653 12.0866C84.2733 12.5933 84.68 13.2466 84.984 14.0439C85.2893 14.8399 85.4427 15.8133 85.4427 16.9639V36.7266H80.26V18.8959C80.26 17.9479 80.0413 17.2013 79.6013 16.6599C79.1587 16.1186 78.5333 15.8479 77.7187 15.8479C76.7373 15.8479 76.06 16.1533 75.688 16.7626C75.316 17.3719 75.1307 18.2533 75.1307 19.4039V36.7279H69.948Z" fill="#009482"/>
<path d="M93.44 39.7253C93.4734 40.3346 93.7187 40.9106 94.1774 41.4519C94.636 41.9933 95.3054 42.2653 96.1854 42.2653C97.0294 42.2653 97.6414 42.0013 98.0134 41.4773C98.3854 40.9506 98.5734 40.2826 98.5734 39.4693V34.3879H98.472C97.8933 35.2346 97.2094 35.8879 96.412 36.3439C95.6174 36.8026 94.6934 37.0293 93.644 37.0293C91.4774 37.0293 89.9694 36.2199 89.1227 34.5933C88.8174 34.0159 88.5987 33.3053 88.464 32.4586C88.3254 31.6146 88.2614 30.4786 88.2614 29.0546V19.2493C88.2614 17.3879 88.3107 16.0146 88.412 15.1346C88.6147 13.4413 89.412 12.1706 90.8 11.3253C91.4427 10.8853 92.4094 10.6639 93.696 10.6639C94.3387 10.6639 94.8894 10.7319 95.3467 10.8679C95.8027 11.0026 96.2187 11.1893 96.592 11.4266C96.9654 11.6639 97.3027 11.9439 97.608 12.2639C97.9134 12.5853 98.236 12.9333 98.5747 13.3053V10.9719H103.757V39.8773C103.757 40.7599 103.612 41.6466 103.325 42.5453C103.036 43.4413 102.571 44.2439 101.927 44.9586C101.284 45.7053 100.471 46.3053 99.4893 46.7626C98.5053 47.2199 97.3387 47.4479 95.984 47.4479C95.2054 47.4479 94.3934 47.3213 93.544 47.0679C92.6973 46.8146 91.9187 46.3813 91.208 45.7706C90.4627 45.1959 89.828 44.4253 89.3014 43.4626C88.7774 42.4959 88.4294 41.2519 88.2627 39.7279H93.44V39.7253ZM93.44 28.8039C93.44 29.6146 93.6174 30.3279 93.9734 30.9373C94.3294 31.5466 95 31.8519 95.9814 31.8519C96.7267 31.8519 97.3427 31.5906 97.836 31.0639C98.3254 30.5373 98.5734 29.8693 98.5734 29.0573V19.0493C98.5734 18.1013 98.3334 17.3306 97.8627 16.7373C97.3867 16.1466 96.7614 15.8493 95.9827 15.8493C95.1027 15.8493 94.4587 16.1706 94.0507 16.8133C93.644 17.4586 93.4414 18.3053 93.4414 19.3546L93.44 28.8039Z" fill="#009482"/>
<path d="M54.4267 18.7933C54.4267 17.8133 54.6534 17.0759 55.112 16.5853C55.568 16.0946 56.188 15.8493 56.9667 15.8493C57.7454 15.8493 58.3654 16.0946 58.8214 16.5853C59.1574 16.9466 59.3707 17.4426 59.46 18.0706H64.6374C64.604 17.5986 64.5547 17.1453 64.4894 16.7119C64.3507 15.8306 64.0987 15.0519 63.724 14.3733C63.1147 13.2559 62.2454 12.3586 61.1094 11.6813C59.9707 11.0026 58.5934 10.6639 56.9694 10.6639C55.3454 10.6639 53.964 11.0026 52.8294 11.6813C51.6947 12.3586 50.824 13.2559 50.212 14.3733C49.84 15.0519 49.5854 15.8306 49.452 16.7119C49.3147 17.5919 49.248 18.5573 49.248 19.6066V27.0839H54.4307V18.7933H54.4267Z" fill="#009482"/>
<path d="M59.508 28.904C59.508 29.8867 59.2787 30.6213 58.82 31.1133C58.364 31.6053 57.744 31.8507 56.9653 31.8507C56.1867 31.8507 55.5693 31.6053 55.108 31.1133C54.7613 30.7413 54.548 30.2267 54.4653 29.5693H49.292C49.3267 30.0627 49.3773 30.5373 49.4467 30.9853C49.5813 31.8653 49.836 32.6467 50.2067 33.3227C50.8187 34.44 51.6907 35.3373 52.824 36.0147C53.956 36.6947 55.3387 37.032 56.964 37.032C58.5893 37.032 59.9693 36.6947 61.104 36.0147C62.24 35.3373 63.1093 34.44 63.7213 33.3227C64.0933 32.6467 64.3467 31.8653 64.4813 30.9853C64.6173 30.1067 64.684 29.1427 64.684 28.092V20.5533H59.504V28.904H59.508Z" fill="#009482"/>
</g>
<defs>
<clipPath id="clip0_20_711">
<rect width="104" height="48" fill="white"/>
</clipPath>
</defs>
</svg>
