<svg width="40" height="40" viewBox="0 0 40 40" fill="none" xmlns="http://www.w3.org/2000/svg">
<path d="M20 40C31.0457 40 40 31.0457 40 20C40 8.9543 31.0457 0 20 0C8.9543 0 0 8.9543 0 20C0 31.0457 8.9543 40 20 40Z" fill="white"/>
<path d="M12.359 8H28.2564C30.6667 8 32.6154 9.94872 32.6154 12.359V27.641C32.6154 30.0513 30.6667 32 28.2564 32H12.359C9.94872 32 8 30.0513 8 27.641V12.359C8 9.94872 9.94872 8 12.359 8Z" fill="#330000"/>
<path d="M19.9282 22.4H16.1128L15.3333 24.8102C15.3128 24.9025 15.2308 24.9641 15.1384 24.9538H13.2102C13.0974 24.9538 13.0666 24.8923 13.0974 24.7692L16.4 15.2615C16.4308 15.1589 16.4615 15.0461 16.5025 14.923C16.5436 14.7077 16.5641 14.482 16.5641 14.2564C16.5538 14.2051 16.5949 14.1538 16.6461 14.1436C16.6564 14.1436 16.6666 14.1436 16.6769 14.1436H19.3025C19.3846 14.1436 19.4256 14.1743 19.4359 14.2256L23.1795 24.7897C23.2102 24.9025 23.1795 24.9538 23.0769 24.9538H20.9333C20.8615 24.9641 20.7897 24.9128 20.7692 24.841L19.9282 22.4ZM16.7077 20.3179H19.3128C19.2513 20.1025 19.1692 19.8461 19.0769 19.5795C18.9846 19.3025 18.8923 19.0051 18.8 18.6974C18.6974 18.3795 18.6051 18.0718 18.5025 17.7538C18.4 17.4359 18.3077 17.1384 18.2256 16.841C18.1436 16.5538 18.0718 16.2871 18 16.041H17.9795C17.8872 16.482 17.7743 16.923 17.6308 17.3641C17.4769 17.8564 17.3231 18.3692 17.159 18.882C17.0154 19.4051 16.8615 19.8871 16.7077 20.3179Z" fill="#FF9A00"/>
<path d="M25.4153 15.8974C25.0769 15.9077 24.7487 15.7743 24.5025 15.5384C24.2666 15.282 24.1435 14.9436 24.1538 14.5949C24.1435 14.2461 24.2769 13.9179 24.523 13.682C24.7692 13.4461 25.0974 13.3231 25.4358 13.3231C25.8358 13.3231 26.1435 13.4461 26.3692 13.682C26.5948 13.9282 26.7179 14.2564 26.7076 14.5949C26.7179 14.9436 26.5948 15.282 26.3487 15.5384C26.1128 15.7846 25.764 15.9179 25.4153 15.8974ZM24.2666 24.8V16.9025C24.2666 16.8 24.3076 16.759 24.3999 16.759H26.4307C26.523 16.759 26.564 16.8102 26.564 16.9025V24.8C26.564 24.9128 26.523 24.9641 26.4307 24.9641H24.4205C24.3179 24.9641 24.2666 24.9025 24.2666 24.8Z" fill="#FF9A00"/>
</svg>
