<svg width="40" height="40" viewBox="0 0 40 40" fill="none" xmlns="http://www.w3.org/2000/svg">
<path d="M20 40C31.0457 40 40 31.0457 40 20C40 8.9543 31.0457 0 20 0C8.9543 0 0 8.9543 0 20C0 31.0457 8.9543 40 20 40Z" fill="white"/>
<path d="M20 7.09998L8 11.4L9.8 27.3L20 32.9L30.2 27.3L32 11.4L20 7.09998Z" fill="#DD0031"/>
<path d="M20 7.09998V9.99998V23V32.9L30.2 27.3L32 11.4L20 7.09998Z" fill="#C3002F"/>
<path d="M20 10L12.5 26.8H15.3L16.8 23H23.2L24.7 26.8H27.5L20 10ZM22.2 20.7H17.8L20 15.4L22.2 20.7Z" fill="white"/>
</svg>
