<svg width="40" height="40" viewBox="0 0 40 40" fill="none" xmlns="http://www.w3.org/2000/svg">
<path d="M20 40C31.0457 40 40 31.0457 40 20C40 8.9543 31.0457 0 20 0C8.9543 0 0 8.9543 0 20C0 31.0457 8.9543 40 20 40Z" fill="white"/>
<g clip-path="url(#clip0_5_194)">
<path d="M20.3334 20C20.3334 17.9748 21.9749 16.3333 24 16.3333C26.0252 16.3333 27.6667 17.9748 27.6667 20C27.6667 22.0251 26.0252 23.6666 24 23.6666C21.9749 23.6666 20.3334 22.0251 20.3334 20Z" fill="#1ABCFE"/>
<path d="M13 27.3334C13 25.3082 14.6415 23.6667 16.6667 23.6667H20.3333V27.3334C20.3333 29.3585 18.6918 31 16.6667 31C14.6415 31 13 29.3585 13 27.3334Z" fill="#0ACF83"/>
<path d="M20.3334 9V16.3333H24C26.0252 16.3333 27.6667 14.6918 27.6667 12.6667C27.6667 10.6415 26.0252 9 24 9H20.3334Z" fill="#FF7262"/>
<path d="M13 12.6667C13 14.6918 14.6415 16.3333 16.6667 16.3333H20.3333V9H16.6667C14.6415 9 13 10.6415 13 12.6667Z" fill="#F24E1E"/>
<path d="M13 20C13 22.0251 14.6415 23.6666 16.6667 23.6666H20.3333V16.3333H16.6667C14.6415 16.3333 13 17.9748 13 20Z" fill="#A259FF"/>
</g>
<defs>
<clipPath id="clip0_5_194">
<rect width="14.6667" height="22" fill="white" transform="translate(13 9)"/>
</clipPath>
</defs>
</svg>
