<svg width="40" height="40" viewBox="0 0 40 40" fill="none" xmlns="http://www.w3.org/2000/svg">
<path d="M20 40C31.0457 40 40 31.0457 40 20C40 8.9543 31.0457 0 20 0C8.9543 0 0 8.9543 0 20C0 31.0457 8.9543 40 20 40Z" fill="white"/>
<path fill-rule="evenodd" clip-rule="evenodd" d="M32 13.25C32 13.3 32 13.3 32 13.35V18.65C32 18.8 31.95 18.9 31.8 19L27.35 21.55V26.65C27.35 26.8 27.3 26.9 27.15 27L17.85 32.3C17.85 32.3 17.8 32.3 17.8 32.35C17.8 32.35 17.8 32.35 17.75 32.35C17.7 32.35 17.6 32.35 17.55 32.35C17.55 32.35 17.55 32.35 17.5 32.35C17.5 32.35 17.45 32.35 17.45 32.3L8.2 26.95C8.1 26.9 8 26.75 8 26.6V10.7C8 10.65 8 10.65 8 10.6C8 10.6 8 10.6 8 10.55V10.5C8 10.5 8 10.5 8.05 10.45C8.05 10.45 8.05 10.4 8.1 10.4C8.1 10.4 8.15 10.4 8.15 10.35C8.15 10.35 8.2 10.35 8.2 10.3L12.85 7.64999C12.95 7.59999 13.1 7.59999 13.25 7.64999L17.9 10.3C17.9 10.3 17.95 10.3 17.95 10.35C17.95 10.35 18 10.35 18 10.4C18 10.4 18 10.45 18.05 10.45C18.05 10.45 18.05 10.45 18.1 10.5C18.1 10.5 18.1 10.55 18.15 10.55C18.15 10.55 18.15 10.55 18.15 10.6C18.15 10.65 18.15 10.65 18.15 10.7V20.65L22 18.4V13.35C22 13.3 22 13.3 22 13.25C22 13.25 22 13.25 22 13.2C22 13.2 22 13.15 22.05 13.15C22.05 13.15 22.05 13.15 22.1 13.1C22.1 13.1 22.1 13.05 22.15 13.05C22.15 13.05 22.2 13.05 22.2 13C22.2 13 22.25 13 22.25 12.95L26.9 10.3C27 10.25 27.15 10.25 27.3 10.3L31.95 12.95C31.95 12.95 32 12.95 32 13C32 13 32.05 13 32.05 13.05C32.05 13.05 32.05 13.1 32.1 13.1C32.1 13.1 32.1 13.1 32.15 13.15C31.95 13.15 31.95 13.2 32 13.25C32 13.2 32 13.2 32 13.25ZM31.25 18.4V14L29.6 14.95L27.35 16.25V20.65L31.25 18.4ZM26.6 26.4V22L24.4 23.25L18.1 26.85V31.3C18.05 31.3 26.6 26.4 26.6 26.4ZM8.75 11.4V26.4L17.25 31.3V26.85L12.8 24.35C12.8 24.35 12.75 24.35 12.75 24.3C12.75 24.3 12.7 24.3 12.7 24.25C12.7 24.25 12.7 24.2 12.65 24.2C12.65 24.2 12.65 24.2 12.6 24.15V24.1V24.05V24V23.95V13.6L10.35 12.3L8.75 11.4ZM13.05 8.49999L9.2 10.75L13.05 13L16.9 10.75L13.05 8.49999ZM15.05 22.4L17.3 21.1V11.4L15.65 12.35L13.4 13.65V23.35C13.4 23.3 15.05 22.4 15.05 22.4ZM26.95 11.1L23.1 13.35L26.95 15.6L30.8 13.35C30.85 13.35 26.95 11.1 26.95 11.1ZM26.6 16.25L24.35 14.95L22.7 14V18.4L24.95 19.7L26.6 20.65V16.25ZM17.7 26.15L23.4 22.9L26.25 21.3L22.4 19.05L17.95 21.6L13.8 24L17.7 26.15Z" fill="#FF2D20"/>
</svg>
