<svg width="40" height="40" viewBox="0 0 40 40" fill="none" xmlns="http://www.w3.org/2000/svg">
<path d="M20 40C31.0457 40 40 31.0457 40 20C40 8.9543 31.0457 0 20 0C8.9543 0 0 8.9543 0 20C0 31.0457 8.9543 40 20 40Z" fill="white"/>
<path fill-rule="evenodd" clip-rule="evenodd" d="M18.506 13H20.554L19.9752 15.8344H21.8154C22.8245 15.8543 23.5763 16.0621 24.071 16.4577C24.5756 16.8534 24.724 17.6054 24.5162 18.7134L23.522 23.6551H21.4444L22.3941 18.936C22.493 18.4412 22.4633 18.0901 22.3051 17.8824C22.1469 17.6746 21.8056 17.5707 21.2811 17.5707L19.6339 17.5559L18.417 23.6551H16.3691L18.506 13ZM9.12212 15.8345H13.0992C14.2666 15.8443 15.1124 16.1808 15.6369 16.8436C16.1613 17.5064 16.3344 18.4116 16.1563 19.5593C16.0871 20.0838 15.9337 20.5981 15.6962 21.1027C15.4686 21.6072 15.1522 22.0622 14.7465 22.468C14.2517 22.9823 13.7225 23.3088 13.1586 23.4474C12.5947 23.586 12.0109 23.6552 11.4075 23.6552H9.62668L9.06276 26.4748H7L9.12212 15.8345ZM9.968 21.9782L10.8554 17.5411H11.1552C11.2641 17.5411 11.3778 17.536 11.4965 17.5262C12.2881 17.5164 12.9458 17.5906 13.4702 17.7488C14.0045 17.907 14.1826 18.5057 14.0045 19.5445C13.7869 20.7812 13.3613 21.5034 12.7282 21.7111C12.0952 21.9091 11.3036 22.0029 10.3538 21.9931H10.1461C10.0867 21.9931 10.0274 21.988 9.968 21.9782ZM30.6925 15.8345H26.7154L24.5933 26.4748H26.656L27.2199 23.6552H29.0007C29.6041 23.6552 30.1879 23.586 30.7519 23.4474C31.3158 23.3088 31.845 22.9823 32.3397 22.468C32.7455 22.0622 33.0619 21.6072 33.2895 21.1027C33.5269 20.5981 33.6804 20.0838 33.7495 19.5593C33.9276 18.4116 33.7546 17.5064 33.2301 16.8436C32.7057 16.1808 31.8598 15.8443 30.6925 15.8345ZM28.4487 17.5411L27.5613 21.9782C27.6206 21.988 27.68 21.9931 27.7393 21.9931H27.9471C28.8969 22.0029 29.6884 21.9091 30.3215 21.7111C30.9546 21.5034 31.3802 20.7812 31.5977 19.5445C31.7758 18.5057 31.5977 17.907 31.0635 17.7488C30.5391 17.5906 29.8813 17.5164 29.0898 17.5262C28.9711 17.536 28.8574 17.5411 28.7485 17.5411H28.4487Z" fill="#515B8F"/>
</svg>
