<svg width="40" height="40" viewBox="0 0 40 40" fill="none" xmlns="http://www.w3.org/2000/svg">
<path d="M20 40C31.0457 40 40 31.0457 40 20C40 8.9543 31.0457 0 20 0C8.9543 0 0 8.9543 0 20C0 31.0457 8.9543 40 20 40Z" fill="white"/>
<g clip-path="url(#clip0_5_200)">
<path d="M28.2564 8H12.359C9.95158 8 8 9.95158 8 12.359V27.641C8 30.0484 9.95158 32 12.359 32H28.2564C30.6638 32 32.6154 30.0484 32.6154 27.641V12.359C32.6154 9.95158 30.6638 8 28.2564 8Z" fill="#001E36"/>
<path d="M13.5427 24.8303V14.2786C13.5427 14.2017 13.5758 14.163 13.6418 14.163C13.8178 14.163 13.9784 14.1604 14.2207 14.1548C14.4627 14.1493 14.7242 14.1438 15.005 14.1383C15.2858 14.1328 15.583 14.1273 15.8968 14.1217C16.2105 14.1163 16.5215 14.1136 16.8297 14.1135C17.6662 14.1135 18.3707 14.218 18.9433 14.4272C19.4599 14.6019 19.9309 14.8896 20.3222 15.2694C20.6539 15.5985 20.9102 15.9957 21.0735 16.4335C21.228 16.8596 21.3063 17.3096 21.3047 17.7628C21.3047 18.6437 21.1011 19.3702 20.6938 19.9425C20.2837 20.5171 19.7074 20.9522 19.0425 21.1892C18.3489 21.448 17.5782 21.5358 16.7307 21.5358C16.4884 21.5358 16.3177 21.533 16.2187 21.5275C16.1197 21.5221 15.9711 21.5193 15.7729 21.5192V24.8138C15.7758 24.834 15.774 24.8546 15.7675 24.8739C15.7611 24.8933 15.7502 24.9108 15.7358 24.9253C15.7213 24.9397 15.7038 24.9505 15.6844 24.957C15.6651 24.9634 15.6445 24.9653 15.6243 24.9624H13.6583C13.5812 24.9624 13.5427 24.9185 13.5427 24.8303ZM15.7729 16.1445V19.5861C15.9159 19.5972 16.0479 19.6027 16.1692 19.6026H16.7141C17.1151 19.6013 17.5134 19.5377 17.8948 19.4141C18.222 19.3169 18.5143 19.1278 18.737 18.8692C18.9516 18.6161 19.059 18.2638 19.059 17.8124C19.0677 17.4929 18.9846 17.1777 18.8195 16.9041C18.646 16.6396 18.3952 16.4349 18.1012 16.3179C17.7174 16.1687 17.3074 16.0985 16.8958 16.1115C16.6315 16.1115 16.3976 16.1143 16.194 16.1198C15.9902 16.1255 15.8498 16.1337 15.7729 16.1445Z" fill="#31A8FF"/>
<path d="M27.6894 18.9603C27.379 18.8009 27.0485 18.6842 26.7068 18.6135C26.3304 18.5272 25.9455 18.4829 25.5592 18.4814C25.3503 18.4758 25.1416 18.5008 24.94 18.5557C24.8116 18.5843 24.6975 18.6575 24.6179 18.7622C24.5641 18.8459 24.5355 18.9433 24.5354 19.0429C24.5384 19.1395 24.5732 19.2323 24.6345 19.3071C24.7309 19.4199 24.8488 19.5125 24.9812 19.5795C25.2167 19.7063 25.4593 19.8194 25.7078 19.9181C26.262 20.1036 26.7915 20.3559 27.2848 20.6694C27.6208 20.8814 27.8988 21.1737 28.0939 21.5198C28.258 21.8475 28.3401 22.2102 28.3333 22.5766C28.3432 23.0605 28.205 23.5359 27.9371 23.9389C27.6502 24.3481 27.2519 24.6662 26.7894 24.8554C26.2883 25.0755 25.6691 25.1856 24.9317 25.1857C24.4633 25.1904 23.9956 25.1461 23.5364 25.0535C23.1745 24.9872 22.8223 24.8763 22.4878 24.7233C22.4517 24.7046 22.4216 24.6761 22.4012 24.641C22.3807 24.6059 22.3707 24.5657 22.3722 24.5251V22.7417C22.3702 22.7243 22.373 22.7066 22.3803 22.6906C22.3876 22.6746 22.3991 22.6609 22.4135 22.6509C22.4277 22.6429 22.444 22.6394 22.4602 22.6409C22.4764 22.6424 22.4918 22.6487 22.5043 22.6592C22.8994 22.8921 23.3284 23.0621 23.7758 23.1628C24.1702 23.2617 24.5747 23.3143 24.9812 23.3197C25.3664 23.3197 25.6499 23.2702 25.8316 23.1711C25.9137 23.1335 25.9831 23.073 26.0315 22.9968C26.0798 22.9206 26.1051 22.832 26.1041 22.7417C26.1041 22.5988 26.0216 22.4612 25.8564 22.3289C25.6913 22.1968 25.3556 22.0372 24.8491 21.85C24.3306 21.6696 23.839 21.4196 23.3877 21.107C23.065 20.8825 22.7992 20.5856 22.6116 20.24C22.4493 19.9147 22.3672 19.5551 22.3722 19.1915C22.3713 18.7546 22.4913 18.3259 22.719 17.953C22.9786 17.5424 23.3513 17.2155 23.7923 17.0118C24.2766 16.7698 24.8821 16.6487 25.6087 16.6485C26.0343 16.6451 26.4595 16.6755 26.8802 16.7393C27.1849 16.778 27.4828 16.8586 27.7654 16.9788C27.7878 16.9852 27.8085 16.9968 27.8256 17.0125C27.8428 17.0283 27.8561 17.0478 27.8645 17.0696C27.8756 17.1099 27.8812 17.1516 27.881 17.1934V18.8612C27.8822 18.8806 27.8782 18.9 27.8695 18.9174C27.8608 18.9348 27.8477 18.9496 27.8315 18.9603C27.8094 18.9713 27.7851 18.977 27.7604 18.977C27.7358 18.977 27.7114 18.9713 27.6894 18.9603Z" fill="#31A8FF"/>
</g>
<defs>
<clipPath id="clip0_5_200">
<rect width="24.6154" height="24" fill="white" transform="translate(8 8)"/>
</clipPath>
</defs>
</svg>
