<svg width="40" height="40" viewBox="0 0 40 40" fill="none" xmlns="http://www.w3.org/2000/svg">
<path d="M20 40C31.0457 40 40 31.0457 40 20C40 8.9543 31.0457 0 20 0C8.9543 0 0 8.9543 0 20C0 31.0457 8.9543 40 20 40Z" fill="white"/>
<path fill-rule="evenodd" clip-rule="evenodd" d="M20 12.8C16.8 12.8 14.8 14.4 14 17.6C15.2 16 16.6 15.4 18.2 15.8C19.1 16 19.8 16.7 20.5 17.4C21.7 18.6 23 20 26 20C29.2 20 31.2 18.4 32 15.2C30.8 16.8 29.4 17.4 27.8 17C26.9 16.8 26.2 16.1 25.5 15.4C24.3 14.2 23 12.8 20 12.8ZM14 20C10.8 20 8.8 21.6 8 24.8C9.2 23.2 10.6 22.6 12.2 23C13.1 23.2 13.8 23.9 14.5 24.6C15.7 25.8 17 27.2 20 27.2C23.2 27.2 25.2 25.6 26 22.4C24.8 24 23.4 24.6 21.8 24.2C20.9 24 20.2 23.3 19.5 22.6C18.3 21.4 17 20 14 20Z" fill="#06B6D4"/>
</svg>
