<svg width="40" height="40" viewBox="0 0 40 40" fill="none" xmlns="http://www.w3.org/2000/svg">
<path d="M20 40C31.0457 40 40 31.0457 40 20C40 8.9543 31.0457 0 20 0C8.9543 0 0 8.9543 0 20C0 31.0457 8.9543 40 20 40Z" fill="white"/>
<path fill-rule="evenodd" clip-rule="evenodd" d="M8.9 8H31.1C31.597 8 32 8.40294 32 8.9V31.1C32 31.5971 31.597 32 31.1 32H8.9C8.40294 32 8 31.5971 8 31.1V8.9C8 8.40294 8.40294 8 8.9 8ZM21.3414 20.7684V18.8H12.8V20.7684H15.8494V29.5326H18.277V20.7684H21.3414ZM22.3093 29.3012C22.7007 29.5008 23.1637 29.6505 23.6982 29.7503C24.2328 29.8501 24.7961 29.9 25.3884 29.9C25.9656 29.9 26.5138 29.8451 27.0333 29.7353C27.5528 29.6256 28.0082 29.4446 28.3997 29.1926C28.7911 28.9406 29.1011 28.6114 29.3294 28.2047C29.5578 27.798 29.672 27.2953 29.672 26.6965C29.672 26.2623 29.6067 25.8819 29.4762 25.5551C29.3458 25.2282 29.1576 24.9375 28.9116 24.683C28.6657 24.4286 28.3708 24.2003 28.027 23.9982C27.6832 23.7962 27.2956 23.6053 26.8639 23.4256C26.5477 23.2958 26.2641 23.1698 26.0132 23.0476C25.7622 22.9254 25.5489 22.8006 25.3733 22.6734C25.1976 22.5461 25.0622 22.4114 24.9668 22.2692C24.8714 22.127 24.8238 21.9661 24.8238 21.7864C24.8238 21.6218 24.8664 21.4733 24.9517 21.3411C25.0371 21.2089 25.1575 21.0953 25.3131 21.0005C25.4687 20.9057 25.6594 20.8322 25.8852 20.7797C26.1111 20.7274 26.362 20.7012 26.638 20.7012C26.8388 20.7012 27.0509 20.7161 27.2742 20.746C27.4975 20.776 27.7222 20.8222 27.948 20.8845C28.1739 20.9469 28.3935 21.0254 28.6067 21.1203C28.82 21.2151 29.017 21.3249 29.1977 21.4496V19.2117C28.8313 19.0719 28.4311 18.9684 27.9969 18.9011C27.5628 18.8337 27.0646 18.8 26.5025 18.8C25.9304 18.8 25.3884 18.8611 24.8764 18.9834C24.3645 19.1056 23.9141 19.2965 23.5251 19.556C23.1361 19.8155 22.8287 20.146 22.6029 20.5477C22.377 20.9494 22.2641 21.4297 22.2641 21.9885C22.2641 22.7021 22.4711 23.3109 22.8852 23.8148C23.2993 24.3188 23.9279 24.7454 24.771 25.0947C25.1023 25.2295 25.4109 25.3617 25.6971 25.4915C25.9831 25.6212 26.2303 25.7559 26.4385 25.8956C26.6468 26.0354 26.8112 26.1875 26.9317 26.3522C27.0521 26.5168 27.1124 26.7039 27.1124 26.9136C27.1124 27.0683 27.0747 27.2117 26.9994 27.3439C26.9241 27.4762 26.8099 27.5909 26.6568 27.6882C26.5038 27.7855 26.3131 27.8617 26.0848 27.9165C25.8564 27.9714 25.5891 27.9988 25.283 27.9988C24.761 27.9988 24.244 27.9078 23.7321 27.7257C23.2202 27.5436 22.7459 27.2703 22.3093 26.9061V29.3012Z" fill="#4476C0"/>
</svg>
