<svg width="40" height="40" viewBox="0 0 40 40" fill="none" xmlns="http://www.w3.org/2000/svg">
<path d="M20 40C31.0457 40 40 31.0457 40 20C40 8.9543 31.0457 0 20 0C8.9543 0 0 8.9543 0 20C0 31.0457 8.9543 40 20 40Z" fill="white"/>
<g clip-path="url(#clip0_5_199)">
<path d="M28.4827 8H12.4061C9.9727 8 8 9.9727 8 12.4061V27.5939C8 30.0273 9.9727 32 12.4061 32H28.4827C30.9162 32 32.8889 30.0273 32.8889 27.5939V12.4061C32.8889 9.9727 30.9162 8 28.4827 8Z" fill="#470137"/>
<path d="M21.1114 14.4086L18.0528 19.3315L21.3254 24.6611C21.3462 24.6987 21.3521 24.7428 21.3419 24.7845C21.3306 24.823 21.2924 24.8478 21.2266 24.8585H18.8916C18.8245 24.8653 18.7568 24.8535 18.6959 24.8245C18.6351 24.7955 18.5833 24.7504 18.5463 24.694C18.3267 24.2665 18.1075 23.8731 17.8883 23.4509C17.6691 23.029 17.4362 22.5987 17.1895 22.16C16.943 21.7217 16.6991 21.2777 16.4578 20.8281H16.4413C16.2219 21.2666 15.9944 21.7052 15.759 22.1436C15.5229 22.5822 15.2899 23.018 15.06 23.4509C14.8297 23.8842 14.594 24.283 14.3527 24.7105C14.3349 24.7563 14.303 24.7953 14.2617 24.8218C14.2204 24.8484 14.1717 24.8613 14.1227 24.8585H11.8696C11.8604 24.8594 11.8511 24.8585 11.8422 24.8556C11.8334 24.8527 11.8252 24.8481 11.8183 24.8419C11.8113 24.8357 11.8057 24.8281 11.8019 24.8196C11.798 24.8112 11.796 24.802 11.7959 24.7927C11.7895 24.7526 11.7982 24.7116 11.8204 24.6776L14.9942 19.496L11.9026 14.3921C11.8696 14.3484 11.8644 14.3127 11.8861 14.2852C11.8983 14.2712 11.9135 14.2601 11.9307 14.253C11.9478 14.2459 11.9663 14.2428 11.9849 14.2441H14.3037C14.3542 14.2413 14.4048 14.2497 14.4517 14.2688C14.4909 14.2911 14.5246 14.322 14.5502 14.3592C14.7477 14.7978 14.9669 15.1111 15.208 15.5493C15.4491 15.988 15.693 16.4211 15.9397 16.8485C16.1865 17.276 16.414 17.709 16.6222 18.1476H16.6387C16.8579 17.6982 17.0798 17.2597 17.3045 16.8321C17.5293 16.4045 17.7596 15.9742 17.9953 15.5412C18.231 15.1082 18.4582 14.8032 18.6778 14.3757C18.6903 14.335 18.7129 14.2983 18.7436 14.2688C18.7841 14.2481 18.8298 14.2396 18.8751 14.244H21.0294C21.0501 14.239 21.072 14.2411 21.0914 14.2501C21.1108 14.2591 21.1266 14.2744 21.1361 14.2935C21.1457 14.3126 21.1484 14.3345 21.1439 14.3554C21.1394 14.3763 21.128 14.395 21.1114 14.4086Z" fill="#FF61F6"/>
<path d="M25.6644 25.0543C24.9075 25.0659 24.1575 24.9085 23.4691 24.5938C22.8276 24.297 22.2914 23.8125 21.9313 23.2043C21.5357 22.4943 21.3424 21.6895 21.3723 20.8774C21.3661 20.1227 21.5589 19.3796 21.9313 18.7232C22.315 18.0546 22.8792 17.5075 23.5593 17.1445C24.3553 16.73 25.2441 16.5262 26.1412 16.5525C26.1961 16.5525 26.2673 16.5553 26.3549 16.5608C26.4426 16.5664 26.6293 16.5747 26.75 16.5854V13.676C26.7405 13.6069 26.7586 13.5369 26.8005 13.4811C26.8423 13.4254 26.9044 13.3883 26.9734 13.3781H28.565C28.6438 13.3783 28.7192 13.4097 28.7749 13.4654C28.8306 13.5211 28.862 13.5966 28.8623 13.6753V23.048C28.8623 23.2346 28.8704 23.4374 28.8868 23.6566C28.9033 23.876 28.917 24.0733 28.928 24.2485C28.93 24.2826 28.9217 24.3166 28.9041 24.3459C28.8866 24.3753 28.8606 24.3986 28.8295 24.413C28.3204 24.6353 27.7884 24.8008 27.243 24.9063C26.7222 25.0024 26.1939 25.052 25.6644 25.0543ZM26.7117 23.0152V18.5258C26.6078 18.5021 26.5024 18.4856 26.3962 18.4765C26.2841 18.4652 26.1716 18.4597 26.0589 18.4601C25.6599 18.4561 25.2656 18.5462 24.9079 18.7232C24.5247 18.9059 24.2053 19.1996 23.9912 19.5661C23.7771 19.9327 23.6782 20.3552 23.7074 20.7787C23.6994 21.1372 23.758 21.494 23.8801 21.8311C23.9794 22.1028 24.1366 22.3497 24.3406 22.5548C24.5359 22.7434 24.7723 22.8841 25.0312 22.9658C25.3046 23.0544 25.5905 23.0988 25.8779 23.0974C26.0316 23.0974 26.1742 23.0919 26.3057 23.0809C26.4428 23.0716 26.5787 23.0495 26.7117 23.0152Z" fill="#FF61F6"/>
</g>
<defs>
<clipPath id="clip0_5_199">
<rect width="24.8889" height="24" fill="white" transform="translate(8 8)"/>
</clipPath>
</defs>
</svg>
