<svg width="156" height="40" viewBox="0 0 156 40" fill="none" xmlns="http://www.w3.org/2000/svg">
<path d="M23.48 20.5199L34.32 32.1733C30.7333 36.3999 25.5733 38.7999 20 38.7999C14.4267 38.7999 9.26666 36.3999 5.67999 32.1733L16.52 20.5199H23.48ZM24 19.3199H16L4.19999 31.9999L4.09332 32.1199C7.74666 36.9066 13.5067 39.9999 20 39.9999C26.4933 39.9999 32.2533 36.9066 35.9067 32.1199L35.8 32.0133L24 19.3199Z" fill="#222222"/>
<path d="M20 1.2C30.36 1.2 38.8 9.64 38.8 20C38.8 30.36 30.36 38.8 20 38.8C9.64 38.8 1.2 30.36 1.2 20C1.2 9.64 9.64 1.2 20 1.2ZM20 0C8.96 0 0 8.96 0 20C0 31.04 8.96 40 20 40C31.04 40 40 31.04 40 20C40 8.96 31.04 0 20 0Z" fill="#E52A21"/>
<path d="M34.8 9.2V38.8H5.2V9.2H34.8ZM36 8H4V40H36V8Z" fill="#222222"/>
<path d="M54.3067 30.8133C53.4 30.8133 52.5867 30.6533 51.8533 30.32C51.1333 29.9866 50.56 29.5066 50.1333 28.8666C49.72 28.2266 49.5067 27.44 49.5067 26.4933C49.5067 25.68 49.6533 25.0133 49.96 24.48C50.2533 23.9466 50.6667 23.5333 51.1867 23.2133C51.7067 22.8933 52.2933 22.6533 52.9333 22.4933C53.5867 22.3333 54.2533 22.2133 54.96 22.1333C55.8 22.04 56.48 21.9733 57 21.8933C57.52 21.8266 57.9067 21.7066 58.1467 21.56C58.3867 21.4133 58.5067 21.1733 58.5067 20.84V20.8C58.5067 20.0933 58.2933 19.5466 57.88 19.16C57.4667 18.7733 56.8666 18.5866 56.08 18.5866C55.2533 18.5866 54.6 18.7733 54.12 19.1333C53.64 19.4933 53.3067 19.92 53.1467 20.4133L49.9866 19.96C50.24 19.0933 50.64 18.36 51.2133 17.7733C51.7867 17.1866 52.48 16.7466 53.32 16.4533C54.1466 16.16 55.0667 16.0133 56.0666 16.0133C56.76 16.0133 57.44 16.0933 58.1333 16.2533C58.8133 16.4133 59.44 16.68 60.0133 17.0533C60.5866 17.4266 61.04 17.92 61.3867 18.56C61.7333 19.2 61.9067 19.9866 61.9067 20.9466V30.5466H58.6533V28.5733H58.5467C58.3467 28.9733 58.0533 29.3466 57.68 29.6933C57.3066 30.04 56.84 30.32 56.2933 30.52C55.7067 30.72 55.0533 30.8133 54.3067 30.8133ZM55.1867 28.3333C55.8667 28.3333 56.4533 28.2 56.9466 27.9333C57.44 27.6666 57.8266 27.3066 58.1066 26.8533C58.3733 26.4 58.5067 25.92 58.5067 25.3866V23.6933C58.4 23.7866 58.2267 23.8666 57.9733 23.9333C57.72 24.0133 57.44 24.0666 57.1333 24.1333C56.8266 24.1866 56.5067 24.24 56.2133 24.28C55.9067 24.32 55.64 24.36 55.4133 24.3866C54.9066 24.4533 54.4533 24.5733 54.0533 24.72C53.6533 24.88 53.3466 25.0933 53.1066 25.3733C52.88 25.6533 52.76 26.0133 52.76 26.44C52.76 27.0666 52.9866 27.5333 53.44 27.8533C53.8933 28.1733 54.48 28.3333 55.1867 28.3333Z" fill="#020203"/>
<path d="M64.6267 30.5333V16.1866H67.9067V18.5733H68.0533C68.32 17.7466 68.76 17.1066 69.4 16.6533C70.04 16.1999 70.7733 15.9733 71.5867 15.9733C71.7733 15.9733 71.9867 15.9866 72.2133 15.9999C72.4533 16.0133 72.64 16.0399 72.8 16.0666V19.1733C72.6533 19.1199 72.4267 19.0799 72.12 19.0399C71.8133 18.9999 71.52 18.9733 71.2267 18.9733C70.6133 18.9733 70.0533 19.1066 69.5733 19.3733C69.08 19.6399 68.7067 19.9999 68.4267 20.4666C68.1467 20.9333 68.0133 21.4666 68.0133 22.0799V30.5066H64.6267V30.5333Z" fill="#020203"/>
<path d="M82.3467 16.1867V18.8H74.1067V16.1867H82.3467ZM76.1333 12.7467H79.52V26.2134C79.52 26.6667 79.5867 27.0134 79.7333 27.2534C79.8667 27.4934 80.0533 27.6534 80.2933 27.7467C80.52 27.84 80.7733 27.88 81.0533 27.88C81.2667 27.88 81.4667 27.8667 81.64 27.8267C81.8133 27.8 81.9467 27.7734 82.04 27.7467L82.6133 30.3867C82.4267 30.4534 82.1733 30.52 81.84 30.5867C81.5067 30.6667 81.1067 30.7067 80.6267 30.72C79.7733 30.7467 79.0133 30.6134 78.3333 30.3334C77.6533 30.0534 77.12 29.6134 76.72 29.0134C76.32 28.4134 76.1333 27.6667 76.1333 26.7734V12.7467Z" fill="#020203"/>
<path d="M90.72 30.8133C89.28 30.8133 88.04 30.52 87 29.9067C85.96 29.3067 85.16 28.4533 84.6 27.3467C84.04 26.24 83.76 24.9333 83.76 23.44C83.76 21.96 84.04 20.6667 84.6 19.5467C85.16 18.4267 85.9467 17.56 86.9733 16.9333C87.9867 16.3067 89.1867 16 90.5467 16C91.4267 16 92.2667 16.1467 93.0533 16.4267C93.84 16.7067 94.5333 17.1467 95.1467 17.7333C95.76 18.32 96.2267 19.08 96.5733 19.9867C96.92 20.8933 97.0933 21.9867 97.0933 23.24V24.28H85.3333V22H93.8533C93.8533 21.3467 93.7067 20.7733 93.44 20.2667C93.16 19.76 92.7867 19.36 92.2933 19.0667C91.8 18.7733 91.24 18.6267 90.5867 18.6267C89.8933 18.6267 89.2933 18.8 88.76 19.12C88.24 19.4533 87.8267 19.8933 87.5467 20.4267C87.2533 20.96 87.1067 21.56 87.1067 22.2V24.1867C87.1067 25.0267 87.2533 25.7333 87.56 26.3333C87.8667 26.9333 88.2933 27.3867 88.84 27.6933C89.3867 28.0133 90.0267 28.16 90.76 28.16C91.2533 28.16 91.6933 28.0933 92.0933 27.9467C92.4933 27.8133 92.84 27.6 93.1333 27.32C93.4267 27.04 93.6533 26.7067 93.8 26.3067L96.96 26.6667C96.76 27.5067 96.3867 28.2267 95.8267 28.8533C95.2667 29.4667 94.56 29.9467 93.6933 30.2933C92.8133 30.64 91.8267 30.8133 90.72 30.8133Z" fill="#020203"/>
<path d="M105.64 30.8133C104.2 30.8133 102.96 30.52 101.92 29.9067C100.88 29.3067 100.08 28.4533 99.52 27.3467C98.96 26.24 98.68 24.9333 98.68 23.44C98.68 21.96 98.96 20.6667 99.52 19.5467C100.08 18.4267 100.867 17.56 101.893 16.9333C102.907 16.3067 104.107 16 105.467 16C106.347 16 107.187 16.1467 107.973 16.4267C108.76 16.7067 109.453 17.1467 110.067 17.7333C110.68 18.32 111.147 19.08 111.493 19.9867C111.84 20.8933 112.013 21.9867 112.013 23.24V24.28H100.253V22H108.773C108.773 21.3467 108.627 20.7733 108.36 20.2667C108.08 19.76 107.707 19.36 107.213 19.0667C106.72 18.7733 106.16 18.6267 105.507 18.6267C104.813 18.6267 104.213 18.8 103.68 19.12C103.16 19.4533 102.747 19.8933 102.467 20.4267C102.173 20.96 102.027 21.56 102.027 22.2V24.1867C102.027 25.0267 102.173 25.7333 102.48 26.3333C102.787 26.9333 103.213 27.3867 103.76 27.6933C104.307 28.0133 104.947 28.16 105.68 28.16C106.173 28.16 106.613 28.0933 107.013 27.9467C107.413 27.8133 107.76 27.6 108.053 27.32C108.347 27.04 108.573 26.7067 108.72 26.3067L111.88 26.6667C111.68 27.5067 111.307 28.2267 110.747 28.8533C110.187 29.4667 109.48 29.9467 108.613 30.2933C107.747 30.64 106.76 30.8133 105.64 30.8133Z" fill="#020203"/>
<path d="M125.56 19.9733L122.48 20.3066C122.387 20 122.24 19.7066 122.027 19.4266C121.813 19.1466 121.52 18.9333 121.16 18.76C120.8 18.5866 120.36 18.5066 119.84 18.5066C119.133 18.5066 118.547 18.6533 118.067 18.96C117.587 19.2666 117.36 19.6666 117.36 20.1466C117.36 20.56 117.507 20.9066 117.827 21.16C118.147 21.4266 118.667 21.64 119.387 21.8L121.84 22.32C123.2 22.6133 124.2 23.08 124.867 23.7066C125.533 24.3466 125.867 25.1733 125.867 26.2C125.867 27.1066 125.6 27.8933 125.08 28.5866C124.56 29.28 123.84 29.8133 122.92 30.2C122 30.5866 120.947 30.7733 119.747 30.7733C117.987 30.7733 116.573 30.4 115.507 29.6666C114.44 28.9333 113.8 27.8933 113.587 26.5733L116.88 26.2533C117.027 26.9066 117.347 27.3866 117.827 27.72C118.307 28.0533 118.947 28.2133 119.72 28.2133C120.52 28.2133 121.173 28.0533 121.653 27.72C122.147 27.3866 122.387 26.9866 122.387 26.4933C122.387 26.08 122.227 25.7466 121.92 25.48C121.6 25.2133 121.12 25.0133 120.453 24.8666L118 24.3466C116.627 24.0666 115.6 23.5733 114.947 22.8933C114.293 22.2133 113.96 21.3466 113.973 20.3066C113.973 19.4266 114.213 18.6533 114.693 18C115.187 17.3466 115.867 16.84 116.733 16.4933C117.613 16.1333 118.613 15.96 119.76 15.96C121.44 15.96 122.76 16.32 123.733 17.04C124.733 17.7866 125.32 18.76 125.56 19.9733Z" fill="#020203"/>
<path d="M132.133 30.8133C131.227 30.8133 130.4 30.6533 129.68 30.32C128.96 29.9866 128.387 29.5066 127.96 28.8666C127.547 28.2266 127.333 27.44 127.333 26.4933C127.333 25.68 127.48 25.0133 127.787 24.48C128.08 23.9466 128.493 23.5333 129.013 23.2133C129.533 22.8933 130.12 22.6533 130.76 22.4933C131.413 22.3333 132.08 22.2133 132.787 22.1333C133.627 22.04 134.307 21.9733 134.827 21.8933C135.347 21.8266 135.733 21.7066 135.973 21.56C136.213 21.4133 136.333 21.1733 136.333 20.84V20.8C136.333 20.0933 136.12 19.5466 135.707 19.16C135.293 18.7733 134.693 18.5866 133.907 18.5866C133.08 18.5866 132.427 18.7733 131.947 19.1333C131.467 19.4933 131.133 19.92 130.973 20.4133L127.813 19.96C128.067 19.0933 128.467 18.36 129.04 17.7733C129.613 17.1866 130.307 16.7466 131.147 16.4533C131.973 16.16 132.893 16.0133 133.893 16.0133C134.587 16.0133 135.267 16.0933 135.96 16.2533C136.64 16.4133 137.267 16.68 137.84 17.0533C138.4 17.4266 138.867 17.92 139.213 18.56C139.56 19.2 139.733 19.9866 139.733 20.9466V30.5466H136.48V28.5733H136.373C136.173 28.9733 135.88 29.3466 135.507 29.6933C135.133 30.04 134.667 30.32 134.12 30.52C133.52 30.72 132.88 30.8133 132.133 30.8133ZM133 28.3333C133.68 28.3333 134.267 28.2 134.76 27.9333C135.253 27.6666 135.64 27.3066 135.907 26.8533C136.173 26.4 136.307 25.92 136.307 25.3866V23.6933C136.2 23.7866 136.027 23.8666 135.773 23.9333C135.52 24.0133 135.24 24.0666 134.933 24.1333C134.627 24.1866 134.307 24.24 134.013 24.28C133.707 24.32 133.44 24.36 133.213 24.3866C132.707 24.4533 132.253 24.5733 131.853 24.72C131.453 24.88 131.147 25.0933 130.907 25.3733C130.68 25.6533 130.56 26.0133 130.56 26.44C130.56 27.0666 130.787 27.5333 131.24 27.8533C131.72 28.1733 132.307 28.3333 133 28.3333Z" fill="#020203"/>
<path d="M145.827 22.12V30.52H142.44V16.1867H145.667V18.6267H145.84C146.173 17.8267 146.693 17.1867 147.427 16.7067C148.16 16.2267 149.053 16 150.12 16C151.107 16 151.973 16.2133 152.707 16.64C153.44 17.0667 154.013 17.68 154.427 18.48C154.84 19.28 155.04 20.2533 155.027 21.4V30.5333H151.64V21.92C151.64 20.96 151.387 20.2133 150.893 19.6667C150.4 19.12 149.72 18.8533 148.84 18.8533C148.253 18.8533 147.72 18.9867 147.267 19.24C146.813 19.4933 146.453 19.8667 146.187 20.36C145.96 20.84 145.827 21.44 145.827 22.12Z" fill="#020203"/>
</svg>
