<svg width="128" height="48" viewBox="0 0 128 48" fill="none" xmlns="http://www.w3.org/2000/svg">
<g clip-path="url(#clip0_9_561)">
<path d="M6.14954 0C6.14954 0 6.3111 9.61433 7.22901 16.7642C7.96334 22.4955 11.3559 34.4096 11.3559 34.4096C11.3559 34.4096 2.76428 27.1594 0.737525 17.5379C-0.525523 11.6919 6.14954 0 6.14954 0Z" fill="#EE977E"/>
<path d="M0.737621 21.6144C0.737621 21.6144 3.31513 29.495 9.35867 34.5099C17.7668 41.5595 28.8551 44.5827 28.8551 44.5827C28.8551 44.5827 9.32929 46.6389 4.23304 40.6353C-2.39063 32.9481 0.737621 21.6144 0.737621 21.6144Z" fill="#922E3A"/>
<path d="M7.46399 8.64001C7.46399 8.64001 13.9041 24.9958 23.6193 33.8937C27.9298 37.8197 40.8026 48 40.8026 48L24.3242 43.4293C21.3869 42.6126 15.8354 34.6388 12.2885 26.0991C10.0356 20.4675 8.41791 14.6133 7.46399 8.64001Z" fill="#922E3A"/>
<path fill-rule="evenodd" clip-rule="evenodd" d="M97.2741 3.51769V6.57679C96.4316 5.991 95.4359 5.65064 94.4028 5.5953C93.037 5.5953 92.4642 6.13261 92.4642 10.9971C92.4642 15.8616 93.0737 16.4132 94.4028 16.4132C95.4374 16.3265 96.429 15.9702 97.2741 15.3816V18.4908C96.1981 18.9394 95.044 19.1826 93.8741 19.2072C91.1204 19.2072 89.5856 17.8532 89.5856 11.0257C89.5856 4.19829 91.1204 2.80127 93.8741 2.80127C95.0443 2.82327 96.1989 3.06658 97.2741 3.51769ZM40.87 19.0711H43.3153L44.1231 15.489H48.0517L48.8669 19.0711H51.7454L47.8902 2.94453H44.7252L40.87 19.0711ZM46.1645 5.42334C46.1645 5.42334 46.4509 8.24603 46.7153 9.46394L47.5451 12.9529H44.6812L45.4669 9.46394C45.7313 8.28901 46.1645 5.42334 46.1645 5.42334ZM57.635 15.3815V2.94453H54.8078V15.5177C54.8078 17.846 56.438 19.2789 59.0009 19.2789C61.5637 19.2789 63.1939 17.846 63.2086 15.5177V2.94453H60.5723V15.3815C60.5723 16.2914 60.0656 16.7141 59.1037 16.7141C58.1417 16.7141 57.635 16.2914 57.635 15.3815ZM70.0818 19.0711H66.8287V2.94453H70.0891C74.4951 2.94453 75.883 5.93916 75.883 11.0114C75.883 16.0836 74.5171 19.0711 70.0818 19.0711ZM69.6559 5.45916V16.535H70.1552C72.3582 16.535 72.9604 14.8729 72.9604 10.9971C72.9604 7.12125 72.3876 5.45916 70.1552 5.45916H69.6559ZM77.0799 19.0711H79.5253L80.3404 15.489H84.269L85.0842 19.0711H87.9334L84.1001 2.94453H80.9352L77.0799 19.0711ZM82.3745 5.42334C82.3745 5.42334 82.6609 8.25319 82.9252 9.4711L83.7183 12.9529H80.8911L81.6842 9.4711C81.9412 8.28901 82.3745 5.42334 82.3745 5.42334ZM102.194 19.0783H105.021L105.014 12.8598L108.539 2.95171H106.071L103.795 9.54275L101.614 2.95171H98.6692L102.194 12.8598V19.0783ZM44.6665 43.3648L41.1711 27.3529H44.0276L45.7166 36.172C45.9516 37.3541 46.2159 39.6538 46.2159 39.6538C46.2159 39.6538 46.473 37.3541 46.7153 36.172L48.5438 27.3529H51.0405L47.5451 43.3648H44.6665ZM60.6749 43.3648V40.8573L56.8417 40.8645V36.2006H60.1756V33.6932H56.8417V29.8603H60.4106V27.3529H54.0366V43.3648H60.6749ZM66.322 35.9857V43.3648H63.8987V27.3529H66.2339L69.2079 35.0758C69.5604 36.0072 70.2286 38.5361 70.2286 38.5361C70.2286 38.5361 69.8688 35.9141 69.8688 34.732V27.3529H72.2921V43.3648H69.9643L66.9902 35.6347C66.7038 34.9182 65.9695 32.1815 65.9695 32.1815C65.9695 32.1815 66.322 35.1976 66.322 35.9857ZM77.4397 43.3648H80.2448V29.8603H83.1454V27.3529H74.5611V29.8603H77.4397V43.3648ZM88.2343 27.3529V39.6967C88.2343 40.5994 88.7337 41.0149 89.703 41.0149C90.6723 41.0149 91.1716 40.5994 91.1716 39.6967V27.3529H93.7859V39.84C93.7859 42.1397 92.1703 43.6012 89.6222 43.6012C87.0741 43.6012 85.4585 42.1684 85.4585 39.84V27.3529H88.2343ZM103.354 43.3648H106.292L103.765 36.2149C104.838 35.3839 105.366 33.9439 105.366 32.1815C105.366 29.323 103.912 27.3529 101.078 27.3529H97.3474V43.3648H100.153V37.0317H101.305L103.354 43.3648ZM100.894 29.8532C102.106 29.8532 102.554 30.7415 102.554 32.1744C102.554 33.6573 102.201 34.517 100.99 34.517H100.16V29.8532H100.894ZM115.867 40.8645V43.372H109.229V27.3529H115.61V29.8603H112.041V33.6932H115.368V36.2006H112.041V40.8645H115.867ZM126.163 30.7415V27.8759V27.8544C125.088 27.4345 123.949 27.1924 122.792 27.138C120.317 27.138 118.65 28.2556 118.65 31.6657V32.0669C118.834 35.9141 120.589 36.5374 122.594 36.5374C123.835 36.5374 124.356 36.8526 124.356 38.6866C124.356 40.5206 123.666 41.0795 122.498 41.0795C121.336 41.0559 120.205 40.7024 119.245 40.0621V42.9278C120.306 43.394 121.46 43.624 122.623 43.6012C125.024 43.6012 126.97 42.3977 126.97 38.658C126.97 34.3165 124.738 33.643 122.689 33.643C121.669 33.643 121.287 33.1989 121.287 31.6227C121.287 30.0466 121.859 29.6526 122.902 29.6526C124.074 29.7024 125.206 30.0805 126.163 30.7415Z" fill="#922E3A"/>
</g>
<defs>
<clipPath id="clip0_9_561">
<rect width="127.418" height="48" fill="white"/>
</clipPath>
</defs>
</svg>
